<svg width="1634" height="437" viewBox="0 0 1634 437" fill="none" xmlns="http://www.w3.org/2000/svg">
<path d="M1510.5 166.787L1544 189H1556L1563 340.5L1577 371.5L1628.5 399V459.5H5V438.5L50 407.5L79.5 393.5L100 372H694.5L734 344L794.5 331.5L808.5 305L819.5 240L831.5 226L859.773 217.734H910.72V208.471H954.256V217.734L969.54 212.639L963.519 101.02L1001.96 85.7356L1025.58 82.0304L1134.42 49.1467H1156.19L1206.21 74.1569V120.935L1217.79 126.03V91.7566L1266.42 82.0304L1276.61 91.7566H1295.13L1314.12 43.5889L1323.39 7L1340.06 12.0947L1345.16 58.4097L1372.94 120.935L1379.43 153.356L1384.52 55.1677L1408.14 35.7154L1489.2 58.4097L1510.5 91.7566V166.787Z" stroke="white" stroke-width="10"/>
</svg>
