<svg width="777" height="681" viewBox="0 0 777 681" fill="none" xmlns="http://www.w3.org/2000/svg">
<g style="mix-blend-mode:overlay">
<path d="M530.78 578.679L530.388 577.89L531.885 576.901L527.706 568.843L527.373 571.509L525.468 579.468L525.652 579.908L527.211 579.427L527.603 580.216L523.006 582.467L522.614 581.678L523.869 580.824L518.723 570.747L517.259 571.253L516.867 570.463L521.559 568.237L521.951 569.026L520.6 569.856L524.849 578.03L525.131 575.548L527.087 567.406L526.739 566.824L525.059 567.373L524.667 566.584L529.359 564.357L529.751 565.146L528.4 565.976L533.547 576.053L534.986 575.639L535.378 576.428L530.78 578.679Z" fill="#313131"/>
<path d="M519.404 583.698C518.897 584.058 518.535 584.26 518.174 584.461C517.812 584.663 517.451 584.864 517.115 584.974C515.72 585.596 514.522 585.876 513.546 585.722C512.57 585.568 511.886 585.096 511.45 584.099C511.084 583.218 511.002 582.411 511.326 581.61C511.651 580.809 512.235 580.174 512.983 579.68C511.949 580.1 511.018 580.154 510.162 579.933C509.333 579.62 508.769 579.082 508.377 578.293C507.802 577.063 507.772 576.072 508.242 575.113C508.712 574.153 509.752 573.341 511.388 572.585C512.086 572.274 512.758 572.055 513.284 571.994C513.836 571.842 514.362 571.781 514.672 571.763C514.983 571.745 515.198 571.703 515.293 571.727L516.291 574.737L515.473 575.115L513.98 573.157C513.289 573.076 512.522 573.271 511.488 573.692C510.696 573.978 510.258 574.455 510.08 575.097C509.901 575.738 510.008 576.454 510.375 577.335C510.697 578.008 511.166 578.522 511.805 578.786C512.445 579.049 513.282 578.971 514.315 578.55L515.469 578.062L515.931 578.968L514.897 579.388C514.441 579.565 514.054 579.858 513.641 580.243C513.324 580.652 513.102 581.086 512.974 581.545C512.942 582.028 512.979 582.627 513.232 583.184C513.529 583.948 514.023 584.371 514.593 584.518C515.163 584.666 515.81 584.538 516.602 584.251C517.084 583.983 517.541 583.806 517.833 583.489C518.125 583.171 518.296 582.92 518.347 582.737L517.994 581.074L519.053 580.561L520.394 583.07C520.273 583.137 519.912 583.338 519.404 583.698Z" fill="#313131"/>
<path d="M504.181 589L505.69 588.702L506.056 589.583L503.679 590.443C503.317 590.644 502.766 590.796 502.189 591.04C501.612 591.284 501.25 591.486 501.009 591.62C499.424 592.193 498.156 592.356 497.301 592.135C496.446 591.914 495.787 591.351 495.446 590.378C495.149 589.614 495.068 588.806 495.367 588.097C495.57 587.364 496.154 586.729 496.877 586.326C495.749 586.722 494.791 586.868 493.962 586.555C493.132 586.242 492.473 585.679 492.132 584.706C491.627 583.593 491.717 582.535 492.307 581.508C492.898 580.482 494.059 579.603 495.98 578.92C496.437 578.743 496.773 578.634 497.204 578.548C498.091 578.287 498.668 578.043 498.884 578L501.167 577.116L501.438 577.973L500.017 578.686L504.181 589ZM496.277 579.685C495.123 580.173 494.375 580.667 493.981 581.351C493.587 582.036 493.694 582.751 493.965 583.608C494.332 584.489 494.8 585.003 495.44 585.266C496.08 585.53 496.916 585.452 497.95 585.031C499.104 584.543 499.871 584.348 500.232 584.147L498.268 579.118C497.862 579.112 497.285 579.356 496.277 579.685ZM499.54 585.54L498.627 585.894C497.834 586.18 497.301 586.632 497.028 587.249C496.755 587.867 496.767 588.558 497.159 589.347C497.456 590.111 497.924 590.626 498.469 590.865C499.013 591.104 499.85 591.025 500.884 590.605C501.34 590.428 501.702 590.226 502.158 590.05L502.52 589.848L500.669 585.144C500.428 585.278 500.091 585.388 499.54 585.54Z" fill="#313131"/>
<path d="M489.343 595.483L487.422 596.166L479.012 585.737L477.839 585.925L477.568 585.069L482.272 583.533L482.544 584.39L481.149 585.012L482.851 587.319L488.012 585.607L487.964 582.843L486.361 583.116L486.089 582.26L490.337 580.901L490.609 581.757L489.55 582.27L489.343 595.483ZM487.356 593.102L488.311 594.43L488.174 592.724L488.017 586.689L483.528 588.182L487.356 593.102Z" fill="#313131"/>
<path d="M474.727 586.496C475.867 586.791 476.741 587.312 477.513 588.199C478.285 589.087 478.912 590.133 479.246 591.497C479.605 592.769 479.68 593.968 479.444 595.184C479.208 596.401 478.643 597.336 477.818 598.105C476.993 598.875 476.004 599.503 474.78 599.875C473.892 600.137 472.72 600.325 471.382 600.372L470.761 600.408L470.005 597.265L471.228 596.893L472.386 598.961C472.576 599.01 472.956 599.108 473.361 599.115C473.767 599.122 474.319 598.969 474.965 598.842C475.732 598.647 476.36 598.22 476.824 597.652C477.287 597.083 477.611 596.283 477.65 595.408C477.689 594.534 477.589 593.427 477.274 592.363C476.958 591.299 476.522 590.301 475.915 589.555C475.307 588.808 474.674 588.153 473.939 587.865C473.205 587.577 472.324 587.447 471.436 587.709C470.79 587.837 470.308 588.105 470.067 588.239C469.826 588.374 469.534 588.691 469.362 588.942L469.138 590.849L467.965 591.038L467.652 588.5C467.867 588.457 468.229 588.256 468.711 587.987C469.098 587.694 469.459 587.493 469.916 587.316C470.277 587.115 470.829 586.962 471.38 586.81C472.439 586.298 473.587 586.201 474.727 586.496Z" fill="#313131"/>
<path d="M460.64 600.544C460.265 601.528 459.7 602.462 459.021 603.073C458.221 603.751 457.378 604.221 456.421 604.366C455.223 604.646 454.126 604.559 453.202 604.222C452.277 603.885 451.428 603.272 450.751 602.409C450.074 601.546 449.543 600.525 449.304 599.185C448.995 597.73 448.946 596.439 449.156 595.315C449.392 594.098 449.958 593.163 450.687 592.369C451.417 591.575 452.356 591.13 453.459 590.825C454.657 590.545 455.779 590.541 456.799 590.902C457.819 591.264 458.572 591.852 459.275 592.624C459.952 593.487 460.483 594.508 460.722 595.848L463.644 595.227L462.421 590.096L460.843 590.277L460.667 589.446L465.675 588.283L465.851 589.115L464.386 589.621L467.06 600.533L468.518 600.418L468.694 601.25L463.807 602.345L463.63 601.513L465.095 601.007L463.96 596.292L461.012 597.004C461.036 598.386 460.92 599.535 460.64 600.544ZM458.573 601.385C458.999 600.218 459.001 598.744 458.534 596.756C458.087 595.068 457.442 593.722 456.549 592.902C455.657 592.081 454.637 591.719 453.343 591.975C452.145 592.255 451.441 592.957 451.04 594.033C450.64 595.108 450.707 596.698 451.174 598.686C451.622 600.374 452.172 601.696 453.064 602.516C453.931 603.428 454.977 603.698 456.08 603.394C457.348 603.23 458.147 602.552 458.573 601.385Z" fill="#313131"/>
<path d="M439.366 599.761C438.802 599.222 437.979 598.518 437.112 597.606C436.479 596.951 436.106 596.461 435.777 596.18C435.448 595.898 435.188 595.733 434.998 595.683L434.307 595.603L434.131 594.771L436.381 594.37C436.692 594.352 437.046 594.542 437.445 594.94C437.844 595.338 438.477 595.993 439.154 596.856C439.995 597.86 440.628 598.515 441.192 599.054C441.66 599.568 442.11 599.782 442.541 599.697L443.714 599.509L442.776 594.451L441.128 594.516L440.951 593.685L445.978 592.822L446.129 593.746L444.69 594.16L446.717 605.199L448.244 605.201L448.395 606.124L443.489 606.92L443.389 605.813L444.854 605.307L443.941 600.157L442.337 600.431L439.516 606.187L441.069 606.097L441.22 607.021L436.719 607.823L436.568 606.899L438.007 606.485L441.069 600.594C440.569 600.563 439.955 600.208 439.366 599.761Z" fill="#313131"/>
<path d="M431.011 595.734C432.006 596.187 432.734 596.867 433.265 597.889C433.822 598.819 434.207 599.999 434.446 601.339C434.685 602.678 434.544 603.919 434.118 605.086C433.717 606.162 433.057 607.072 432.258 607.75C431.363 608.404 430.425 608.849 429.157 609.012C427.243 609.304 425.627 608.886 424.5 607.809C423.374 606.731 422.564 605.244 422.339 603.122C422.125 601.691 422.266 600.45 422.667 599.374C423.093 598.207 423.727 597.388 424.552 596.619C425.447 595.966 426.48 595.545 427.653 595.357C428.921 595.193 430.017 595.28 431.011 595.734ZM431.784 606.154C432.305 605.011 432.497 603.586 432.246 601.556C432.04 599.734 431.49 598.412 430.648 597.409C429.806 596.405 428.787 596.043 427.614 596.231C426.441 596.419 425.572 596.981 425.051 598.124C424.53 599.267 424.313 600.783 424.589 602.721C424.796 604.544 425.346 605.865 426.213 606.777C426.985 607.665 427.979 608.118 429.247 607.955C430.369 607.95 431.263 607.297 431.784 606.154Z" fill="#313131"/>
<path d="M419.638 608.812L421.14 608.905L421.196 609.804L418.686 610.04C418.281 610.033 417.729 610.185 417.108 610.221C416.461 610.349 416.056 610.343 415.84 610.385C414.167 610.542 412.88 610.406 412.101 609.91C411.323 609.414 410.905 608.716 410.78 607.701C410.698 606.894 410.927 606.069 411.296 605.476C411.664 604.883 412.413 604.389 413.3 604.127C412.153 604.223 411.177 604.069 410.398 603.573C409.619 603.077 409.227 602.288 409.171 601.389C409.097 600.19 409.377 599.182 410.227 598.321C411.078 597.459 412.447 596.929 414.526 596.779C414.957 596.693 415.363 596.7 415.863 596.731C416.795 596.677 417.416 596.641 417.606 596.69L420.116 596.455L420.172 597.354L418.663 597.652L419.638 608.812ZM414.652 597.794C413.409 597.866 412.496 598.219 412.033 598.787C411.474 599.331 411.271 600.064 411.422 600.988C411.478 601.887 411.8 602.56 412.319 602.891C412.839 603.221 413.694 603.443 414.746 603.321C415.988 603.249 416.825 603.171 417.161 603.061L416.705 597.735C416.325 597.637 415.704 597.673 414.652 597.794ZM416.209 604.289L415.157 604.41C414.32 604.489 413.622 604.8 413.28 605.301C412.937 605.802 412.733 606.535 412.814 607.343C412.896 608.15 413.123 608.798 413.642 609.129C414.162 609.46 414.922 609.656 415.974 609.535C416.405 609.45 416.906 609.481 417.362 609.305L417.793 609.219L417.356 604.193C417.046 604.211 416.735 604.229 416.209 604.289Z" fill="#313131"/>
<path d="M390.285 611.444L390.229 610.545L391.833 610.272L391.48 599.076L389.693 598.908L389.637 598.009L394.865 597.887L394.921 598.786L393.343 598.968L393.671 610.256L399.616 610.122L399.288 598.834L397.596 598.691L397.54 597.792L402.769 597.67L402.825 598.569L401.341 598.775L401.695 609.971L403.266 610.181L403.322 611.08L390.285 611.444Z" fill="#313131"/>
<path d="M385.878 598.708C386.726 599.321 387.429 600.092 387.839 601.181C388.275 602.178 388.445 603.401 388.468 604.783C388.397 606.141 388.161 607.357 387.57 608.384C386.98 609.41 386.25 610.204 385.286 610.741C384.322 611.278 383.219 611.583 382.097 611.588C380.164 611.579 378.72 610.911 377.714 609.766C376.733 608.53 376.26 606.934 376.25 604.769C376.226 603.387 376.582 602.104 377.173 601.077C377.764 600.05 378.519 599.165 379.483 598.628C380.447 598.091 381.55 597.786 382.767 597.806C383.984 597.826 385.029 598.096 385.878 598.708ZM385.123 609.127C385.809 608.125 386.216 606.658 386.25 604.701C386.234 602.928 385.925 601.472 385.299 600.426C384.673 599.38 383.704 598.834 382.487 598.815C381.27 598.795 380.306 599.332 379.62 600.334C378.935 601.336 378.502 602.895 378.468 604.851C378.459 606.716 378.698 608.055 379.419 609.126C380.045 610.173 381.014 610.718 382.231 610.738C383.404 610.55 384.342 610.104 385.123 609.127Z" fill="#313131"/>
<path d="M370.371 602.463C370.734 600.788 371.16 599.621 371.795 598.802C372.113 598.393 372.405 598.075 372.766 597.874C373.128 597.672 373.559 597.587 373.964 597.594C374.56 597.65 374.966 597.656 375.251 597.73L375.249 599.204C374.964 599.13 374.463 599.099 373.867 599.043C373.677 598.994 373.462 599.036 373.221 599.171C372.98 599.305 372.834 599.464 372.688 599.623C371.59 601.009 370.99 603.901 370.7 608.248L370.603 609.697L372.745 610.054L372.706 610.928L361.882 610.292L361.921 609.418L363.689 609.285L364.457 598.084L362.601 597.801L362.64 596.927L368.337 597.318L368.298 598.193L366.339 598.276L365.571 609.477L369.386 609.677L369.534 608.045C369.809 605.954 370.033 604.046 370.371 602.463Z" fill="#313131"/>
<path d="M358.493 608.925L360.013 609.318L359.879 610.168L350.374 609.185L350.447 606.354L351.543 606.44L351.871 608.196L356.49 608.8L357.08 603.744L354.006 603.441L353.599 604.908L352.597 604.846L353.027 600.731L354.029 600.793L354.096 602.383L357.144 602.778L357.715 597.422L352.423 597.037L351.217 599.182L350.127 598.704L350.993 595.586L361.284 596.674L361.15 597.524L359.622 597.522L358.493 608.925Z" fill="#313131"/>
<path d="M343.056 607.293L346.225 607.621L347.433 604.002L348.599 604.205L347.586 608.955L336.041 607.248L336.554 602.467L337.72 602.67L337.772 606.516L340.984 607.052L342.684 595.797L340.093 595.225L340.227 594.376L347.273 595.411L347.139 596.261L344.731 596.13L343.056 607.293Z" fill="#313131"/>
<path d="M329.727 598.442L330.607 598.571C330.944 598.462 331.356 598.077 331.699 597.576C332.042 597.075 332.626 596.44 333.14 595.688C333.654 594.937 334.117 594.368 334.435 593.959C334.752 593.55 334.993 593.416 335.183 593.465L337.705 593.92L337.571 594.77L336.829 594.873C336.614 594.916 336.398 594.958 336.106 595.276C335.84 595.502 335.402 595.978 334.939 596.546C334.329 597.273 333.866 597.841 333.454 598.226C333.016 598.702 332.654 598.904 332.198 599.081C333.002 599.485 333.565 600.024 333.888 600.697C334.21 601.37 334.292 602.177 334.132 603.119C333.845 604.518 333.185 605.429 332.272 605.782C331.264 606.111 330.021 606.183 328.38 605.857C328 605.759 327.62 605.661 327.05 605.513C326.48 605.366 326.004 605.243 325.719 605.169L323.102 604.689L323.237 603.84L324.834 603.958L327.078 592.942L325.393 592.408L325.527 591.558L330.951 592.567L330.817 593.417L329.03 593.25L328.137 597.933L329.727 598.442ZM327.184 604.664C327.754 604.811 328.229 604.934 328.609 605.032C329.585 605.186 330.301 605.175 330.904 604.839C331.506 604.503 331.875 603.911 332.06 602.878C332.219 601.936 332.138 601.129 331.695 600.523C331.252 599.917 330.638 599.562 329.688 599.316C328.712 599.162 328.047 598.99 327.736 599.008L326.639 604.424L327.184 604.664Z" fill="#313131"/>
<path d="M316.603 602.419L319.79 603.047L321.284 599.502L322.519 599.821L321.03 604.448L309.74 601.824L310.659 597.05L311.799 597.345L311.446 601.184L314.582 601.995L317.257 590.894L314.717 590.139L314.946 589.314L321.935 590.924L321.705 591.749L319.253 591.41L316.603 602.419Z" fill="#313131"/>
<path d="M304.599 587.327C305.397 588.123 305.833 589.12 306.028 590.251C306.223 591.383 306.082 592.624 305.7 593.999C305.344 595.283 304.632 596.377 303.808 597.146C302.957 598.007 301.898 598.52 300.795 598.824C299.597 599.104 298.501 599.017 297.265 598.698C296.315 598.452 295.32 597.998 294.066 597.379L293.522 597.14L294.673 594.097L295.908 594.416L295.677 596.715C295.816 596.947 296.076 597.113 296.43 597.303C296.785 597.493 297.33 597.732 297.9 597.879C298.66 598.076 299.376 598.064 300.144 597.869C300.816 597.65 301.564 597.156 302.078 596.404C302.688 595.677 303.158 594.718 303.463 593.617C303.769 592.517 303.954 591.484 303.924 590.493C303.893 589.503 303.622 588.646 303.204 587.949C302.787 587.251 302.103 586.78 301.153 586.534C300.487 586.362 300.012 586.239 299.607 586.233C299.201 586.226 298.865 586.336 298.624 586.47L297.405 587.924L296.316 587.446L297.479 585.093C297.764 585.167 298.169 585.173 298.67 585.204C299.171 585.235 299.576 585.242 299.982 585.249C300.387 585.255 300.958 585.403 301.528 585.55C302.763 585.869 303.827 586.439 304.599 587.327Z" fill="#313131"/>
<path d="M286.16 595.041L286.484 594.24L288.315 594.615L291.4 586.077L289.224 587.676L282.012 592.003L281.885 592.462L283.424 593.154L283.1 593.955L278.26 592.311L278.584 591.51L280.035 591.787L283.8 581.164L282.356 580.496L282.681 579.695L287.616 581.364L287.291 582.165L285.65 581.839L282.54 590.469L284.596 588.937L292.022 584.567L292.201 583.925L290.567 583.208L290.891 582.407L295.826 584.076L295.501 584.877L293.955 584.575L290.19 595.198L291.54 595.842L291.215 596.643L286.16 595.041Z" fill="#313131"/>
<path d="M267.067 588.237L268.72 583.751L269.93 584.162L269.032 587.763L272.776 589.32L277.136 578.753L274.153 577.392L274.477 576.592L281.306 579.143L280.982 579.944L278.986 579.428L274.771 589.836L276.545 590.786L276.22 591.587L267.067 588.237Z" fill="#313131"/>
<path d="M264.528 586.009L265.731 586.811L265.407 587.612L260.764 585.626L261.088 584.825L262.609 585.218L264.642 580.83L258.625 578.292L256.591 582.68L257.889 583.507L257.565 584.307L253.017 582.345L253.341 581.545L254.767 581.913L259.457 571.628L258.133 570.892L258.457 570.092L263.005 572.054L262.681 572.854L261.186 572.37L258.93 577.191L264.948 579.73L267.204 574.908L265.785 574.148L266.109 573.348L270.847 575.359L270.523 576.159L269.123 575.699L264.528 586.009Z" fill="#313131"/>
<path d="M246.816 579.366L245.018 578.508L246.726 565.388L245.783 564.751L246.202 563.975L250.604 566.096L250.185 566.872L248.689 566.387L248.236 569.12L253.088 571.455L255.08 569.415L253.687 568.564L254.106 567.787L258.059 569.694L257.639 570.47L256.525 570.083L246.816 579.366ZM247.061 576.285L246.723 577.868L247.891 576.598L252.263 572.225L248.051 570.153L247.061 576.285Z" fill="#313131"/>
<path d="M239.507 566.077C240.579 564.782 241.55 563.854 242.419 563.292C242.901 563.024 243.237 562.914 243.668 562.829C244.074 562.835 244.454 562.934 244.904 563.148C245.448 563.387 245.777 563.669 246.037 563.834L245.465 565.161C245.205 564.995 244.851 564.805 244.236 564.45C244.072 564.309 243.882 564.26 243.666 564.302C243.451 564.345 243.235 564.388 242.994 564.522C241.453 565.303 239.574 567.667 237.288 571.498L236.526 572.775L238.318 574.025L237.899 574.801L228.513 569.721L228.932 568.945L230.592 569.57L236.276 559.738L234.718 558.746L235.137 557.97L240.198 560.654L239.779 561.43L238.049 560.688L232.39 570.428L235.677 572.163L236.49 570.702C237.38 568.967 238.434 567.372 239.507 566.077Z" fill="#313131"/>
<path d="M211.458 559.612L211.972 558.861L213.606 559.578L219.81 550.077L218.468 549.042L218.982 548.29L223.586 551.151L223.072 551.903L221.533 551.21L215.329 560.711L216.671 561.746L216.157 562.498L211.458 559.612ZM224.271 561.156C222.973 560.329 222.2 559.441 221.859 558.468C221.518 557.496 221.703 556.463 222.415 555.369C223.151 554.184 224.141 553.555 225.313 553.367C226.486 553.179 227.722 553.498 229.045 554.233C229.21 554.374 229.4 554.423 229.564 554.564C229.729 554.705 229.894 554.846 230.084 554.895C230.673 555.342 231.192 555.673 231.616 555.979L233.788 557.327L233.274 558.078L231.83 557.41L225.626 566.911L226.778 567.897L226.264 568.648L221.73 565.904L222.244 565.152L223.973 565.894L226.278 562.362L224.271 561.156ZM229.614 555.854C229.449 555.713 229.189 555.548 228.74 555.333C227.866 554.813 227.01 554.592 226.243 554.786C225.476 554.981 224.823 555.5 224.163 556.411C223.623 557.254 223.419 557.987 223.621 558.727C223.823 559.467 224.361 560.098 225.235 560.619L226.888 561.636L230.246 556.509C230.038 556.16 229.873 556.02 229.614 555.854Z" fill="#313131"/>
<path d="M205.02 553.82L206.052 554.873L205.537 555.624L201.46 552.703L201.974 551.952L203.392 552.711L206.42 548.777L201.139 545.053L198.112 548.988L199.143 550.041L198.629 550.792L194.646 547.895L195.16 547.144L196.51 547.787L203.397 538.758L202.34 537.797L202.854 537.045L206.932 539.967L206.418 540.718L205.094 539.983L201.895 544.168L207.176 547.891L210.375 543.707L209.153 542.605L209.667 541.853L213.84 544.799L213.326 545.551L212.002 544.815L205.02 553.82Z" fill="#313131"/>
<path d="M189.182 543.731L187.606 542.439L192.191 529.964L191.418 529.077L192.002 528.442L195.865 531.405L195.255 532.132L193.957 531.305L192.934 533.891L197.195 537.253L199.655 535.727L198.529 534.649L199.113 534.014L202.551 536.672L201.967 537.307L200.903 536.737L189.182 543.731ZM190.187 540.846L189.564 542.356L190.966 541.342L196.18 537.973L192.507 535.058L190.187 540.846Z" fill="#313131"/>
<path d="M178.079 533.097L179.389 534.615L178.805 535.25L175.14 531.944L178.901 524.269L180.083 522.215L178.078 523.564L170.487 527.793L166.891 524.603L167.475 523.968L169.172 525.193L175.99 516.047L174.914 514.786L175.498 514.151L179.397 517.714L178.814 518.35L177.446 517.406L172.393 523.864L170.197 526.637L172.607 525.295L181.593 520.444L182.486 521.264L178.641 529.606L177.034 532.827L179.724 530.476L186.024 525.029L184.758 523.719L185.342 523.084L188.938 526.274L188.354 526.909L187.081 525.99L178.079 533.097Z" fill="#313131"/>
<path d="M161.751 519.638L160.321 518.188L166.445 506.406L165.793 505.451L166.472 504.84L169.896 508.281L169.217 508.891L167.945 507.973L166.541 510.46L170.39 514.206L172.99 512.913L172.009 511.677L172.688 511.066L175.808 514.133L175.129 514.744L174.186 514.107L161.751 519.638ZM163.136 516.852L162.323 518.312L163.864 517.531L169.521 514.768L166.166 511.444L163.136 516.852Z" fill="#313131"/>
<path d="M155.544 511.548L156.335 512.735L155.656 513.345L154.017 511.546C153.687 511.264 153.384 510.891 153.054 510.609C152.561 510.187 152.092 509.673 151.693 509.275C150.523 507.989 149.922 506.851 149.891 505.861C149.861 504.87 150.401 504.027 151.372 503.099C152.145 502.512 152.894 502.018 153.731 501.94C154.593 501.769 155.473 501.899 156.303 502.211C157.133 502.524 157.887 503.112 158.589 503.883C158.823 504.141 159.057 504.398 159.292 504.655C159.526 504.912 159.665 505.144 159.76 505.169L162.837 502.525L161.249 500.542L161.928 499.931L166.004 504.326L165.325 504.937L164.172 503.951L155.544 511.548ZM157.885 504.586C157.252 503.931 156.447 503.526 155.662 503.421C154.876 503.317 153.842 503.737 152.872 504.666C152.072 505.343 151.678 506.028 151.69 506.719C151.702 507.41 152.094 508.199 152.797 508.97C153.031 509.227 153.36 509.509 153.689 509.791C153.854 509.931 154.018 510.072 154.088 510.189L159.03 505.963C158.796 505.706 158.423 505.216 157.885 504.586Z" fill="#313131"/>
<path d="M155.844 494.329C156.039 495.461 155.854 496.494 155.263 497.521C154.768 498.572 153.892 499.525 152.826 500.428C151.76 501.332 150.606 501.82 149.434 502.008C148.261 502.196 147.044 502.176 145.955 501.698C144.84 501.312 143.896 500.675 143.055 499.671C142.447 498.924 141.795 497.97 141.195 496.832L140.942 496.275L143.625 494.315L144.397 495.203L142.887 496.974C142.931 497.182 142.949 497.482 143.133 497.922C143.341 498.271 143.62 498.736 143.993 499.226C144.531 499.856 145.145 500.212 145.906 500.408C146.666 500.605 147.502 500.526 148.39 500.264C149.278 500.002 150.242 499.465 151.161 498.72C152.081 497.975 152.786 497.273 153.325 496.43C153.865 495.587 154.189 494.786 154.203 494.003C154.217 493.221 153.92 492.456 153.407 491.734C153.034 491.244 152.61 490.938 152.281 490.657C151.951 490.375 151.666 490.301 151.356 490.319L149.46 490.91L148.808 489.955L151.098 488.68C151.262 488.821 151.592 489.103 152.016 489.409C152.44 489.715 152.795 489.905 153.124 490.187C153.453 490.468 153.757 490.842 154.251 491.264C155.213 492.201 155.744 493.223 155.844 494.329Z" fill="#313131"/>
<path d="M125.37 476.427L126.118 475.933L127.264 477.31L135.084 472.256L132.34 472.235L123.906 471.43L123.519 471.723L124.233 473.185L123.485 473.68L120.67 469.512L121.418 469.018L122.45 470.071L132.129 463.827L131.389 462.456L132.137 461.962L135.047 466.154L134.299 466.648L133.223 465.387L125.282 470.508L127.836 470.481L136.461 471.334L137.063 470.999L136.254 469.512L137.002 469.018L139.912 473.209L139.164 473.704L138.158 472.559L128.479 478.803L129.123 480.149L128.375 480.644L125.37 476.427Z" fill="#313131"/>
<path d="M118.747 466.165C118.348 465.767 118.044 465.394 117.715 465.113C117.386 464.831 117.272 464.507 117.038 464.25C116.273 462.971 115.862 461.882 115.832 460.891C115.801 459.901 116.29 459.241 117.254 458.704C118.098 458.234 118.96 458.064 119.815 458.285C120.67 458.506 121.354 458.978 121.987 459.633C121.431 458.703 121.185 457.755 121.414 456.929C121.643 456.104 122.132 455.444 122.88 454.95C123.99 454.254 125.163 454.066 126.183 454.428C127.203 454.79 128.19 455.635 129.19 457.171C129.538 457.752 129.886 458.333 130.043 458.865C130.201 459.398 130.384 459.838 130.498 460.162C130.612 460.486 130.656 460.694 130.63 460.786L127.72 462.097L127.233 461.284L129.003 459.677C128.991 458.986 128.694 458.222 128.112 457.383C127.695 456.686 127.106 456.239 126.51 456.183C125.915 456.127 125.052 456.298 124.209 456.767C123.581 457.195 123.143 457.671 122.87 458.288C122.692 458.93 122.868 459.762 123.45 460.6L124.171 461.671L123.302 462.233L122.746 461.303C122.467 460.838 122.138 460.556 121.714 460.25C121.29 459.944 120.815 459.821 120.314 459.79C119.813 459.759 119.262 459.911 118.659 460.246C117.936 460.649 117.593 461.15 117.441 461.7C117.383 462.275 117.515 462.899 117.933 463.596C118.211 464.061 118.515 464.435 118.869 464.625C119.198 464.906 119.484 464.98 119.699 464.937L121.379 464.389L122.031 465.344L119.665 466.894C119.475 466.845 119.241 466.588 118.747 466.165Z" fill="#313131"/>
<path d="M111.4 452.277L111.924 453.69L111.106 454.068L109.879 451.884C109.671 451.535 109.392 451.07 109.019 450.58C108.646 450.091 108.437 449.742 108.298 449.509C107.489 448.022 107.198 446.866 107.238 445.992C107.372 445.142 107.861 444.483 108.825 443.946C109.643 443.567 110.41 443.373 111.17 443.569C111.956 443.674 112.64 444.146 113.177 444.776C112.646 443.754 112.4 442.806 112.63 441.981C112.859 441.156 113.348 440.496 114.286 440.051C115.371 439.447 116.518 439.35 117.607 439.828C118.722 440.215 119.754 441.268 120.772 443.103C120.981 443.452 121.164 443.893 121.373 444.241C121.765 445.031 122.017 445.587 122.182 445.728L123.339 447.796L122.521 448.174L121.635 446.963L111.4 452.277ZM114.397 447.352L113.936 446.446C113.518 445.749 113.05 445.235 112.385 445.063C111.72 444.891 111.073 445.018 110.255 445.396C109.532 445.799 108.999 446.251 108.846 446.801C108.694 447.351 108.895 448.091 109.357 448.997C109.566 449.346 109.844 449.811 110.053 450.159L110.261 450.508L114.884 448.166C114.884 448.166 114.676 447.817 114.397 447.352ZM120.049 443.506C119.423 442.46 118.79 441.805 118.055 441.517C117.32 441.228 116.579 441.331 115.735 441.801C114.892 442.271 114.359 442.723 114.276 443.389C114.192 444.056 114.299 444.771 114.856 445.701C115.482 446.748 115.804 447.421 116.013 447.769L120.902 445.201C120.763 444.968 120.51 444.412 120.049 443.506Z" fill="#313131"/>
<path d="M102.899 438.876L101.976 437.065L111.589 427.757L111.273 426.693L112.091 426.315L114.26 430.61L113.442 430.988L112.581 429.685L110.424 431.584L112.776 436.319L115.647 435.882L115.149 434.377L115.967 433.999L117.857 437.829L117.039 438.207L116.387 437.253L102.899 438.876ZM105.063 436.585L103.73 437.715L105.455 437.375L111.698 436.532L109.599 432.353L105.063 436.585Z" fill="#313131"/>
<path d="M110.276 423.684C110.091 424.717 109.595 425.768 108.865 426.562C108.135 427.356 107 428.144 105.725 428.699C104.451 429.253 103.183 429.417 101.992 429.306C100.8 429.194 99.6855 428.808 98.742 428.171C97.7984 427.534 97.0518 426.555 96.5462 425.441C96.1797 424.56 95.8641 423.496 95.5995 422.248L95.4672 421.624L98.6374 420.478L99.143 421.592L97.1387 422.941C97.0878 423.124 97.0809 423.516 97.1691 423.932C97.2574 424.347 97.4151 424.88 97.6679 425.436C97.9903 426.109 98.4332 426.715 99.1425 427.095C99.8519 427.475 100.612 427.671 101.544 427.618C102.476 427.564 103.553 427.351 104.707 426.863C105.741 426.442 106.705 425.905 107.504 425.227C108.304 424.55 108.792 423.89 109.022 423.065C109.346 422.264 109.264 421.457 108.872 420.668C108.62 420.111 108.341 419.646 108.107 419.389C107.873 419.132 107.639 418.875 107.259 418.776L105.231 418.743L104.915 417.679L107.527 417.077C107.666 417.309 107.875 417.658 108.179 418.031C108.482 418.405 108.811 418.686 109.02 419.035C109.229 419.384 109.507 419.849 109.76 420.406C110.266 421.519 110.461 422.651 110.276 423.684Z" fill="#313131"/>
<path d="M94.085 411.931C93.0142 411.752 92.0198 411.299 91.2663 410.711C90.5129 410.123 89.9308 409.284 89.5898 408.312C89.1792 407.223 89.0537 406.208 89.3338 405.199C89.6139 404.191 90.0586 403.323 90.858 402.645C91.6829 401.876 92.6468 401.339 93.8959 400.875C95.3605 400.37 96.6283 400.206 97.8451 400.226C99.0364 400.337 100.151 400.724 101 401.336C101.848 401.948 102.525 402.811 102.961 403.809C103.372 404.897 103.472 406.004 103.287 407.037C103.102 408.071 102.562 408.914 101.737 409.683C100.912 410.453 99.923 411.081 98.6739 411.545L99.7479 414.279L104.839 412.451L104.461 410.879L105.349 410.617L107.105 415.297L106.217 415.558L105.477 414.188L94.6224 418.064L94.9312 419.52L94.0436 419.782L92.2621 415.194L93.1497 414.932L93.8895 416.302L98.6448 414.584L97.5708 411.849C96.3727 412.129 95.1304 412.201 94.085 411.931ZM92.9465 410.162C94.1819 410.482 95.7602 410.3 97.7068 409.526C99.4124 408.886 100.643 408.123 101.424 407.145C102.204 406.168 102.389 405.135 101.979 404.046C101.568 402.957 100.72 402.345 99.5793 402.05C98.4389 401.755 96.8352 402.028 94.914 402.711C93.2084 403.351 91.978 404.114 91.2227 405C90.4419 405.977 90.2823 406.919 90.6929 408.007C90.983 409.163 91.8061 409.867 92.9465 410.162Z" fill="#313131"/>
<path d="M92.2911 391.616C92.78 390.957 93.4148 390.138 94.2905 389.185C94.8744 388.55 95.3123 388.073 95.6296 387.664C95.9216 387.346 95.998 387.071 96.0489 386.888L96.0371 386.197L96.9246 385.935L97.6508 388.088C97.79 388.321 97.5676 388.755 97.2502 389.164C96.9074 389.665 96.3235 390.3 95.4987 391.07C94.6229 392.023 93.9185 392.725 93.4552 393.293C92.9918 393.861 92.8645 394.32 92.9782 394.644L93.2938 395.708L98.4038 394.179L98.146 392.54L99.0336 392.278L100.574 397.001L99.6865 397.263L99.0417 395.917L87.9341 399.236L88.1478 400.667L87.2602 400.929L85.7892 396.323L86.6769 396.061L87.3216 397.407L92.4316 395.878L91.9328 394.374L85.642 392.452L85.9252 394L85.0376 394.262L83.6804 389.98L84.568 389.718L85.2382 390.972L91.6682 393.126C91.5545 392.802 91.8278 392.184 92.2911 391.616Z" fill="#313131"/>
<path d="M95.2806 383.053C94.9055 384.037 94.2707 384.856 93.3763 385.509C92.4819 386.162 91.3024 386.742 89.9837 387.089C88.57 387.411 87.3278 387.483 86.1619 387.28C84.9961 387.077 84.0271 386.531 83.204 385.827C82.381 385.123 81.8245 384.193 81.5344 383.037C81.0169 381.233 81.2343 379.717 82.2119 378.397C83.1641 377.169 84.6355 376.272 86.7213 375.73C88.135 375.408 89.4723 375.36 90.6381 375.563C91.804 375.766 92.868 376.336 93.691 377.04C94.514 377.745 95.0706 378.675 95.3607 379.831C95.6508 380.987 95.6558 382.069 95.2806 383.053ZM84.6246 385.114C85.8346 385.525 87.3874 385.435 89.3526 384.96C91.1974 384.552 92.5229 383.814 93.3732 382.953C94.2235 382.092 94.529 380.991 94.2135 379.927C93.9234 378.771 93.1004 378.067 91.8904 377.656C90.6804 377.245 89.0326 377.31 87.0673 377.785C85.2226 378.192 83.8971 378.931 83.0468 379.792C82.1965 380.653 81.9164 381.662 82.2065 382.818C82.7121 383.931 83.5096 384.727 84.6246 385.114Z" fill="#313131"/>
<path d="M80.4303 373.809L80.5235 375.307L79.6614 375.477L79.1067 373.074C79.0185 372.658 78.8607 372.126 78.7029 371.593C78.5452 371.061 78.3619 370.621 78.3432 370.321C77.9904 368.658 78.0109 367.484 78.3351 366.683C78.6593 365.882 79.4078 365.388 80.3904 365.151C81.2525 364.98 82.0382 365.085 82.773 365.373C83.4824 365.753 84.0458 366.292 84.4377 367.081C84.1476 365.925 84.1867 365.051 84.606 364.275C85.0252 363.499 85.7737 363.004 86.7309 362.859C87.929 362.579 89.0949 362.782 90.0129 363.511C90.9564 364.148 91.6962 365.518 92.0932 367.39C92.1814 367.806 92.2696 368.222 92.2628 368.613C92.4137 369.536 92.5715 370.069 92.6156 370.276L93.1958 372.588L92.3337 372.759L91.8094 371.346L80.4303 373.809ZM84.6751 369.894L84.4291 368.946C84.2526 368.114 83.9048 367.533 83.2905 367.178C82.7712 366.847 81.9855 366.742 81.0979 367.004C80.2358 367.174 79.6333 367.51 79.3855 368.035C79.1376 368.561 79.029 369.319 79.2495 370.359C79.3377 370.775 79.4259 371.191 79.6092 371.631L79.7228 371.955L84.8006 370.909C84.8515 370.726 84.7378 370.402 84.6751 369.894ZM91.1106 367.627C90.8205 366.471 90.4285 365.682 89.7446 365.21C89.1558 364.763 88.37 364.658 87.3874 364.896C86.4303 365.041 85.8023 365.469 85.5545 365.994C85.2116 366.495 85.1725 367.37 85.393 368.409C85.6831 369.565 85.8596 370.397 85.9733 370.721L91.387 369.566C91.4634 369.291 91.3311 368.667 91.1106 367.627Z" fill="#313131"/>
<path d="M73.9686 346.096L74.9258 345.95L75.4246 347.455L86.9105 345.707L86.8682 344.026L87.8254 343.88L88.6684 348.914L87.7112 349.059L87.3074 347.579L75.8215 349.327L76.7714 355.076L88.3523 353.352L88.31 351.671L89.2672 351.525L90.0152 356.534L89.058 356.68L88.6288 355.291L77.1428 357.039L77.1156 358.604L76.1584 358.75L73.9686 346.096Z" fill="#313131"/>
<path d="M86.6005 340.222C86.1558 341.09 85.331 341.86 84.367 342.397C83.403 342.934 82.1794 343.305 80.7216 343.42C79.2638 343.534 77.9774 343.398 76.8625 343.012C75.7475 342.625 74.804 341.988 74.1269 341.125C73.4499 340.262 73.0138 339.265 72.9138 338.158C72.7069 336.336 73.1398 334.777 74.2566 333.69C75.3734 332.603 76.984 331.938 79.1834 331.721C80.6412 331.606 81.9275 331.742 83.0425 332.129C84.1574 332.515 85.1009 333.152 85.873 334.04C86.55 334.903 86.9861 335.9 87.0861 337.007C87.2303 338.321 87.0452 339.355 86.6005 340.222ZM75.7562 340.76C76.9152 341.355 78.4171 341.448 80.4961 341.298C82.3849 341.098 83.729 340.659 84.7694 339.847C85.7843 339.127 86.2545 338.167 86.0849 336.944C85.9848 335.837 85.3078 334.974 84.1487 334.38C82.9897 333.786 81.3928 333.668 79.4089 333.843C77.52 334.042 76.0809 334.456 75.1355 335.293C74.1206 336.013 73.7455 336.997 73.9151 338.22C73.9896 339.419 74.6667 340.282 75.7562 340.76Z" fill="#313131"/>
<path d="M80.6926 325.92C82.3845 326.062 83.7405 326.314 84.6399 326.744C85.0896 326.958 85.4188 327.24 85.6529 327.497C85.8616 327.846 85.9753 328.17 86.0635 328.586C86.1008 329.185 86.094 329.576 86.0176 329.851L84.5344 330.058C84.5157 329.758 84.5225 329.367 84.5107 328.676C84.4666 328.468 84.4225 328.26 84.2579 328.119C84.0933 327.978 83.9287 327.837 83.6691 327.672C82.1553 326.887 79.082 326.584 74.5185 326.879L73.0607 326.993L73.0012 329.041L72.0695 329.095L71.3916 318.7L72.3233 318.646L72.6761 320.309L84.2875 319.577L84.3657 317.828L85.2974 317.774L85.7025 323.284L84.7708 323.338L84.4689 321.491L72.883 322.132L73.0812 325.819L74.7291 325.754C77.0676 325.769 79.0006 325.777 80.6926 325.92Z" fill="#313131"/>
<path d="M72.5239 315.356L72.3065 316.872L71.3748 316.926L71.1771 307.736L74.1181 307.415L74.1486 308.406L72.3734 308.93L72.3424 313.442L77.5711 313.32L77.4798 310.348L75.9083 310.138L75.8778 309.148L80.1748 309.079L80.2052 310.07L78.6015 310.343L78.5724 313.382L84.1116 313.242L83.7947 308.148L81.4003 307.234L81.7058 306.134L84.9438 306.578L85.1279 316.551L84.1962 316.605L84.0079 315.082L72.5239 315.356Z" fill="#313131"/>
<path d="M72.3078 300.363L72.3737 303.427L76.2515 304.134L76.231 305.308L71.2501 304.905L71.5176 293.673L76.5307 293.593L76.5103 294.767L72.5866 295.325L72.437 298.431L84.1993 298.622L84.4117 296.024L85.3179 296.061L85.151 302.897L84.2448 302.859L84.0957 300.462L72.3078 300.363Z" fill="#313131"/>
<path d="M79.7338 286.461L79.6948 287.335C79.9035 287.684 80.2327 287.966 80.847 288.321C81.3662 288.652 82.0756 289.032 82.975 289.461C83.8744 289.89 84.4887 290.245 84.9384 290.46C85.3881 290.674 85.6223 290.931 85.5714 291.115L85.4099 293.53L84.5037 293.492L84.3969 292.776C84.3527 292.569 84.1881 292.428 83.954 292.171C83.5993 291.981 83.175 291.674 82.4912 291.203C81.6868 290.798 81.098 290.351 80.5787 290.02C80.0594 289.69 79.7557 289.316 79.547 288.968C79.2227 289.768 78.7594 290.336 78.0109 290.831C77.288 291.233 76.5209 291.428 75.5196 291.366C74.0177 291.273 73.0233 290.819 72.4667 289.889C71.9102 288.959 71.7406 287.736 71.8629 286.195C71.8697 285.804 71.9716 285.437 72.0293 284.862C72.0871 284.287 72.2144 283.829 72.1957 283.529L72.4081 280.931L73.3143 280.969L73.4076 282.467L85.0171 283.208L85.2854 281.508L86.1916 281.546L85.8365 286.859L84.9303 286.821L84.9134 285.048L79.9071 284.737L79.7338 286.461ZM72.961 284.808C72.8082 285.358 72.7759 285.841 72.7691 286.233C72.7045 287.199 72.8114 287.914 73.2797 288.428C73.7481 288.943 74.3878 289.206 75.4841 289.293C76.4854 289.355 77.2525 289.161 77.8805 288.733C78.5084 288.306 78.7121 287.572 78.8717 286.631C78.9363 285.665 78.9941 285.09 78.9059 284.674L73.2088 284.283L72.961 284.808Z" fill="#313131"/>
<path d="M73.9054 274.439L73.6608 277.521L77.4621 278.503L77.3466 279.653L72.3726 278.858L73.6413 267.688L78.6476 268L78.5321 269.149L74.6153 269.316L74.1551 272.44L85.8274 273.689L86.3249 271.164L87.2057 271.293L86.4176 278.165L85.5368 278.036L85.5778 275.688L73.9054 274.439Z" fill="#313131"/>
<path d="M88.0298 260.991C87.3 261.785 86.3105 262.414 85.2074 262.718C84.1043 263.022 82.767 263.07 81.4111 262.818C80.0551 262.565 78.8451 262.154 77.9271 261.426C77.009 260.697 76.237 259.809 75.8264 258.72C75.4158 257.632 75.3157 256.525 75.5517 255.308C75.7113 254.367 76.0169 253.266 76.538 252.124L76.7858 251.598L80.0679 252.25L79.8319 253.467L77.3729 253.519C77.2269 253.678 77.0555 253.928 76.8331 254.362C76.6362 254.704 76.4834 255.254 76.4257 255.829C76.317 256.587 76.4239 257.303 76.7463 257.976C77.0686 258.649 77.632 259.187 78.5059 259.708C79.2849 260.204 80.3302 260.474 81.5911 260.702C82.757 260.905 83.7837 260.876 84.8359 260.755C85.7931 260.609 86.7061 260.256 87.3596 259.737C88.013 259.218 88.4068 258.533 88.5664 257.592C88.6496 256.925 88.6819 256.442 88.6632 256.143C88.6446 255.843 88.5309 255.519 88.3222 255.17L86.6693 254.153L86.9749 253.053L89.4899 253.9C89.4135 254.175 89.5272 254.499 89.5899 255.006C89.6781 255.422 89.6458 255.905 89.7341 256.321C89.8223 256.737 89.6949 257.196 89.6117 257.862C89.2807 259.054 88.7851 260.105 88.0298 260.991Z" fill="#313131"/>
<path d="M77.7962 244.292L78.677 244.422L78.5037 246.146L87.6593 248.021L85.7349 246.148L80.3813 239.752L79.9061 239.629L79.3782 241.164L78.4974 241.034L79.5364 236.193L80.4172 236.322L80.3204 237.771L91.6871 240.12L92.1896 238.677L93.0449 238.899L91.9804 243.832L91.1251 243.611L91.2729 241.978L81.9273 240.054L83.782 241.811L89.2052 248.323L89.8705 248.495L90.4239 246.869L91.3047 246.998L90.2401 251.932L89.3594 251.802L89.4817 250.261L78.1149 247.913L77.638 249.263L76.7572 249.134L77.7962 244.292Z" fill="#313131"/>
<path d="M82.3766 225.232L87.1792 226.277L86.8482 227.469L83.0841 227.086L81.9196 230.912L93.3746 233.677L94.405 230.7L95.2603 230.921L93.4709 237.731L92.6157 237.51L92.9603 235.535L81.6954 232.82L80.9961 234.604L80.1408 234.383L82.3766 225.232Z" fill="#313131"/>
<path d="M84.3573 222.501L83.6902 223.803L82.8349 223.582L84.3491 218.863L85.2044 219.084L84.9871 220.6L89.7829 222.037L91.679 215.943L86.8832 214.506L86.2162 215.808L85.3609 215.587L86.8496 210.96L87.7049 211.181L87.513 212.605L98.6252 215.871L99.1972 214.545L100.052 214.766L98.5637 219.393L97.7084 219.172L98.0208 217.68L92.8449 216.146L90.9487 222.24L96.1246 223.775L96.7222 222.357L97.5774 222.578L96.0632 227.297L95.2079 227.075L95.4949 225.676L84.3573 222.501Z" fill="#313131"/>
<path d="M88.8917 204.707L89.6165 202.831L103.268 202.822L103.858 201.795L104.688 202.108L103.035 206.594L102.205 206.282L102.517 204.79L99.5832 204.719L97.8026 209.664L100.088 211.336L100.781 209.943L101.611 210.255L100.18 214.308L99.3499 213.995L99.5604 212.87L88.8917 204.707ZM92.1619 204.668L90.47 204.525L91.9328 205.493L96.9286 209.143L98.531 204.84L92.1619 204.668Z" fill="#313131"/>
<path d="M101.787 196.051C103.275 196.927 104.383 197.705 104.991 198.452C105.295 198.825 105.478 199.266 105.591 199.59C105.68 200.006 105.578 200.372 105.476 200.739C105.228 201.265 105.031 201.607 104.86 201.857L103.46 201.397C103.631 201.147 103.758 200.688 104.006 200.163C104.057 199.979 104.134 199.704 104.064 199.588C104.02 199.38 103.881 199.148 103.742 198.915C102.691 197.563 100.069 196 95.8253 194.412L94.4507 193.86L93.4408 195.662L92.6109 195.35L96.6219 185.675L97.4518 185.988L96.9934 187.638L107.756 191.796L108.594 190.244L109.424 190.557L107.282 195.703L106.452 195.39L106.961 193.556L96.1991 189.398L94.7562 192.76L96.3209 193.361C98.4744 194.409 100.299 195.175 101.787 196.051Z" fill="#313131"/>
<path d="M104.797 180.811C105.464 179.509 106.219 178.623 107.253 178.203C108.286 177.782 109.288 177.844 110.472 178.347C111.726 178.966 112.619 179.787 112.909 180.943C113.225 182.007 113.084 183.248 112.417 184.55C112.366 184.733 112.22 184.892 112.169 185.075C112.023 185.234 111.972 185.417 111.8 185.668C111.432 186.261 111.184 186.786 110.936 187.312L109.92 189.506L109.115 189.101L109.618 187.659L99.0336 182.859L98.1765 184.111L97.3721 183.707L99.577 179.068L100.381 179.473L99.8025 181.19L103.685 182.98L104.797 180.811ZM104.8 168.331L105.604 168.735L105.051 170.361L115.54 175.137L116.448 173.701L117.252 174.105L114.902 178.903L114.097 178.498L114.651 176.872L104.161 172.097L103.253 173.533L102.449 173.128L104.8 168.331ZM110.971 185.355C111.117 185.196 111.218 184.829 111.415 184.487C111.86 183.62 111.899 182.745 111.602 181.98C111.305 181.216 110.647 180.653 109.652 180.199C108.753 179.77 107.847 179.732 107.175 179.951C106.477 180.262 105.919 180.806 105.474 181.674L104.705 183.342L110.412 185.899C110.653 185.764 110.825 185.514 110.971 185.355Z" fill="#313131"/>
<path d="M109.859 161.482L108.933 162.619L108.128 162.214L110.637 157.949L111.441 158.354L110.844 159.771L115.29 162.1L118.466 156.533L114.02 154.205L113.093 155.341L112.289 154.936L114.677 150.738L115.481 151.143L115.004 152.494L125.194 157.978L126.121 156.842L126.926 157.246L124.512 161.536L123.708 161.132L124.305 159.714L119.504 157.195L116.329 162.762L121.129 165.28L122.107 163.961L122.911 164.365L120.377 168.722L119.573 168.318L120.145 166.991L109.859 161.482Z" fill="#313131"/>
<path d="M118.283 145.087L119.363 143.4L132.725 146.265L133.481 145.379L134.26 145.875L131.612 149.908L130.833 149.412L131.525 148.019L128.674 147.282L125.804 151.748L127.652 153.896L128.699 152.693L129.478 153.189L127.148 156.812L126.369 156.316L126.865 155.265L118.283 145.087ZM121.375 145.689L119.76 145.272L120.956 146.465L125.076 151.068L127.578 147.195L121.375 145.689Z" fill="#313131"/>
<path d="M127.849 133.015L126.51 134.536L125.731 134.04L128.639 130.173L136.969 132.818L139.269 133.707L137.63 131.908L132.283 125.12L135.19 121.253L135.969 121.749L134.985 123.46L145.321 128.786L146.463 127.607L147.242 128.103L144.017 132.38L143.238 131.883L144.051 130.423L136.724 126.367L133.532 124.657L135.285 126.781L141.422 134.755L140.737 135.757L131.69 133.124L128.129 132.007L130.858 134.284L137.233 139.569L138.427 138.207L139.205 138.703L136.419 142.503L135.64 142.007L136.427 140.638L127.849 133.015Z" fill="#313131"/>
<path d="M139.557 115.798L140.801 114.252L153.756 118.584L154.581 117.815L155.335 118.403L152.263 122.129L151.509 121.541L152.366 120.289L149.687 119.301L146.297 123.437L147.904 125.719L149.021 124.632L149.774 125.22L147.02 128.537L146.266 127.949L146.857 126.923L139.557 115.798ZM142.573 116.676L141.008 116.075L142.058 117.427L145.551 122.458L148.477 118.89L142.573 116.676Z" fill="#313131"/>
<path d="M147.101 108.806L145.94 109.685L145.187 109.097L146.818 107.258C147.11 106.941 147.402 106.623 147.599 106.281C148.037 105.804 148.379 105.303 148.817 104.827C149.985 103.556 151.12 102.769 152.078 102.623C153.035 102.478 154.055 102.84 155.042 103.685C155.796 104.272 156.308 104.995 156.58 105.851C156.851 106.707 156.837 107.49 156.608 108.315C156.379 109.14 155.934 110.008 155.23 110.71C154.964 110.936 154.767 111.279 154.5 111.504C154.234 111.73 154.088 111.889 154.062 111.981L157.215 114.565L159.011 112.867L159.669 113.43L155.677 117.902L155.019 117.338L155.876 116.086L147.101 108.806ZM154.572 110.147C155.181 109.42 155.505 108.62 155.424 107.812C155.342 107.005 154.855 106.191 153.798 105.23C152.975 104.526 152.24 104.238 151.499 104.341C150.757 104.444 150.129 104.871 149.279 105.732C148.987 106.05 148.79 106.392 148.498 106.71C148.327 106.96 148.206 107.027 148.181 107.119L153.239 111.277C153.575 111.167 153.988 110.782 154.572 110.147Z" fill="#313131"/>
<path d="M164.938 106.93C163.834 107.235 162.738 107.148 161.598 106.853C160.483 106.467 159.419 105.897 158.362 104.935C157.399 103.999 156.653 103.02 156.268 101.839C155.857 100.75 155.878 99.5762 156.088 98.4514C156.394 97.3511 156.889 96.2999 157.835 95.4633C158.539 94.761 159.338 94.0832 160.569 93.3202L161.076 92.9601L163.374 95.323L162.524 96.1841L160.421 94.9527C160.205 94.9952 159.869 95.1049 159.508 95.3063C159.146 95.5076 158.734 95.8924 158.322 96.2771C157.763 96.8207 157.464 97.5296 157.381 98.196C157.273 98.9541 157.474 99.6942 157.841 100.575C158.233 101.364 158.91 102.227 159.803 103.048C160.6 103.844 161.569 104.389 162.469 104.818C163.368 105.247 164.249 105.376 165.085 105.298C165.922 105.219 166.645 104.817 167.324 104.206C167.762 103.73 168.079 103.32 168.251 103.07C168.422 102.819 168.524 102.452 168.505 102.153L167.677 100.366L168.597 99.6215L170.255 101.721C170.109 101.879 169.912 102.222 169.664 102.747C169.442 103.181 169.245 103.523 169.048 103.866C168.851 104.208 168.534 104.617 168.096 105.093C167.03 105.997 165.946 106.601 164.938 106.93Z" fill="#313131"/>
<path d="M176.007 78.4431L176.64 79.0981L175.447 80.4603L181.725 87.1936L181.342 84.5394L180.959 76.3821L180.655 76.0088L179.279 76.9305L178.646 76.2755L182.522 72.9536L183.155 73.6086L182.229 74.7449L189.982 83.1369L191.238 82.2823L191.871 82.9373L187.994 86.2592L187.361 85.6042L188.503 84.4254L182.155 77.5758L182.59 80.0466L182.921 88.3873L183.39 88.9015L184.792 87.8881L185.425 88.5431L181.523 91.9567L180.89 91.3017L181.912 90.19L174.158 81.7979L172.928 82.5608L172.295 81.9058L176.007 78.4431Z" fill="#313131"/>
<path d="M185.688 70.7255C186.005 70.3162 186.322 69.9068 186.614 69.5892C186.906 69.2716 187.173 69.0456 187.439 68.8197C188.625 67.8489 189.78 67.361 190.737 67.2154C191.694 67.0697 192.498 67.4742 193.201 68.2455C193.808 68.9922 194.105 69.7568 193.971 70.6066C193.837 71.4564 193.538 72.1653 192.929 72.8923C193.823 72.2391 194.736 71.8855 195.617 72.0149C196.523 72.0526 197.233 72.4325 197.84 73.1792C198.682 74.183 198.997 75.2473 198.812 76.2804C198.627 77.3136 197.821 78.3827 196.394 79.4878C195.861 79.9397 195.258 80.2753 194.776 80.5438C194.294 80.8123 193.838 80.9891 193.502 81.0987C193.166 81.2084 192.95 81.251 192.925 81.3427L191.109 78.7113L191.883 78.1252L193.814 79.6071C194.461 79.4795 195.279 79.1013 196.078 78.4235C196.731 77.9045 197.1 77.3118 197.062 76.7126C197.051 76.0216 196.823 75.3732 196.121 74.6019C195.678 73.9961 195.064 73.6407 194.373 73.5604C193.682 73.4801 192.89 73.7666 191.995 74.4198L190.955 75.2319L190.252 74.4606L191.052 73.7828C191.439 73.4898 191.756 73.0805 191.978 72.6466C192.201 72.2127 192.328 71.7543 192.265 71.2467C192.203 70.7391 191.924 70.2741 191.551 69.7845C191.013 69.154 190.494 68.8233 189.873 68.8592C189.252 68.8952 188.675 69.1391 188.047 69.5664C187.634 69.9512 187.342 70.2688 187.05 70.5864C186.758 70.904 186.777 71.2037 186.821 71.4116L187.631 72.8984L186.711 73.6433L184.742 71.5621C184.983 71.4278 185.275 71.1102 185.688 70.7255Z" fill="#313131"/>
<path d="M198.874 61.7522L197.454 62.466L196.942 61.7439L198.971 60.3031C199.333 60.1018 199.745 59.717 200.253 59.3569C200.665 58.9721 201.052 58.6791 201.293 58.5448C202.695 57.5314 203.849 57.0436 204.755 57.0813C205.661 57.119 206.466 57.5235 207.073 58.2702C207.586 58.9923 207.788 59.7324 207.774 60.5151C207.76 61.2978 207.367 61.9821 206.783 62.6174C207.703 61.8725 208.685 61.6351 209.591 61.6729C210.498 61.7106 211.277 62.2068 211.789 62.9289C212.536 63.9081 212.756 64.9478 212.546 66.0727C212.335 67.1975 211.313 68.3092 209.645 69.5485C209.258 69.8416 208.897 70.043 208.535 70.2443C207.692 70.7142 207.279 71.0989 207.064 71.1415L205.034 72.5822L204.521 71.86L205.613 70.8646L198.874 61.7522ZM204.278 63.9352L205.147 63.3737C205.895 62.8793 206.263 62.2866 206.321 61.7119C206.379 61.1372 206.177 60.3971 205.665 59.675C205.152 58.9529 204.633 58.6221 204.037 58.5663C203.442 58.5106 202.649 58.7971 201.875 59.3832C201.488 59.6763 201.127 59.8776 200.835 60.1952L200.568 60.4212L203.624 64.4542C203.529 64.4297 203.891 64.2283 204.278 63.9352ZM209.063 68.7102C210.078 67.9898 210.687 67.2629 210.796 66.5048C210.905 65.7467 210.703 65.0066 210.19 64.2845C209.583 63.5378 208.994 63.0908 208.398 63.035C207.708 62.9547 207.01 63.2658 206.116 63.919C205.101 64.6394 204.473 65.0667 204.206 65.2926L207.471 69.6744C207.687 69.6319 208.194 69.2717 209.063 68.7102Z" fill="#313131"/>
<path d="M211.436 51.7324L213.173 50.6093L224.109 58.5465L225.168 58.0341L225.68 58.7562L221.576 61.4296L221.064 60.7075L222.25 59.7367L219.99 57.9731L215.404 60.915L216.193 63.5758L217.614 62.862L218.126 63.5841L214.409 65.9645L213.897 65.2424L214.722 64.4729L211.436 51.7324ZM214.101 53.5026L212.759 52.4677L213.328 54.0887L215.063 59.9424L219.021 57.4278L214.101 53.5026Z" fill="#313131"/>
<path d="M228.009 56.6066C226.887 56.6115 225.867 56.2495 224.803 55.6796C223.859 55.0426 222.992 54.1306 222.202 52.9434C221.506 51.7808 221.121 50.6003 221.021 49.4934C220.921 48.3865 221.252 47.1946 221.817 46.2597C222.408 45.2331 223.232 44.4636 224.342 43.7679C225.186 43.298 226.219 42.8773 227.564 42.4386L228.141 42.1947L229.69 45.052L228.605 45.6561L226.941 43.9482C226.751 43.899 226.414 44.0087 225.983 44.0938C225.552 44.1789 225.07 44.4474 224.588 44.7159C223.865 45.1186 223.402 45.6868 223.129 46.304C222.83 47.013 222.721 47.7711 222.872 48.6945C223.023 49.618 223.459 50.6152 224.111 51.5698C224.763 52.5245 225.44 53.3874 226.193 53.9753C226.946 54.5631 227.751 54.9676 228.606 55.1887C229.461 55.4099 230.229 55.2151 231.072 54.7452C231.674 54.4096 232.061 54.1166 232.233 53.8661C232.499 53.6401 232.696 53.2979 232.773 53.0229L232.496 51.0842L233.555 50.5718L234.516 52.9821C234.275 53.1163 234.008 53.3423 233.691 53.7516C233.399 54.0692 233.107 54.3868 232.72 54.6799C232.428 54.9975 231.946 55.266 231.464 55.5345C230.329 56.3219 229.13 56.6018 228.009 56.6066Z" fill="#313131"/>
<path d="M237.758 39.4727C237.848 38.415 238.128 37.4064 238.668 36.5632C239.208 35.72 239.887 35.1093 240.85 34.5724C241.935 33.9683 243.013 33.7555 244.014 33.8178C245.015 33.8801 246.035 34.242 246.858 34.9462C247.681 35.6503 248.453 36.5378 249.174 37.6087C249.94 38.8875 250.299 40.1598 250.374 41.3583C250.448 42.5569 250.263 43.59 249.698 44.5249C249.133 45.4598 248.429 46.1622 247.465 46.6992C246.38 47.3032 245.302 47.516 244.206 47.4291C243.205 47.3668 242.185 47.0049 241.337 46.3924C240.488 45.78 239.621 44.8679 239.02 43.7299L236.395 45.1149L238.987 49.7161L240.478 49.1186L240.87 49.9078L236.342 52.275L235.95 51.4858L237.205 50.6312L231.698 40.7559L230.233 41.2617L229.746 40.4479L234.154 38.1478L234.641 38.9616L233.385 39.8162L235.769 44.0686L238.489 42.7082C237.958 41.6864 237.738 40.6467 237.758 39.4727ZM239.521 38.2579C239.38 39.499 239.784 40.9792 240.828 42.7231C241.732 44.2345 242.643 45.3545 243.802 45.9489C244.961 46.5434 245.963 46.6057 247.142 46.0262C248.201 45.5138 248.766 44.5789 248.787 43.4049C248.807 42.2309 248.404 40.7507 247.455 39.0314C246.551 37.5201 245.639 36.4 244.575 35.8302C243.511 35.2603 242.415 35.1734 241.356 35.6858C240.297 36.1982 239.662 37.0168 239.521 38.2579Z" fill="#313131"/>
<path d="M258.481 34.9046C259.191 35.2845 260.065 35.8053 261.224 36.3997C262.003 36.8959 262.522 37.2267 262.972 37.4412C263.421 37.6558 263.611 37.7049 263.827 37.6624L264.568 37.5593L264.96 38.3485L262.868 39.2816C262.627 39.4159 262.247 39.3176 261.702 39.0785C261.157 38.8394 260.473 38.3678 259.53 37.7308C258.517 36.9775 257.643 36.4567 257.029 36.1014C256.414 35.746 255.914 35.7149 255.578 35.8246L254.519 36.337L256.801 40.9561L258.36 40.4749L258.752 41.2641L254.085 43.3988L253.693 42.6096L255.019 41.8712L250.088 31.752L248.649 32.1661L248.257 31.3769L252.803 29.3093L253.195 30.0985L251.844 30.9286L254.101 35.6394L255.522 34.9256L256.658 28.635L255.098 29.1163L254.706 28.327L258.891 26.4608L259.283 27.25L258.053 28.0129L256.676 34.4378C257.081 34.4444 257.746 34.6164 258.481 34.9046Z" fill="#313131"/>
<path d="M267.688 36.5968C266.617 36.4183 265.743 35.8975 264.945 35.1017C264.148 34.3059 263.401 33.3267 262.851 32.0053C262.302 30.6839 262.012 29.5279 262.127 28.3785C262.243 27.2291 262.523 26.2205 263.183 25.3102C263.843 24.3998 264.738 23.7466 265.771 23.3259C267.597 22.6187 269.125 22.6205 270.569 23.2886C272.013 23.9568 273.158 25.3339 273.961 27.212C274.511 28.5334 274.775 29.7811 274.66 30.9305C274.544 32.0799 274.239 33.1802 273.578 34.0905C272.918 35.0008 272.024 35.6541 270.99 36.0748C269.811 36.6543 268.759 36.7754 267.688 36.5968ZM264.087 26.8215C263.851 28.0381 264.16 29.4937 264.868 31.3472C265.626 33.0174 266.512 34.2291 267.55 34.8907C268.563 35.644 269.66 35.7308 270.814 35.243C271.942 34.8468 272.603 33.9365 272.839 32.72C273.075 31.5035 272.791 29.9561 271.963 28.1697C271.205 26.4996 270.319 25.2878 269.281 24.6263C268.242 23.9647 267.171 23.7861 266.017 24.2739C264.958 24.7864 264.323 25.605 264.087 26.8215Z" fill="#313131"/>
<path d="M275.046 21.1046L273.537 21.4025L273.266 20.5461L275.643 19.6867C276.075 19.6016 276.557 19.3331 277.134 19.0892C277.711 18.8453 278.072 18.6439 278.383 18.6259C279.968 18.053 281.235 17.8894 282.091 18.1105C282.946 18.3316 283.605 18.8949 283.946 19.8675C284.242 20.6322 284.324 21.4394 284.025 22.1483C283.726 22.8573 283.238 23.5171 282.515 23.9198C283.643 23.5237 284.575 23.4697 285.43 23.6909C286.285 23.912 286.918 24.567 287.259 25.5396C287.67 26.6284 287.65 27.8024 287.084 28.7373C286.494 29.7639 285.238 30.6185 283.317 31.3011C282.86 31.4779 282.524 31.5876 282.093 31.6727C281.205 31.9346 280.628 32.1785 280.413 32.221L278.035 33.0805L277.738 32.3158L279.159 31.602L275.046 21.1046ZM279.662 24.6564L280.67 24.3274C281.462 24.0409 281.995 23.5891 282.269 22.9718C282.542 22.3545 282.53 21.6636 282.138 20.8743C281.841 20.1097 281.373 19.5955 280.828 19.3564C280.283 19.1173 279.447 19.1958 278.439 19.5249C277.982 19.7016 277.621 19.903 277.164 20.0798L276.803 20.2812L278.654 24.9854C278.774 24.9183 279.11 24.8086 279.662 24.6564ZM282.83 30.4873C283.958 30.0911 284.732 29.505 285.126 28.8207C285.52 28.1363 285.508 27.4453 285.167 26.4727C284.8 25.5918 284.332 25.0776 283.787 24.8385C283.147 24.5748 282.311 24.6534 281.277 25.0741C280.054 25.4456 279.356 25.7567 279.02 25.8664L280.985 30.8948C281.244 31.0602 281.917 30.8409 282.83 30.4873Z" fill="#313131"/>
<path d="M302.57 11.1209L302.841 11.9773L301.421 12.6911L304.767 23.3833L306.491 23.0428L306.762 23.8992L301.773 25.3609L301.501 24.5046L302.896 23.8825L299.481 13.074L293.724 14.7306L297.14 25.539L298.864 25.1986L299.135 26.0549L294.146 27.5167L293.874 26.6603L295.269 26.0383L291.924 15.3461L290.32 15.6194L290.049 14.763L302.57 11.1209Z" fill="#313131"/>
<path d="M310.37 22.2765C309.35 21.9146 308.502 21.3021 307.825 20.4392C307.148 19.5763 306.642 18.4628 306.308 17.0989C305.974 15.7349 305.899 14.5364 306.135 13.3199C306.346 12.195 306.911 11.2601 307.641 10.4661C308.371 9.67202 309.335 9.13504 310.533 8.85515C312.403 8.35592 313.974 8.56563 315.342 9.50886C316.615 10.4275 317.545 11.8472 318.081 13.9512C318.415 15.3152 318.464 16.6054 318.254 17.7302C318.018 18.9468 317.452 19.8817 316.628 20.6512C315.803 21.4206 314.839 21.9576 313.736 22.2621C312.417 22.6091 311.39 22.6385 310.37 22.2765ZM308.235 11.9954C307.809 13.1628 307.902 14.661 308.394 16.5571C308.816 18.3369 309.581 19.6158 310.474 20.4362C311.367 21.2565 312.507 21.5514 313.61 21.2469C314.808 20.967 315.513 20.2646 315.964 19.0056C316.39 17.8382 316.323 16.2483 315.831 14.3522C315.408 12.5723 314.643 11.2935 313.75 10.4731C312.858 9.65274 311.812 9.38249 310.614 9.66238C309.46 10.1502 308.635 10.9197 308.235 11.9954Z" fill="#313131"/>
<path d="M324.297 14.6739C324.434 16.38 324.294 17.6211 323.918 18.6051C323.791 19.0636 323.474 19.4729 323.207 19.6988C322.941 19.9248 322.579 20.1261 322.148 20.2112C321.597 20.3635 321.096 20.3323 320.88 20.3749L320.451 18.9863C320.762 18.9684 321.193 18.8833 321.839 18.7556C322.055 18.713 322.271 18.6705 322.416 18.5117C322.562 18.3529 322.708 18.1941 322.785 17.919C323.433 16.3177 323.221 13.413 322.295 9.04613L321.961 7.6822L319.762 7.89978L319.585 7.06799L330.146 4.98287L330.323 5.81466L328.642 6.36303L330.98 17.3843L332.869 17.1847L333.045 18.0164L327.441 19.1228L327.265 18.291L329.161 17.7001L326.823 6.6789L323.159 7.4023L323.537 8.97419C323.858 11.1208 324.134 13.0594 324.297 14.6739Z" fill="#313131"/>
<path d="M333.91 5.36651L332.383 5.36474L332.232 4.44127L341.613 2.93569L342.377 5.68814L341.325 5.80922L340.471 4.11448L335.926 4.70846L336.769 9.74176L339.882 9.17058L339.884 7.69696L340.936 7.57588L341.628 11.6857L340.576 11.8068L340.077 10.302L336.99 10.7815L337.851 16.1144L343.024 15.0931L343.591 12.6846L344.757 12.8878L344.798 16.043L334.579 17.6271L334.403 16.7953L335.937 16.4057L333.91 5.36651Z" fill="#313131"/>
<path d="M349.32 3.06068L346.138 3.5156L346 7.31262L344.732 7.47625L344.434 2.68205L356.008 1.35021L356.832 6.08386L355.685 6.18038L354.581 2.4553L351.355 2.70228L352.805 13.9854L355.479 13.8907L355.535 14.7896L348.48 15.6191L348.424 14.7202L350.795 14.2521L349.32 3.06068Z" fill="#313131"/>
<path d="M364.6 8.18998L363.668 8.24394C363.402 8.46987 363.084 8.87918 362.836 9.40475C362.563 10.022 362.264 10.731 362.01 11.6479C361.66 12.5402 361.482 13.182 361.259 13.6159C361.037 14.0498 360.866 14.3003 360.65 14.3428L358.14 14.5784L358.084 13.6795L358.756 13.4601C358.972 13.4176 359.118 13.2588 359.315 12.9166C359.511 12.5744 359.759 12.0488 360.058 11.3399C360.382 10.5392 360.776 9.85485 361.024 9.32928C361.367 8.82828 361.684 8.41898 362.046 8.21761C361.165 8.08819 360.455 7.70825 359.918 7.07783C359.38 6.4474 359.083 5.68273 359.027 4.78382C358.908 3.37732 359.309 2.30162 360.083 1.71551C360.977 1.06228 362.201 0.690709 363.849 0.625352C364.159 0.607367 364.685 0.546818 365.281 0.602537C365.902 0.566567 366.308 0.573152 366.618 0.555167L369.318 0.36874L369.374 1.26765L367.865 1.56551L368.771 12.6095L370.488 12.6604L370.544 13.5594L365.023 13.9994L364.968 13.1004L366.787 12.7846L366.394 7.96582L364.6 8.18998ZM365.362 1.40976C364.767 1.35404 364.336 1.43915 363.835 1.408C362.903 1.46195 362.111 1.74843 361.698 2.13317C361.165 2.58504 360.962 3.31856 361.087 4.33373C361.118 5.32433 361.535 6.02187 362.003 6.53604C362.592 6.98309 363.352 7.17962 364.284 7.12567C365.311 7.09628 365.957 6.96863 366.268 6.95065L365.863 1.44091L365.362 1.40976Z" fill="#313131"/>
<path d="M376.086 0.93906L372.86 1.18605L372.317 4.97647L371.074 5.04841L371.207 0.1691L382.837 -0.263838L383.231 4.55493L382.109 4.55976L381.315 0.816686L378.045 0.855725L378.442 12.2599L381.066 12.3486L381.122 13.2475L374.03 13.4778L373.974 12.5788L376.389 12.3187L376.086 0.93906Z" fill="#313131"/>
<path d="M391.922 12.5019C390.979 11.8648 390.276 11.0936 389.745 10.0718C389.214 9.05009 389.044 7.82697 389.021 6.44505C389.092 5.08769 389.423 3.89572 390.014 2.86915C390.605 1.84257 391.429 1.07308 392.488 0.56068C393.547 0.048276 394.651 -0.256175 395.962 -0.211857C396.869 -0.174123 398.06 -0.0626856 399.39 0.281269L399.961 0.428672L399.665 3.69354L398.448 3.67378L398.058 1.41093C397.893 1.27011 397.634 1.10471 397.159 0.981867C396.684 0.859026 396.183 0.82787 395.587 0.772151C394.776 0.758985 394.104 0.97834 393.476 1.40564C392.848 1.83293 392.359 2.49275 391.94 3.26882C391.59 4.16115 391.336 5.07805 391.29 6.34372C391.269 7.5177 391.395 8.53285 391.666 9.38921C391.938 10.2456 392.425 11.0594 393.083 11.6227C393.741 12.186 394.476 12.4742 395.382 12.512C396.099 12.5006 396.504 12.5071 396.935 12.422C397.271 12.3124 397.607 12.2027 397.874 11.9768L398.668 10.2167L399.834 10.4198L399.337 12.9445C399.026 12.9625 398.69 13.0722 398.164 13.1328C397.733 13.2179 397.276 13.3947 396.871 13.3881C396.44 13.4732 395.939 13.442 395.318 13.478C394.006 13.4337 392.866 13.1389 391.922 12.5019Z" fill="#313131"/>
<path d="M407.528 0.321316L407.489 1.19566L405.625 1.30356L404.942 10.3646L406.65 8.25094L412.481 2.28981L412.514 1.8068L410.873 1.48083L410.912 0.606481L416.013 0.942571L415.974 1.81692L414.516 1.93141L413.748 13.1325L415.294 13.4339L415.255 14.3082L410.059 13.9476L410.098 13.0732L411.746 13.0079L412.359 3.83056L410.798 5.78544L404.845 11.8137L404.762 12.4801L406.524 12.7389L406.485 13.6133L401.193 13.228L401.232 12.3537L402.785 12.2638L403.553 1.0627L402.102 0.785866L402.141 -0.0884745L407.528 0.321316Z" fill="#313131"/>
<path d="M427.806 2.12389L427.413 6.8378L426.127 6.7018L426.024 3.03902L421.905 2.46562L420.586 13.8189L423.798 14.3546L423.664 15.2044L416.351 14.3949L416.485 13.5451L418.513 13.578L419.757 2.49982L417.856 2.00845L417.99 1.15868L427.806 2.12389Z" fill="#313131"/>
<path d="M430.954 3.62565L429.554 3.16544L429.688 2.31567L434.687 3.0185L434.553 3.86829L432.931 3.84194L432.202 8.66554L438.653 9.6452L439.381 4.82162L437.886 4.33684L438.02 3.48706L443.02 4.1899L442.886 5.03968L441.358 5.03791L439.614 16.085L441.04 16.4535L440.906 17.3033L435.906 16.6005L436.041 15.7507L437.568 15.7524L438.398 10.5621L431.948 9.58243L431.117 14.7728L432.733 15.1904L432.599 16.0402L427.504 15.3128L427.638 14.463L429.166 14.4648L430.954 3.62565Z" fill="#313131"/>
<path d="M449.774 5.54308L451.795 5.96733L453.668 19.0303L454.783 19.4168L454.648 20.2666L449.82 19.3132L449.954 18.4635L451.551 18.5815L451.219 15.7439L445.916 14.6677L444.512 17.1548L446.007 17.6395L445.873 18.4893L441.52 17.6588L441.654 16.809L442.871 16.8288L449.774 5.54308ZM450.366 8.54604L450.203 6.9316L449.485 8.41661L446.481 13.7328L451.119 14.6371L450.366 8.54604Z" fill="#313131"/>
<path d="M460.465 16.5619C459.842 18.0714 459.105 19.2568 458.401 19.9592C457.988 20.3439 457.627 20.5453 457.291 20.655C456.955 20.7646 456.549 20.7581 456.074 20.6352C455.504 20.4878 455.029 20.365 454.769 20.1996L454.961 18.7751C455.246 18.8488 455.721 18.9716 456.291 19.1191C456.481 19.1682 456.697 19.1256 456.912 19.0831C457.128 19.0405 457.274 18.8817 457.54 18.6558C458.778 17.5016 460.042 14.782 461.144 10.448L461.526 9.07268L459.53 8.55676L459.785 7.63986L470.29 10.159L470.035 11.0759L468.248 10.9087L465.433 21.7772L467.188 22.4274L466.959 23.2526L461.326 21.8948L461.555 21.0696L463.507 21.3776L466.322 10.509L462.59 9.64257L462.157 11.2013C461.717 13.1513 461.088 15.0523 460.465 16.5619Z" fill="#313131"/>
<path d="M476.536 17.375C477.936 17.8352 478.974 18.4968 479.556 19.3352C480.138 20.1735 480.239 21.2804 479.812 22.4478C479.335 23.7986 478.58 24.6843 477.547 25.105C476.393 25.5929 475.176 25.5731 473.75 25.2046C473.56 25.1555 473.37 25.1063 473.18 25.0572C472.99 25.0081 472.8 24.9589 472.54 24.7935C471.901 24.5299 471.235 24.3579 470.691 24.1188L468.245 23.3883L468.474 22.5631L470.02 22.8645L473.405 12.1434L472.056 11.4998L472.285 10.6746L477.366 12.1847L477.137 13.0099L475.28 12.7265L473.97 16.7117L476.536 17.375ZM472.7 23.8521C472.89 23.9012 473.245 24.0912 473.625 24.1894C474.67 24.4597 475.481 24.4728 476.204 24.0701C476.927 23.6674 477.416 23.0076 477.696 21.999C477.976 20.9904 477.965 20.2994 477.547 19.6019C477.199 19.0206 476.515 18.549 475.495 18.187L473.69 17.7203L471.87 23.5393C472.25 23.6375 472.51 23.8029 472.7 23.8521ZM489.334 15.6716L489.104 16.4968L487.343 16.2379L483.958 26.9591L485.592 27.6763L485.363 28.5016L480.092 26.9424L480.321 26.1172L482.057 26.4677L485.442 15.7466L483.808 15.0293L484.037 14.2041L489.334 15.6716Z" fill="#313131"/>
<path d="M497.023 19.5268L495.699 18.7916L496.023 17.9909L500.743 19.7024L500.418 20.503L498.872 20.2016L497.099 24.7549L503.288 27.0428L505.061 22.4895L503.738 21.7542L504.062 20.9536L508.781 22.665L508.457 23.4656L507.006 23.1888L502.861 33.7134L504.21 34.357L503.886 35.1576L499.167 33.4462L499.491 32.6455L501.011 33.0386L502.982 28.1431L496.793 25.8552L494.822 30.7507L496.241 31.5106L495.917 32.3112L491.128 30.4835L491.452 29.6829L492.973 30.076L497.023 19.5268Z" fill="#313131"/>
<path d="M515.014 25.1607L516.934 25.9517L515.916 39.152L516.86 39.789L516.535 40.5896L511.987 38.6277L512.312 37.827L513.807 38.3118L514.19 35.4629L509.167 33.3781L507.27 35.4426L508.689 36.2025L508.364 37.0031L504.266 35.2557L504.59 34.4551L505.731 34.7499L515.014 25.1607ZM514.96 28.2913L515.203 26.6834L514.13 27.9785L510.018 32.5169L514.401 34.338L514.96 28.2913Z" fill="#313131"/>
<path d="M528.726 32.6366L527.004 31.5034L527.423 30.7273L531.799 32.9397L530.293 41.2966L529.752 43.6135L531.357 41.8665L537.525 35.7957L541.902 38.0082L541.482 38.7842L539.538 38.0849L535.488 48.6341L536.855 49.5773L536.436 50.3534L531.705 47.951L532.124 47.1749L533.689 47.7759L536.804 40.228L538.126 36.9337L536.159 38.882L528.925 45.8566L527.861 45.2867L529.355 36.2388L530.012 32.7726L528.076 35.7114L523.517 42.5912L525.075 43.5836L524.656 44.3597L520.374 42.1718L520.793 41.3957L522.263 41.9722L528.726 32.6366Z" fill="#313131"/>
<path d="M548.096 41.3783L549.844 42.4198L547.254 55.4103L548.198 56.0473L547.779 56.8234L543.548 54.4522L543.967 53.6761L545.437 54.2526L546.08 51.569L541.426 48.8916L539.268 50.7907L540.541 51.7094L540.122 52.4854L536.341 50.3287L536.76 49.5527L537.875 49.9392L548.096 41.3783ZM547.661 44.4106L548.094 42.8519L546.857 44.0061L542.155 48.0975L546.291 50.4442L547.661 44.4106Z" fill="#313131"/>
<path d="M556.365 47.5451L555.308 46.5839L555.822 45.8324L557.899 47.1555C558.254 47.3455 558.678 47.6517 559.033 47.8417C559.647 48.197 560.192 48.4361 560.711 48.7669C562.174 49.7347 563.136 50.6714 563.382 51.6194C563.628 52.5675 563.443 53.6006 562.757 54.6026C562.217 55.4458 561.564 55.9648 560.746 56.343C559.928 56.7211 559.091 56.7996 558.211 56.6702C557.33 56.5408 556.405 56.2034 555.531 55.6827C555.176 55.4927 554.917 55.3273 554.587 55.0457C554.233 54.8557 554.068 54.7149 553.999 54.5986L551.745 57.9468L553.771 59.4534L553.256 60.2048L548.133 57.0132L548.648 56.2617L550.092 56.9299L556.365 47.5451ZM556.045 54.9312C556.919 55.4519 557.679 55.6485 558.542 55.4782C559.404 55.308 560.178 54.7219 560.914 53.5365C561.454 52.6933 561.683 51.8681 561.456 51.2197C561.228 50.5713 560.691 49.9409 559.747 49.3039C559.392 49.1139 559.038 48.924 558.588 48.7094C558.328 48.544 558.138 48.4949 558.138 48.4949L554.513 53.8471C554.842 54.1288 555.266 54.435 556.045 54.9312Z" fill="#313131"/>
<path d="M560.774 64.3103C560.338 63.3131 560.238 62.2063 560.423 61.1731C560.608 60.14 561.155 58.9054 561.986 57.7446C562.793 56.6755 563.738 55.8389 564.797 55.3265C565.856 54.8141 567.029 54.6259 568.22 54.7373C569.411 54.8488 570.526 55.2353 571.539 55.9885C572.318 56.4847 573.211 57.3051 574.078 58.2172L574.572 58.6397L572.452 61.1381L571.413 60.4765L572.405 58.3742C572.361 58.1663 572.126 57.9092 571.918 57.5604C571.709 57.2117 571.19 56.8809 570.671 56.5501C569.987 56.0785 569.321 55.9065 568.51 55.8933C567.699 55.8802 566.906 56.1666 566.158 56.661C565.41 57.1555 564.585 57.9249 563.924 58.8353C563.264 59.7456 562.794 60.705 562.444 61.5974C562.19 62.5143 562.056 63.364 562.327 64.2204C562.598 65.0767 563.041 65.6826 563.82 66.1788C564.34 66.5096 564.764 66.8158 565.144 66.9141C565.524 67.0123 565.809 67.086 566.12 67.068L567.832 66.0367L568.725 66.857L566.783 68.7137C566.523 68.5483 566.143 68.45 565.694 68.2355C565.218 68.1126 564.864 67.9226 564.389 67.7998C564.034 67.6098 563.584 67.3953 563.065 67.0645C562.077 66.2196 561.21 65.3075 560.774 64.3103Z" fill="#313131"/>
<path d="M588.034 68.1146L587.425 68.8416L585.867 67.8492L579.945 74.868L582.608 74.0823L590.893 72.4899L591.21 72.0806L590.109 70.9114L590.718 70.1845L594.72 73.3809L594.11 74.1079L592.787 73.3726L585.38 82.0712L586.507 83.1487L585.923 83.7839L581.922 80.5875L582.505 79.9522L583.899 80.8038L589.941 73.7178L587.494 74.461L578.993 76.096L578.555 76.5724L579.751 77.7662L579.167 78.4014L575.071 75.1804L575.655 74.5451L576.953 75.3721L584.36 66.6735L583.328 65.6206L583.937 64.8936L588.034 68.1146Z" fill="#313131"/>
<path d="M597.511 76.166C598.056 76.4051 598.385 76.6868 598.74 76.8767C599.095 77.0667 599.424 77.3484 599.683 77.5138C600.836 78.4995 601.582 79.4787 601.828 80.4268C602.074 81.3748 601.845 82.2 601.141 82.9024C600.436 83.6048 599.713 84.0075 598.807 83.9698C597.97 84.0483 597.115 83.8272 596.336 83.331C597.134 84.1268 597.621 84.9406 597.702 85.7478C597.784 86.5551 597.459 87.3557 596.876 87.9909C596 88.9438 594.941 89.4562 593.844 89.3694C592.723 89.3742 591.564 88.7797 590.152 87.6285C589.563 87.1815 589.19 86.6919 588.816 86.2023C588.443 85.7127 588.234 85.3639 588 85.1068C587.861 84.8743 587.722 84.6418 587.652 84.5255L590.076 82.4005L590.734 82.9638L589.553 85.0169C589.78 85.6653 590.318 86.2957 591.046 86.9753C591.705 87.5386 592.249 87.7777 592.991 87.6746C593.638 87.547 594.335 87.2359 594.944 86.509C595.503 85.9654 595.681 85.3236 595.764 84.6572C595.847 83.9908 595.335 83.2687 594.512 82.5646L593.524 81.7196L594.229 81.0172L595.052 81.7214C595.476 82.0276 595.9 82.3338 596.375 82.4566C596.851 82.5795 597.351 82.6106 597.903 82.4584C598.454 82.3062 598.841 82.0131 599.279 81.5367C599.863 80.9014 600.111 80.3759 599.979 79.752C599.941 79.1528 599.568 78.6632 598.909 78.0999C598.511 77.7019 598.156 77.512 597.706 77.2975C597.352 77.1075 597.041 77.1255 596.826 77.168L595.424 78.1814L594.506 77.4527L596.334 75.2719C596.637 75.6453 596.992 75.8353 597.511 76.166Z" fill="#313131"/>
<path d="M608.651 87.3991L607.766 86.1874L608.445 85.5767L610.204 87.3092C610.534 87.5908 610.932 87.9887 611.426 88.4112C611.92 88.8337 612.249 89.1153 612.414 89.2562C613.61 90.4499 614.357 91.4291 614.413 92.328C614.589 93.1598 614.265 93.9604 613.56 94.6628C612.882 95.2735 612.184 95.5845 611.442 95.6876C610.701 95.7907 609.845 95.5696 609.067 95.0734C609.959 95.8938 610.446 96.7076 610.502 97.6065C610.558 98.5054 610.259 99.2144 609.555 99.9167C608.705 100.778 607.576 101.174 606.48 101.087C605.288 100.976 603.965 100.24 602.509 98.8814C602.18 98.5997 601.876 98.2264 601.642 97.9693C601.009 97.3143 600.61 96.9164 600.445 96.7755L598.686 95.0431L599.364 94.4324L600.637 95.3511L608.651 87.3991ZM603.118 98.1544C604.011 98.9748 604.79 99.471 605.601 99.4842C606.412 99.4973 607.109 99.1863 607.788 98.5756C608.467 97.9649 608.766 97.256 608.729 96.6567C608.691 96.0574 608.274 95.3599 607.476 94.5641C606.584 93.7437 606.02 93.2049 605.786 92.9478L601.878 96.7527C601.922 96.9607 602.416 97.3832 603.118 98.1544ZM607.339 92.8579L608.067 93.5375C608.726 94.1008 609.34 94.4561 609.961 94.4202C610.582 94.3842 611.28 94.0732 611.863 93.4379C612.447 92.8027 612.79 92.3017 612.753 91.7024C612.716 91.1031 612.298 90.4056 611.57 89.726C611.241 89.4444 610.912 89.1627 610.488 88.8565L610.158 88.5748L606.516 92.1538C606.706 92.2029 606.94 92.46 607.339 92.8579Z" fill="#313131"/>
<path d="M620.953 97.7532L622.383 99.204L615.999 110.821L616.651 111.775L615.972 112.386L612.668 108.878L613.347 108.268L614.499 109.253L615.998 106.791L612.295 102.886L609.626 104.063L610.607 105.299L609.928 105.91L606.928 102.775L607.606 102.165L608.525 102.893L620.953 97.7532ZM619.472 100.515L620.381 99.0794L618.84 99.8603L613.139 102.416L616.373 105.807L619.472 100.515Z" fill="#313131"/>
<path d="M618.397 114.29C618.202 113.159 618.387 112.126 618.883 111.075C619.378 110.024 620.159 109.046 621.32 108.167C622.386 107.263 623.54 106.775 624.738 106.496C625.936 106.216 627.128 106.327 628.243 106.714C629.357 107.1 630.301 107.737 631.143 108.741C631.75 109.488 632.402 110.442 633.002 111.58L633.255 112.137L630.572 114.097L629.8 113.209L631.336 111.346C631.292 111.138 631.273 110.838 631.064 110.49C630.856 110.141 630.577 109.676 630.179 109.278C629.641 108.647 629.026 108.292 628.266 108.096C627.506 107.899 626.669 107.978 625.782 108.239C624.894 108.501 623.93 109.038 623.01 109.783C622.09 110.528 621.36 111.322 620.846 112.074C620.306 112.917 620.077 113.742 620.064 114.525C620.05 115.307 620.347 116.072 620.954 116.819C621.423 117.333 621.752 117.615 622.107 117.805C622.461 117.994 622.721 118.16 623.032 118.142L624.927 117.551L625.579 118.506L623.264 119.873C623.099 119.732 622.77 119.45 622.346 119.144C621.896 118.929 621.567 118.648 621.238 118.366C620.908 118.084 620.484 117.778 620.111 117.289C619.123 116.444 618.592 115.422 618.397 114.29Z" fill="#313131"/>
<path d="M637.421 120.977C638.568 120.88 639.544 121.034 640.469 121.372C641.393 121.709 642.216 122.413 642.824 123.16C643.571 124.139 643.937 125.02 644.062 126.035C644.093 127.026 643.933 127.967 643.368 128.902C642.803 129.837 642.048 130.723 640.912 131.51C639.751 132.389 638.477 132.944 637.279 133.224C636.08 133.504 634.984 133.417 633.869 133.031C632.754 132.644 632.001 132.056 631.324 131.194C630.577 130.214 630.141 129.217 630.016 128.202C629.89 127.187 630.145 126.27 630.615 125.31C631.18 124.376 631.935 123.49 632.976 122.678L631.179 120.346L626.827 123.545L627.662 124.94L626.914 125.435L623.832 121.493L624.581 120.999L625.707 122.076L634.918 115.318L634.153 114.039L634.927 113.453L637.939 117.278L637.165 117.864L636.038 116.787L632.073 119.693L633.87 122.025C635.24 121.494 636.343 121.19 637.421 120.977ZM639.041 122.477C637.799 122.549 636.309 123.146 634.64 124.386C633.213 125.491 632.217 126.511 631.791 127.678C631.365 128.846 631.49 129.861 632.237 130.84C633.009 131.727 633.908 132.157 635.176 131.993C636.418 131.921 637.839 131.207 639.482 130.06C640.909 128.954 641.905 127.934 642.331 126.767C642.757 125.6 642.632 124.584 641.955 123.722C641.278 122.859 640.283 122.405 639.041 122.477Z" fill="#313131"/>
<path d="M645.37 140.034C645.166 140.767 644.696 141.727 644.175 142.869C643.755 143.645 643.577 144.287 643.38 144.629C643.278 144.996 643.177 145.363 643.246 145.479L643.473 146.128L642.725 146.622L641.396 144.804C641.257 144.572 641.264 144.181 641.512 143.655C641.76 143.129 642.084 142.329 642.554 141.369C643.17 140.251 643.52 139.359 643.793 138.742C644.067 138.124 644.004 137.617 643.89 137.292L643.238 136.338L638.868 139.237L639.583 140.699L638.834 141.194L635.994 137.118L636.742 136.624L637.748 137.768L647.332 131.5L646.687 130.154L647.436 129.659L650.207 133.619L649.458 134.113L648.452 132.969L643.987 135.843L644.847 137.147L651.432 137.277L650.692 135.906L651.44 135.412L653.977 139.114L653.229 139.608L652.197 138.556L645.448 138.285C645.631 138.725 645.573 139.3 645.37 140.034Z" fill="#313131"/>
<path d="M644.997 149.076C645.062 148.11 645.342 147.102 646.097 146.216C646.757 145.306 647.703 144.469 648.908 143.798C650.138 143.035 651.362 142.663 652.509 142.567C653.751 142.495 654.822 142.674 655.817 143.127C656.811 143.581 657.634 144.285 658.26 145.331C659.234 146.959 659.543 148.415 659.015 149.949C658.513 151.391 657.345 152.662 655.512 153.76C654.281 154.523 653.058 154.895 651.79 155.058C650.548 155.13 649.477 154.952 648.388 154.473C647.393 154.02 646.596 153.224 645.944 152.269C645.248 151.107 645.028 150.067 644.997 149.076ZM654.535 144.074C653.318 144.054 651.759 144.535 650.046 145.566C648.454 146.531 647.363 147.526 646.842 148.669C646.226 149.787 646.351 150.802 646.977 151.849C647.629 152.803 648.598 153.349 649.815 153.368C651.127 153.413 652.591 152.907 654.304 151.875C655.896 150.911 656.987 149.916 657.508 148.773C658.004 147.722 657.999 146.64 657.373 145.593C656.721 144.639 655.847 144.118 654.535 144.074Z" fill="#313131"/>
<path d="M662.027 153.774L661.503 152.361L662.346 151.891L663.598 153.984C663.807 154.332 664.085 154.797 664.459 155.287C664.832 155.777 665.041 156.125 665.18 156.358C665.989 157.845 666.4 158.934 666.24 159.875C666.081 160.816 665.617 161.385 664.748 161.946C664.025 162.349 663.163 162.519 662.377 162.414C661.592 162.309 660.882 161.929 660.275 161.183C660.901 162.229 661.077 163.061 660.918 164.002C660.784 164.852 660.2 165.487 659.356 165.957C658.272 166.561 657.125 166.658 656.01 166.271C654.895 165.885 653.863 164.832 652.819 163.088C652.611 162.739 652.427 162.299 652.219 161.95C651.732 161.136 651.479 160.58 651.409 160.463L650.157 158.371L650.975 157.992L651.861 159.204L662.027 153.774ZM653.568 162.594C654.194 163.64 654.827 164.295 655.587 164.491C656.348 164.688 657.089 164.585 657.933 164.115C658.776 163.645 659.239 163.077 659.392 162.527C659.545 161.977 659.369 161.145 658.812 160.215C658.186 159.169 657.768 158.471 657.629 158.239L652.74 160.807C652.828 161.223 653.081 161.78 653.568 162.594ZM659.15 158.632L659.611 159.537C660.029 160.235 660.618 160.682 661.188 160.829C661.853 161.001 662.5 160.873 663.343 160.404C664.066 160.001 664.504 159.524 664.657 158.974C664.81 158.424 664.608 157.684 664.051 156.754C663.843 156.405 663.539 156.032 663.356 155.591L663.147 155.243L658.593 157.702C658.732 157.934 658.872 158.167 659.15 158.632Z" fill="#313131"/>
<path d="M676.586 178.371L675.768 178.749L674.907 177.446L664.489 182.32L665.057 183.941L664.239 184.319L661.957 179.7L662.775 179.321L663.635 180.625L674.149 175.776L671.519 170.575L660.98 175.516L661.548 177.137L660.73 177.515L658.422 172.988L659.24 172.61L660.031 173.797L670.45 168.923L669.951 167.419L670.769 167.04L676.586 178.371Z" fill="#313131"/>
<path d="M666.282 187.599C666.467 186.565 667.007 185.722 667.736 184.928C668.561 184.159 669.576 183.438 670.851 182.883C672.125 182.328 673.419 182.073 674.61 182.185C675.801 182.296 676.847 182.566 677.79 183.203C678.734 183.84 679.411 184.703 679.847 185.7C680.58 187.462 680.673 188.96 679.885 190.329C679.193 191.723 677.765 192.828 675.819 193.602C674.449 194.132 673.156 194.388 671.965 194.276C670.773 194.165 669.633 193.87 668.689 193.233C667.746 192.596 667.069 191.733 666.538 190.711C666.222 189.647 666.027 188.515 666.282 187.599ZM676.439 184.033C675.178 183.806 673.67 184.103 671.723 184.878C669.992 185.61 668.736 186.464 668.05 187.466C667.364 188.468 667.179 189.501 667.685 190.615C668.191 191.728 669.039 192.341 670.3 192.568C671.561 192.796 673.165 192.523 675.016 191.724C676.747 190.992 678.003 190.137 678.689 189.135C679.375 188.133 679.465 187.076 679.054 185.987C678.549 184.873 677.7 184.261 676.439 184.033Z" fill="#313131"/>
<path d="M676.192 199.595C674.467 199.935 673.105 200.074 672.129 199.92C671.654 199.797 671.178 199.674 670.944 199.417C670.615 199.136 670.381 198.879 670.198 198.438C669.945 197.881 669.857 197.466 669.838 197.166L671.233 196.544C671.252 196.843 671.435 197.284 671.688 197.841C671.732 198.049 671.896 198.189 672.061 198.33C672.226 198.471 672.416 198.52 672.701 198.594C674.437 198.944 677.454 198.349 681.658 196.782L683.028 196.252L682.466 194.239L683.379 193.886L687.195 203.619L686.282 203.972L685.473 202.485L674.592 206.453L675.04 208.142L674.153 208.403L672.144 203.167L673.031 202.905L673.885 204.6L684.765 200.632L683.464 197.249L681.879 197.822C679.786 198.755 677.916 199.254 676.192 199.595Z" fill="#313131"/>
<path d="M687.273 207.373L686.964 205.918L687.852 205.656L690.826 214.385L688.182 215.47L687.841 214.497L689.363 213.417L688.006 209.135L682.991 210.688L684.039 213.515L685.618 213.333L685.959 214.306L681.831 215.597L681.49 214.625L682.911 213.911L681.983 211.018L676.727 212.705L678.552 217.501L681.151 217.681L681.156 218.764L677.879 219.194L674.607 209.7L675.495 209.439L676.14 210.785L687.273 207.373Z" fill="#313131"/>
<path d="M692.059 221.681L691.036 218.763L687.043 219.205L686.752 218.049L691.615 217.045L694.814 227.896L690.015 229.407L689.699 228.343L693.307 226.721L692.525 223.669L681.184 226.731L681.713 229.226L680.825 229.488L678.888 222.895L679.775 222.633L680.597 224.81L692.059 221.681Z" fill="#313131"/>
<path d="M689.118 237.037L688.942 236.205C688.708 235.948 688.233 235.825 687.567 235.653C686.902 235.481 686.116 235.377 685.141 235.223C684.165 235.069 683.499 234.897 683.024 234.774C682.549 234.651 682.29 234.486 682.245 234.278L681.691 231.874L682.553 231.704L682.875 232.377C682.945 232.493 683.204 232.658 683.559 232.848C683.939 232.947 684.509 233.094 685.244 233.382C686.1 233.603 686.86 233.8 687.525 233.972C688.07 234.211 688.519 234.426 688.849 234.707C688.888 233.833 689.187 233.124 689.65 232.556C690.234 231.921 690.957 231.518 691.819 231.348C693.233 231.025 694.398 231.228 695.126 231.908C695.854 232.587 696.455 233.725 696.833 235.297C696.947 235.621 697.01 236.129 697.073 236.637C697.11 237.236 697.198 237.652 697.312 237.976L697.936 240.496L697.048 240.758L696.429 239.32L685.12 241.9L685.377 243.539L684.541 243.617L683.223 238.461L684.085 238.291L684.653 239.912L689.446 238.792L689.118 237.037ZM696.115 236.782C696.053 236.275 695.99 235.767 695.902 235.351C695.656 234.403 695.308 233.822 694.814 233.399C694.32 232.977 693.509 232.964 692.526 233.201C691.544 233.438 690.821 233.841 690.452 234.434C690.084 235.027 689.975 235.785 690.221 236.733C690.467 237.681 690.6 238.305 690.739 238.537L696.299 237.223L696.115 236.782Z" fill="#313131"/>
<path d="M698.302 246.88L697.615 243.853L693.603 243.995L693.408 242.863L698.358 242.276L700.601 253.273L695.713 254.368L695.518 253.236L699.24 251.938L698.769 248.868L687.181 250.982L687.494 253.52L686.632 253.691L685.246 246.945L686.109 246.774L686.809 249.019L698.302 246.88Z" fill="#313131"/>
<path d="M688.939 263.721C689.41 262.761 690.165 261.876 691.129 261.339C692.118 260.71 693.342 260.339 694.73 260.108C696.093 259.969 697.405 260.013 698.494 260.491C699.609 260.878 700.527 261.606 701.299 262.494C702.071 263.381 702.482 264.47 702.651 265.693C702.802 266.617 702.807 267.699 702.641 269.032L702.583 269.607L699.262 269.829L699.092 268.606L701.35 267.814C701.496 267.655 701.597 267.288 701.604 266.897C701.611 266.505 701.669 265.931 701.511 265.399C701.404 264.683 701.082 264.01 700.518 263.471C699.955 262.933 699.246 262.553 698.295 262.307C697.345 262.061 696.318 262.091 695.076 262.163C693.903 262.351 692.921 262.588 691.982 263.033C691.044 263.479 690.39 263.998 689.902 264.658C689.413 265.317 689.279 266.167 689.36 266.974C689.492 267.598 689.555 268.106 689.764 268.455C689.877 268.779 690.112 269.036 690.346 269.293L692.246 269.784L692.226 270.958L689.507 270.845C689.463 270.637 689.375 270.221 689.097 269.756C688.913 269.316 688.705 268.967 688.616 268.551C688.528 268.135 688.345 267.695 688.308 267.095C688.328 265.921 688.444 264.772 688.939 263.721Z" fill="#313131"/>
<path d="M703.842 276.812L702.91 276.865L702.488 275.086L693.095 275.9L695.482 277.205L702.562 281.787L703.088 281.727L703.141 280.07L704.072 280.016L704.535 284.951L703.604 285.005L703.269 283.641L691.677 284.673L691.649 286.238L690.718 286.292L690.28 281.266L691.212 281.212L691.59 282.784L701.079 281.994L698.761 280.805L691.611 276.106L690.99 276.142L690.937 277.799L690.006 277.853L689.568 272.827L690.5 272.773L690.809 274.228L702.401 273.196L702.498 271.747L703.43 271.693L703.842 276.812Z" fill="#313131"/>
<path d="M680.383 400.448L675.509 400.76L675.434 399.562L679.194 398.863L679.167 394.925L667.416 395.425L667.362 398.556L666.43 398.61L666.052 391.535L666.984 391.481L667.26 393.42L678.821 392.87L678.95 390.938L679.882 390.884L680.383 400.448Z" fill="#313131"/>
<path d="M704.042 299.564L704.234 298.139L705.14 298.177L705.102 303.081L704.196 303.043L704.008 301.521L699.02 301.509L698.98 307.886L703.968 307.898L704.16 306.474L705.066 306.511L705.054 311.324L704.148 311.286L703.934 309.855L692.311 309.896L692.119 311.321L691.213 311.283L691.225 306.471L692.131 306.509L692.319 308.031L697.713 308.05L697.752 301.672L692.359 301.654L692.142 303.17L691.235 303.132L691.178 298.204L692.084 298.242L692.298 299.673L704.042 299.564Z" fill="#313131"/>
<path d="M705.084 317.817L705.05 319.774L691.977 323.568L691.766 324.693L690.86 324.655L691.063 319.892L691.969 319.93L692.062 321.428L694.915 320.692L695.149 315.446L692.47 314.458L692.253 315.974L691.346 315.936L691.516 311.656L692.423 311.694L692.523 312.801L705.084 317.817ZM702.034 318.896L703.663 318.531L701.978 317.997L696.049 315.875L695.802 320.43L702.034 318.896Z" fill="#313131"/>
<path d="M695.449 329.773C693.738 329.33 692.528 328.919 691.679 328.307C691.255 328.001 690.926 327.719 690.812 327.395C690.604 327.046 690.61 326.655 690.617 326.263C690.675 325.689 690.682 325.297 690.853 325.047L692.381 325.049C692.304 325.324 692.272 325.807 692.214 326.381C692.163 326.565 692.207 326.773 692.347 327.005C692.391 327.213 692.555 327.354 692.815 327.519C694.157 328.554 697.224 329.249 701.704 329.621L703.206 329.714L703.576 327.648L704.482 327.686L703.538 338.055L702.631 338.017L702.589 336.336L691.056 335.32L690.667 337.086L689.761 337.049L690.288 331.485L691.194 331.523L691.185 333.388L702.718 334.404L703.021 330.747L701.329 330.605C699.041 330.407 697.09 330.099 695.449 329.773Z" fill="#313131"/>
<path d="M697.09 345.134C696.898 346.559 696.377 347.702 695.483 348.355C694.683 349.033 693.606 349.245 692.319 349.109C690.938 348.949 689.899 348.287 689.248 347.333C688.596 346.378 688.426 345.155 688.618 343.73C688.669 343.547 688.72 343.364 688.676 343.156C688.632 342.948 688.778 342.789 688.854 342.514C689.033 341.872 689.116 341.206 689.269 340.655L689.646 338.198L690.526 338.327L690.499 339.892L702.07 341.508L702.572 340.065L703.453 340.195L702.648 345.294L701.767 345.164L701.655 343.366L697.346 342.744L697.09 345.134ZM689.856 342.576C689.805 342.759 689.703 343.126 689.696 343.518C689.511 344.551 689.713 345.291 690.251 345.921C690.789 346.552 691.498 346.932 692.594 347.018C693.57 347.172 694.432 347.002 694.965 346.55C695.593 346.123 695.892 345.414 696.077 344.381L696.371 342.59L690.085 341.751C689.983 342.118 689.907 342.393 689.856 342.576ZM700.795 357.099L699.915 356.969L699.967 355.312L688.492 353.721L688.034 355.372L687.153 355.242L687.888 350.027L688.769 350.157L688.716 351.814L700.191 353.405L700.65 351.754L701.531 351.884L700.795 357.099Z" fill="#313131"/>
<path d="M697.984 365.02L698.556 363.694L699.412 363.915L698.278 368.732L697.422 368.511L697.545 366.97L692.647 365.901L691.226 372.117L696.124 373.187L696.696 371.861L697.551 372.082L696.442 376.807L695.587 376.586L695.684 375.137L684.317 372.788L683.84 374.139L682.985 373.918L684.093 369.193L684.949 369.414L684.852 370.863L690.155 371.939L691.576 365.722L686.273 364.646L685.745 366.18L684.89 365.959L686.024 361.142L686.879 361.363L686.782 362.812L697.984 365.02Z" fill="#313131"/>
<path d="M694.952 382.908L694.417 384.833L680.84 386.04L680.345 387.092L679.489 386.871L680.667 382.261L681.523 382.483L681.305 383.999L684.196 383.861L685.501 378.794L683.044 377.373L682.446 378.79L681.591 378.569L682.642 374.419L683.497 374.64L683.382 375.789L694.952 382.908ZM691.795 383.271L693.538 383.23L692.024 382.446L686.686 379.297L685.558 383.722L691.795 383.271Z" fill="#313131"/>
<path d="M689.426 397.301L690.341 395.474L691.171 395.787L689.613 400.298L680.81 400.086L678.402 399.955L680.505 401.186L687.673 406.184L686.114 410.695L685.284 410.382L685.724 408.432L674.211 406.242L673.519 407.635L672.689 407.322L674.375 402.353L675.205 402.666L674.867 404.249L683.116 406.087L686.683 406.813L684.372 405.232L676.121 399.365L676.522 398.289L685.997 398.282L689.742 398.366L686.378 396.907L678.632 393.626L677.863 395.295L677.033 394.982L678.566 390.563L679.396 390.876L679.083 392.367L689.426 397.301Z" fill="#313131"/>
<path d="M683.495 417.191L682.77 419.068L669.151 418.593L668.586 419.528L667.756 419.215L669.6 414.778L670.43 415.091L670.022 416.558L672.931 416.721L674.902 411.825L672.641 410.061L671.854 411.43L671.024 411.117L672.645 407.114L673.475 407.427L673.264 408.552L683.495 417.191ZM680.25 417.139L681.942 417.281L680.575 416.338L675.725 412.529L674.027 416.807L680.25 417.139Z" fill="#313131"/>
<path d="M678.427 425.905L679.259 424.744L680.088 425.057L679.072 427.251C678.849 427.685 678.747 428.052 678.551 428.394C678.277 429.011 678.124 429.561 677.877 430.087C677.133 431.663 676.352 432.641 675.414 433.086C674.501 433.44 673.474 433.469 672.195 432.942C671.295 432.513 670.611 432.041 670.099 431.319C669.586 430.597 669.385 429.857 669.329 428.958C669.273 428.059 669.527 427.142 669.972 426.274C670.169 425.932 670.245 425.657 670.442 425.315C670.639 424.973 670.69 424.789 670.811 424.722L667.067 423.165L665.86 425.31L665.03 424.997L667.534 419.649L668.364 419.962L667.861 421.405L678.427 425.905ZM670.871 426.703C670.427 427.571 670.413 428.354 670.685 429.21C670.956 430.066 671.709 430.654 672.989 431.182C673.983 431.635 674.795 431.648 675.372 431.405C676.069 431.094 676.558 430.434 677.028 429.474C677.225 429.132 677.327 428.765 677.454 428.307C677.531 428.032 677.582 427.848 677.607 427.757L671.494 425.194C671.418 425.469 671.17 425.994 670.871 426.703Z" fill="#313131"/>
<path d="M661.96 432.753C662.924 432.216 664.027 431.911 665.148 431.906C666.365 431.926 667.601 432.246 668.855 432.865C670.109 433.484 671.122 434.237 671.774 435.191C672.52 436.171 672.836 437.235 672.936 438.342C673.036 439.449 672.825 440.574 672.209 441.692C671.764 442.56 671.104 443.47 670.298 444.539L669.955 445.04L667.023 443.496L667.518 442.445L669.894 443.059C670.11 443.016 670.376 442.79 670.668 442.473C670.96 442.155 671.182 441.721 671.525 441.22C671.919 440.536 672.002 439.869 671.826 439.038C671.719 438.322 671.302 437.625 670.694 436.878C670.061 436.223 669.213 435.61 668.054 435.016C666.964 434.538 665.944 434.176 664.968 434.022C663.993 433.868 663.061 433.922 662.243 434.3C661.45 434.586 660.892 435.13 660.447 435.998C660.174 436.615 659.952 437.049 659.945 437.44C659.843 437.807 659.862 438.107 659.975 438.431L661.311 439.857L660.65 440.767L658.434 439.212C658.511 438.937 658.613 438.57 658.74 438.111C658.867 437.653 658.874 437.262 659.001 436.803C659.103 436.436 659.351 435.911 659.599 435.385C660.215 434.267 660.97 433.381 661.96 432.753Z" fill="#313131"/>
<path d="M662.332 459.284L661.553 458.788L662.322 457.12L654.216 452.567L655.392 454.935L658.335 462.673L658.785 462.888L659.858 461.593L660.637 462.089L658.033 466.329L657.254 465.833L657.826 464.507L647.782 458.864L646.829 460.092L646.025 459.687L648.654 455.355L649.459 455.76L648.741 457.245L656.917 461.913L655.69 459.729L652.772 451.899L652.157 451.544L651.059 452.93L650.255 452.526L652.909 448.102L653.714 448.506L653.116 449.924L663.161 455.568L664.087 454.431L664.866 454.927L662.332 459.284Z" fill="#313131"/>
<path d="M655.614 469.537C655.367 470.062 655.239 470.521 655.042 470.863C654.845 471.205 654.649 471.547 654.477 471.798C653.62 473.05 652.77 473.912 651.857 474.265C650.944 474.619 650.037 474.581 649.163 474.06C648.289 473.54 647.872 472.842 647.696 472.01C647.519 471.178 647.628 470.42 647.978 469.528C647.317 470.438 646.543 471.024 645.681 471.195C644.819 471.365 644.033 471.26 643.254 470.764C642.121 470.078 641.444 469.215 641.344 468.108C641.218 467.093 641.575 465.809 642.603 464.306C642.972 463.713 643.41 463.237 643.847 462.76C644.26 462.376 644.647 462.083 644.913 461.857C645.18 461.631 645.326 461.472 645.421 461.497L647.941 463.426L647.426 464.177L645.127 463.288C644.525 463.623 643.966 464.167 643.306 465.077C642.817 465.737 642.734 466.403 642.866 467.027C642.998 467.651 643.562 468.19 644.436 468.711C645.05 469.066 645.715 469.238 646.457 469.135C647.199 469.032 647.852 468.513 648.392 467.67L649.103 466.576L649.977 467.097L649.437 467.94C649.12 468.349 648.992 468.808 648.865 469.266C648.833 469.749 648.896 470.257 649.079 470.697C649.262 471.138 649.661 471.536 650.18 471.866C650.864 472.338 651.555 472.418 652.106 472.266C652.658 472.114 653.191 471.662 653.68 471.002C653.997 470.593 654.219 470.159 654.226 469.768C654.328 469.401 654.309 469.101 654.17 468.869L652.879 467.65L653.539 466.74L656.022 468.07C655.964 468.644 655.767 468.987 655.614 469.537Z" fill="#313131"/>
<path d="M645.826 482.042L646.943 480.955L647.722 481.452L646.256 483.431C645.964 483.749 645.741 484.182 645.373 484.775C645.03 485.276 644.833 485.618 644.662 485.869C643.684 487.188 642.739 488.025 641.851 488.287C640.964 488.549 640.083 488.419 639.33 487.832C638.646 487.36 638.108 486.73 637.931 485.898C637.729 485.158 637.838 484.4 638.162 483.599C637.502 484.509 636.728 485.095 635.841 485.357C634.978 485.527 634.098 485.398 633.344 484.81C632.331 484.057 631.775 483.127 631.675 482.02C631.574 480.913 632.077 479.471 633.321 477.925C633.613 477.607 633.81 477.265 634.102 476.948C634.711 476.221 635.054 475.72 635.174 475.653L636.641 473.673L637.42 474.169L636.658 475.446L645.826 482.042ZM633.91 478.372C633.129 479.35 632.875 480.267 632.886 480.957C632.898 481.648 633.411 482.371 634.189 482.867C634.943 483.455 635.703 483.651 636.35 483.523C636.996 483.396 637.65 482.877 638.285 482.058C639.065 481.081 639.459 480.396 639.631 480.146L635.103 477.01C634.983 477.077 634.545 477.554 633.91 478.372ZM639.965 481.51L639.33 482.328C638.841 482.988 638.663 483.63 638.795 484.254C638.928 484.878 639.37 485.484 640.054 485.955C640.738 486.427 641.403 486.599 642.025 486.563C642.576 486.411 643.204 485.983 643.864 485.073C644.156 484.755 644.379 484.322 644.575 483.979L644.772 483.637L640.6 480.691C640.549 480.875 640.282 481.101 639.965 481.51Z" fill="#313131"/>
<path d="M637.051 495.301L635.807 496.846L622.852 492.514L622.027 493.284L621.274 492.696L624.346 488.97L625.099 489.557L624.242 490.81L626.922 491.798L630.311 487.662L628.704 485.379L627.587 486.466L626.834 485.878L629.589 482.561L630.342 483.149L629.751 484.176L637.051 495.301ZM633.966 494.307L635.531 494.908L634.48 493.555L630.988 488.525L628.062 492.092L633.966 494.307Z" fill="#313131"/>
<path d="M619.699 495.434C620.802 495.129 621.924 495.124 623.064 495.419C624.204 495.714 625.338 496.4 626.421 497.27C627.503 498.139 628.25 499.118 628.661 500.207C629.071 501.296 629.171 502.403 628.961 503.528C628.75 504.653 628.159 505.679 627.404 506.565C626.795 507.292 625.875 508.037 624.835 508.849L624.327 509.209L621.909 506.913L622.759 506.052L624.887 507.192C625.103 507.149 625.439 507.04 625.826 506.747C626.187 506.545 626.6 506.161 626.943 505.66C627.501 505.116 627.8 504.407 627.813 503.624C627.922 502.866 627.72 502.126 627.233 501.312C626.746 500.499 626.164 499.66 625.151 498.907C624.233 498.178 623.385 497.566 622.46 497.228C621.535 496.891 620.654 496.762 619.817 496.84C618.981 496.919 618.258 497.321 617.648 498.048C617.211 498.525 616.893 498.934 616.791 499.301C616.594 499.643 616.613 499.943 616.537 500.218L617.39 501.913L616.47 502.657L614.787 500.65C614.933 500.491 615.13 500.149 615.378 499.623C615.6 499.189 615.797 498.847 615.994 498.505C616.191 498.163 616.508 497.754 616.946 497.277C617.581 496.459 618.596 495.738 619.699 495.434Z" fill="#313131"/>
<path d="M615.784 514.666C616.099 515.73 616.13 516.721 615.875 517.637C615.62 518.554 615.176 519.422 614.376 520.1C613.526 520.961 612.562 521.498 611.579 521.735C610.597 521.973 609.5 521.886 608.48 521.524C607.461 521.162 606.422 520.5 605.434 519.655C604.377 518.694 603.561 517.599 603.176 516.418C602.765 515.329 602.57 514.198 602.85 513.189C603.035 512.156 603.601 511.221 604.33 510.427C605.181 509.566 606.145 509.029 607.153 508.7C608.135 508.463 609.232 508.55 610.252 508.912C611.272 509.273 612.31 509.935 613.298 510.78L615.411 508.673L611.442 504.993L610.16 505.94L609.527 505.285L613.075 501.681L613.733 502.245L612.781 503.472L621.118 511.229L622.279 510.35L622.912 511.005L619.39 514.517L618.757 513.862L619.709 512.634L616.069 509.236L613.956 511.343C614.937 512.58 615.468 513.601 615.784 514.666ZM614.609 516.327C614.319 515.171 613.459 513.868 612.003 512.509C610.711 511.291 609.388 510.555 608.127 510.328C606.866 510.1 605.763 510.404 604.912 511.266C604.062 512.127 603.807 513.044 604.098 514.2C604.388 515.356 605.248 516.659 606.799 518.043C608.09 519.261 609.319 519.972 610.554 520.291C611.79 520.611 612.798 520.282 613.648 519.42C614.499 518.559 614.779 517.551 614.609 516.327Z" fill="#313131"/>
<path d="M597.512 525.076C596.726 524.971 595.681 524.701 594.445 524.382C593.59 524.16 592.925 523.989 592.45 523.866C592.07 523.767 591.759 523.785 591.518 523.92L590.821 524.231L590.188 523.576L591.837 522.037C592.078 521.902 592.414 521.793 593.08 521.965C593.65 522.112 594.505 522.333 595.645 522.628C596.855 523.039 597.806 523.285 598.592 523.39C599.257 523.562 599.783 523.501 600.075 523.184L600.9 522.414L597.267 518.625L595.89 519.547L595.257 518.892L599.039 515.545L599.672 516.2L598.65 517.312L606.549 525.545L607.805 524.691L608.438 525.346L604.777 528.625L604.144 527.97L605.096 526.742L601.463 522.953L600.251 524.015L601.143 530.339L602.399 529.484L603.032 530.139L599.638 533.193L599.005 532.538L599.932 531.401L599.185 524.919C599.014 525.17 598.298 525.181 597.512 525.076Z" fill="#313131"/>
<path d="M588.232 526.215C589.285 526.094 590.355 526.272 591.324 526.818C592.414 527.296 593.307 528.116 594.243 529.145C595.18 530.173 595.781 531.311 596.071 532.467C596.361 533.623 596.366 534.705 595.991 535.689C595.615 536.673 595.05 537.608 594.13 538.353C592.678 539.55 591.118 540.031 589.546 539.821C587.975 539.612 586.512 538.644 585.012 537.077C584.075 536.048 583.475 534.91 583.185 533.754C582.895 532.598 582.89 531.516 583.29 530.44C583.596 529.34 584.231 528.522 585.15 527.777C586.147 526.757 587.18 526.336 588.232 526.215ZM594.794 534.495C594.625 533.272 593.885 531.902 592.549 530.476C591.309 529.074 590.106 528.272 588.896 527.86C587.686 527.449 586.608 527.662 585.688 528.407C584.768 529.152 584.393 530.136 584.563 531.359C584.733 532.582 585.472 533.953 586.782 535.471C588.023 536.872 589.226 537.675 590.436 538.086C591.671 538.405 592.749 538.193 593.669 537.448C594.589 536.703 594.964 535.719 594.794 534.495Z" fill="#313131"/>
<path d="M586.101 543.058L587.426 542.32L588.034 543.067L586.099 544.532C585.738 544.733 585.325 545.118 584.887 545.594C584.475 545.979 584.088 546.272 583.847 546.406C582.445 547.42 581.386 547.932 580.454 547.986C579.523 548.04 578.718 547.636 578.111 546.889C577.573 546.259 577.276 545.494 577.29 544.711C577.303 543.929 577.602 543.22 578.186 542.584C577.266 543.329 576.353 543.683 575.447 543.645C574.541 543.608 573.736 543.203 573.129 542.456C572.382 541.477 572.066 540.413 572.277 539.288C572.488 538.163 573.44 536.935 574.988 535.763C575.374 535.47 575.736 535.269 576.002 535.043C576.776 534.457 577.258 534.188 577.404 534.029L579.339 532.564L579.852 533.286L578.735 534.373L586.101 543.058ZM575.716 536.443C574.701 537.163 574.186 537.914 574.078 538.672C573.969 539.431 574.171 540.171 574.778 540.917C575.386 541.664 576 542.019 576.691 542.1C577.382 542.18 578.079 541.869 578.973 541.216C579.988 540.495 580.642 539.976 580.813 539.726L577.402 535.503C577.022 535.405 576.515 535.765 575.716 536.443ZM580.647 541.059L579.873 541.645C579.219 542.164 578.851 542.756 578.768 543.423C578.685 544.089 578.912 544.738 579.545 545.393C580.083 546.023 580.697 546.378 581.293 546.434C581.889 546.49 582.586 546.179 583.48 545.526C583.867 545.233 584.159 544.915 584.546 544.622L584.813 544.396L581.636 540.43C581.3 540.54 581.034 540.766 580.647 541.059Z" fill="#313131"/>
<g style="mix-blend-mode:overlay">
<ellipse cx="171.44" cy="91.54" rx="2" ry="1.92963" fill="#313131"/>
</g>
<g style="mix-blend-mode:overlay">
<ellipse cx="575.939" cy="66.8124" rx="2" ry="1.92963" fill="#313131"/>
</g>
</g>
</svg>
