<svg width="351" height="351" viewBox="0 0 351 351" fill="none" xmlns="http://www.w3.org/2000/svg">
<circle cx="175.777" cy="175.577" r="148.737" fill="#FBCE51"/>
<g style="mix-blend-mode:overlay">
<path d="M240.022 303.156L239.845 302.787L240.52 302.325L238.636 298.561L238.486 299.806L237.628 303.524L237.71 303.73L238.413 303.505L238.59 303.874L236.518 304.925L236.341 304.557L236.907 304.157L234.588 299.45L233.927 299.686L233.751 299.318L235.866 298.278L236.042 298.646L235.434 299.034L237.349 302.852L237.476 301.693L238.357 297.889L238.2 297.618L237.443 297.874L237.266 297.505L239.381 296.465L239.558 296.834L238.949 297.221L241.269 301.929L241.917 301.735L242.094 302.104L240.022 303.156Z" fill="#313131"/>
<path d="M234.894 305.501C234.665 305.669 234.502 305.763 234.339 305.857C234.177 305.951 234.014 306.045 233.862 306.096C233.233 306.387 232.693 306.518 232.254 306.446C231.814 306.374 231.506 306.153 231.309 305.688C231.144 305.276 231.107 304.899 231.253 304.525C231.399 304.151 231.663 303.854 232 303.623C231.534 303.82 231.114 303.845 230.729 303.742C230.355 303.596 230.101 303.344 229.924 302.975C229.665 302.401 229.651 301.938 229.863 301.49C230.075 301.042 230.544 300.662 231.281 300.309C231.596 300.164 231.898 300.061 232.136 300.033C232.384 299.962 232.621 299.933 232.761 299.925C232.901 299.917 232.998 299.897 233.041 299.908L233.491 301.314L233.122 301.491L232.449 300.576C232.138 300.538 231.792 300.629 231.326 300.826C230.969 300.96 230.772 301.182 230.691 301.482C230.611 301.782 230.659 302.116 230.824 302.528C230.97 302.842 231.181 303.082 231.469 303.206C231.757 303.329 232.134 303.292 232.6 303.095L233.12 302.868L233.329 303.291L232.863 303.487C232.657 303.57 232.482 303.707 232.297 303.886C232.154 304.078 232.053 304.28 231.996 304.494C231.981 304.72 231.998 305 232.112 305.26C232.246 305.617 232.469 305.815 232.726 305.884C232.983 305.952 233.274 305.893 233.631 305.759C233.848 305.634 234.054 305.551 234.186 305.403C234.317 305.254 234.395 305.137 234.418 305.051L234.259 304.274L234.736 304.035L235.34 305.207C235.286 305.238 235.123 305.332 234.894 305.501Z" fill="#313131"/>
<path d="M228.033 307.977L228.713 307.838L228.878 308.25L227.806 308.651C227.643 308.745 227.395 308.816 227.135 308.93C226.875 309.044 226.712 309.138 226.603 309.201C225.889 309.469 225.317 309.545 224.932 309.442C224.546 309.339 224.249 309.075 224.096 308.621C223.962 308.264 223.925 307.887 224.06 307.556C224.152 307.213 224.415 306.916 224.741 306.728C224.232 306.913 223.801 306.981 223.427 306.835C223.053 306.689 222.756 306.426 222.602 305.971C222.374 305.451 222.415 304.957 222.681 304.477C222.947 303.998 223.47 303.587 224.336 303.268C224.542 303.186 224.694 303.134 224.888 303.095C225.288 302.972 225.548 302.858 225.645 302.839L226.674 302.426L226.796 302.826L226.156 303.159L228.033 307.977ZM224.47 303.625C223.95 303.853 223.613 304.084 223.435 304.404C223.258 304.724 223.306 305.058 223.428 305.458C223.593 305.87 223.805 306.11 224.093 306.233C224.381 306.356 224.758 306.32 225.224 306.123C225.744 305.895 226.09 305.804 226.253 305.71L225.367 303.361C225.185 303.358 224.925 303.472 224.47 303.625ZM225.941 306.361L225.529 306.526C225.172 306.66 224.932 306.871 224.809 307.159C224.686 307.448 224.691 307.77 224.868 308.139C225.001 308.496 225.213 308.737 225.458 308.848C225.704 308.96 226.081 308.923 226.546 308.727C226.752 308.644 226.915 308.55 227.121 308.468L227.284 308.373L226.45 306.176C226.341 306.239 226.189 306.29 225.941 306.361Z" fill="#313131"/>
<path d="M221.345 311.006L220.479 311.325L216.689 306.453L216.16 306.541L216.038 306.141L218.158 305.423L218.281 305.823L217.652 306.114L218.419 307.192L220.745 306.392L220.724 305.101L220.001 305.228L219.879 304.828L221.793 304.194L221.916 304.594L221.438 304.833L221.345 311.006ZM220.45 309.894L220.88 310.514L220.818 309.717L220.747 306.897L218.724 307.595L220.45 309.894Z" fill="#313131"/>
<path d="M214.757 306.807C215.271 306.945 215.665 307.188 216.013 307.603C216.361 308.018 216.644 308.506 216.794 309.144C216.956 309.738 216.99 310.298 216.884 310.866C216.777 311.434 216.522 311.871 216.151 312.231C215.779 312.59 215.333 312.884 214.781 313.057C214.381 313.18 213.853 313.268 213.25 313.29L212.97 313.307L212.629 311.838L213.181 311.664L213.702 312.631C213.788 312.653 213.959 312.699 214.142 312.702C214.325 312.706 214.573 312.634 214.865 312.575C215.211 312.484 215.494 312.284 215.702 312.019C215.911 311.753 216.057 311.379 216.075 310.971C216.093 310.562 216.048 310.045 215.905 309.548C215.763 309.051 215.567 308.585 215.293 308.236C215.019 307.888 214.734 307.582 214.402 307.447C214.071 307.312 213.674 307.252 213.274 307.374C212.983 307.434 212.766 307.559 212.657 307.622C212.548 307.685 212.417 307.833 212.34 307.95L212.238 308.841L211.71 308.929L211.569 307.743C211.666 307.724 211.829 307.629 212.046 307.504C212.22 307.367 212.383 307.273 212.589 307.19C212.752 307.096 213 307.025 213.249 306.954C213.726 306.715 214.243 306.67 214.757 306.807Z" fill="#313131"/>
<path d="M208.408 313.37C208.239 313.829 207.984 314.266 207.678 314.551C207.318 314.868 206.938 315.088 206.506 315.156C205.966 315.286 205.472 315.246 205.055 315.088C204.638 314.931 204.256 314.644 203.951 314.241C203.646 313.838 203.406 313.361 203.298 312.735C203.159 312.055 203.137 311.452 203.232 310.927C203.338 310.359 203.593 309.922 203.922 309.551C204.251 309.18 204.674 308.972 205.171 308.83C205.711 308.699 206.217 308.697 206.677 308.866C207.136 309.035 207.476 309.31 207.792 309.67C208.098 310.073 208.337 310.55 208.445 311.176L209.762 310.886L209.211 308.489L208.499 308.574L208.42 308.185L210.677 307.642L210.757 308.031L210.096 308.267L211.302 313.365L211.959 313.311L212.038 313.7L209.835 314.211L209.756 313.823L210.416 313.586L209.904 311.383L208.576 311.716C208.586 312.362 208.534 312.899 208.408 313.37ZM207.476 313.763C207.668 313.217 207.669 312.529 207.459 311.6C207.257 310.812 206.966 310.183 206.564 309.8C206.162 309.417 205.702 309.247 205.119 309.367C204.579 309.497 204.262 309.826 204.081 310.328C203.901 310.831 203.931 311.573 204.141 312.502C204.343 313.291 204.591 313.908 204.993 314.291C205.384 314.717 205.855 314.843 206.352 314.701C206.924 314.625 207.284 314.308 207.476 313.763Z" fill="#313131"/>
<path d="M198.819 313.004C198.565 312.752 198.194 312.423 197.803 311.997C197.518 311.691 197.35 311.463 197.201 311.331C197.053 311.199 196.936 311.122 196.85 311.099L196.539 311.062L196.46 310.673L197.474 310.486C197.614 310.477 197.774 310.566 197.953 310.752C198.133 310.938 198.418 311.244 198.724 311.647C199.103 312.116 199.388 312.422 199.642 312.674C199.853 312.914 200.056 313.014 200.25 312.974L200.779 312.886L200.356 310.524L199.613 310.554L199.534 310.166L201.799 309.763L201.867 310.194L201.219 310.387L202.132 315.545L202.821 315.545L202.889 315.977L200.678 316.348L200.632 315.831L201.293 315.595L200.881 313.189L200.158 313.317L198.887 316.006L199.587 315.964L199.655 316.396L197.626 316.77L197.558 316.339L198.207 316.145L199.587 313.393C199.361 313.379 199.084 313.213 198.819 313.004Z" fill="#313131"/>
<path d="M195.054 311.123C195.502 311.335 195.83 311.652 196.07 312.13C196.321 312.564 196.494 313.116 196.602 313.741C196.71 314.367 196.646 314.947 196.454 315.492C196.274 315.995 195.976 316.42 195.616 316.737C195.213 317.042 194.79 317.25 194.218 317.326C193.355 317.462 192.627 317.267 192.119 316.764C191.611 316.26 191.247 315.566 191.145 314.575C191.049 313.906 191.112 313.326 191.293 312.824C191.485 312.278 191.771 311.896 192.143 311.536C192.546 311.231 193.012 311.035 193.54 310.947C194.112 310.87 194.606 310.911 195.054 311.123ZM195.402 315.991C195.637 315.457 195.724 314.791 195.611 313.843C195.517 312.992 195.27 312.374 194.89 311.905C194.511 311.436 194.051 311.267 193.523 311.355C192.994 311.443 192.602 311.706 192.368 312.239C192.133 312.773 192.035 313.482 192.159 314.387C192.253 315.239 192.5 315.856 192.891 316.282C193.239 316.697 193.687 316.908 194.259 316.832C194.764 316.83 195.167 316.525 195.402 315.991Z" fill="#313131"/>
<path d="M189.928 317.232L190.605 317.276L190.63 317.696L189.499 317.806C189.316 317.803 189.067 317.874 188.787 317.891C188.496 317.95 188.313 317.947 188.216 317.967C187.462 318.041 186.882 317.977 186.531 317.745C186.18 317.513 185.992 317.188 185.935 316.713C185.898 316.336 186.002 315.951 186.168 315.674C186.334 315.397 186.671 315.166 187.071 315.044C186.554 315.089 186.114 315.017 185.763 314.785C185.412 314.553 185.235 314.185 185.21 313.765C185.177 313.205 185.303 312.734 185.686 312.331C186.069 311.929 186.687 311.681 187.624 311.611C187.818 311.571 188.001 311.574 188.226 311.589C188.646 311.564 188.926 311.547 189.012 311.57L190.143 311.46L190.169 311.88L189.488 312.019L189.928 317.232ZM187.68 312.085C187.12 312.119 186.709 312.284 186.5 312.549C186.248 312.803 186.156 313.146 186.225 313.577C186.25 313.997 186.395 314.312 186.629 314.466C186.863 314.621 187.249 314.724 187.723 314.667C188.283 314.634 188.66 314.597 188.811 314.546L188.606 312.058C188.434 312.012 188.154 312.029 187.68 312.085ZM188.382 315.12L187.908 315.176C187.531 315.213 187.216 315.358 187.062 315.592C186.907 315.826 186.816 316.169 186.852 316.546C186.889 316.923 186.991 317.226 187.225 317.38C187.46 317.535 187.802 317.627 188.276 317.57C188.471 317.53 188.696 317.545 188.902 317.462L189.096 317.423L188.899 315.074C188.759 315.083 188.619 315.091 188.382 315.12Z" fill="#313131"/>
<path d="M176.698 318.462L176.673 318.042L177.396 317.914L177.236 312.684L176.431 312.606L176.406 312.186L178.762 312.129L178.788 312.549L178.076 312.634L178.224 317.907L180.904 317.844L180.756 312.571L179.993 312.504L179.968 312.084L182.324 312.027L182.35 312.447L181.681 312.544L181.841 317.774L182.549 317.872L182.574 318.292L176.698 318.462Z" fill="#313131"/>
<path d="M174.711 312.512C175.093 312.799 175.41 313.159 175.595 313.668C175.792 314.133 175.868 314.705 175.879 315.35C175.846 315.984 175.74 316.553 175.474 317.032C175.208 317.512 174.879 317.883 174.444 318.134C174.01 318.385 173.513 318.527 173.007 318.529C172.136 318.525 171.485 318.213 171.031 317.678C170.589 317.101 170.376 316.355 170.371 315.344C170.361 314.698 170.521 314.098 170.788 313.619C171.054 313.139 171.394 312.726 171.829 312.475C172.263 312.224 172.76 312.082 173.309 312.091C173.857 312.1 174.328 312.226 174.711 312.512ZM174.371 317.379C174.68 316.911 174.864 316.226 174.879 315.312C174.871 314.484 174.732 313.804 174.45 313.315C174.168 312.826 173.731 312.571 173.183 312.562C172.634 312.553 172.2 312.804 171.891 313.272C171.582 313.74 171.386 314.468 171.371 315.382C171.367 316.253 171.475 316.879 171.8 317.379C172.082 317.868 172.519 318.123 173.067 318.132C173.596 318.044 174.019 317.836 174.371 317.379Z" fill="#313131"/>
<path d="M167.722 314.267C167.886 313.484 168.078 312.939 168.364 312.556C168.507 312.365 168.638 312.217 168.801 312.123C168.964 312.029 169.159 311.989 169.341 311.992C169.61 312.018 169.793 312.021 169.921 312.055L169.92 312.744C169.792 312.709 169.566 312.695 169.298 312.669C169.212 312.646 169.115 312.666 169.006 312.728C168.898 312.791 168.832 312.865 168.766 312.939C168.271 313.587 168.001 314.938 167.87 316.969L167.826 317.646L168.792 317.813L168.774 318.221L163.896 317.924L163.913 317.515L164.71 317.454L165.056 312.221L164.22 312.089L164.237 311.68L166.805 311.863L166.787 312.272L165.905 312.31L165.558 317.543L167.278 317.637L167.345 316.874C167.469 315.897 167.57 315.006 167.722 314.267Z" fill="#313131"/>
<path d="M162.368 317.285L163.053 317.469L162.993 317.866L158.709 317.406L158.742 316.084L159.236 316.125L159.383 316.945L161.465 317.227L161.731 314.865L160.346 314.723L160.162 315.409L159.711 315.38L159.904 313.457L160.356 313.487L160.386 314.229L161.76 314.414L162.017 311.912L159.632 311.732L159.088 312.734L158.597 312.51L158.988 311.054L163.626 311.562L163.565 311.959L162.877 311.958L162.368 317.285Z" fill="#313131"/>
<path d="M155.411 316.523L156.839 316.676L157.384 314.985L157.909 315.08L157.452 317.299L152.249 316.502L152.48 314.268L153.005 314.363L153.029 316.16L154.477 316.41L155.243 311.152L154.075 310.885L154.136 310.488L157.311 310.972L157.251 311.369L156.166 311.308L155.411 316.523Z" fill="#313131"/>
<path d="M149.403 312.388L149.8 312.448C149.952 312.397 150.138 312.217 150.292 311.983C150.447 311.749 150.71 311.452 150.942 311.101C151.173 310.75 151.382 310.485 151.525 310.294C151.668 310.102 151.777 310.04 151.863 310.063L152.999 310.275L152.939 310.672L152.605 310.721C152.507 310.74 152.41 310.76 152.279 310.909C152.159 311.014 151.961 311.237 151.752 311.502C151.478 311.842 151.269 312.107 151.083 312.287C150.886 312.51 150.723 312.604 150.517 312.686C150.88 312.875 151.133 313.127 151.279 313.441C151.424 313.756 151.461 314.133 151.389 314.573C151.259 315.227 150.962 315.652 150.55 315.817C150.096 315.971 149.536 316.004 148.796 315.852C148.625 315.806 148.454 315.76 148.197 315.691C147.94 315.622 147.726 315.565 147.597 315.531L146.418 315.306L146.478 314.909L147.198 314.965L148.21 309.818L147.45 309.569L147.51 309.172L149.955 309.643L149.895 310.04L149.089 309.962L148.687 312.15L149.403 312.388ZM148.257 315.294C148.514 315.363 148.728 315.421 148.9 315.467C149.34 315.538 149.662 315.533 149.934 315.376C150.205 315.22 150.371 314.943 150.455 314.46C150.527 314.02 150.49 313.643 150.291 313.36C150.091 313.077 149.814 312.911 149.386 312.796C148.946 312.724 148.646 312.644 148.506 312.652L148.012 315.183L148.257 315.294Z" fill="#313131"/>
<path d="M143.488 314.246L144.924 314.539L145.598 312.883L146.154 313.032L145.483 315.194L140.395 313.968L140.809 311.738L141.323 311.876L141.163 313.669L142.577 314.048L143.783 308.862L142.638 308.509L142.741 308.124L145.891 308.876L145.788 309.261L144.682 309.103L143.488 314.246Z" fill="#313131"/>
<path d="M138.078 307.196C138.437 307.567 138.634 308.033 138.721 308.562C138.809 309.09 138.746 309.67 138.574 310.313C138.413 310.912 138.092 311.423 137.721 311.783C137.337 312.185 136.86 312.424 136.363 312.567C135.823 312.697 135.329 312.657 134.772 312.507C134.344 312.393 133.895 312.181 133.33 311.892L133.085 311.78L133.603 310.358L134.16 310.507L134.056 311.581C134.119 311.69 134.236 311.767 134.396 311.856C134.556 311.944 134.801 312.056 135.058 312.125C135.401 312.217 135.723 312.212 136.069 312.121C136.372 312.018 136.709 311.787 136.941 311.436C137.216 311.096 137.428 310.648 137.566 310.134C137.703 309.62 137.787 309.138 137.773 308.675C137.759 308.212 137.637 307.812 137.449 307.486C137.261 307.16 136.952 306.94 136.524 306.825C136.224 306.745 136.01 306.687 135.827 306.684C135.644 306.681 135.493 306.733 135.384 306.795L134.835 307.474L134.344 307.251L134.868 306.152C134.997 306.186 135.179 306.189 135.405 306.204C135.631 306.219 135.813 306.222 135.996 306.225C136.179 306.228 136.436 306.297 136.693 306.365C137.25 306.515 137.73 306.781 138.078 307.196Z" fill="#313131"/>
<path d="M129.766 310.799L129.912 310.425L130.737 310.6L132.128 306.611L131.147 307.359L127.897 309.38L127.839 309.594L128.533 309.918L128.387 310.292L126.205 309.524L126.352 309.15L127.006 309.279L128.703 304.316L128.052 304.004L128.198 303.63L130.422 304.41L130.276 304.784L129.536 304.632L128.135 308.663L129.061 307.947L132.408 305.906L132.489 305.606L131.752 305.271L131.898 304.897L134.123 305.677L133.976 306.051L133.28 305.91L131.583 310.873L132.191 311.173L132.045 311.547L129.766 310.799Z" fill="#313131"/>
<path d="M121.161 307.621L121.906 305.525L122.451 305.717L122.047 307.399L123.734 308.127L125.699 303.19L124.355 302.554L124.501 302.18L127.579 303.372L127.433 303.746L126.533 303.505L124.633 308.368L125.433 308.811L125.287 309.185L121.161 307.621Z" fill="#313131"/>
<path d="M120.017 306.58L120.559 306.955L120.413 307.329L118.32 306.401L118.467 306.027L119.152 306.21L120.068 304.16L117.356 302.975L116.44 305.024L117.025 305.411L116.879 305.785L114.829 304.868L114.975 304.494L115.617 304.666L117.731 299.861L117.135 299.518L117.281 299.144L119.331 300.06L119.184 300.435L118.511 300.208L117.494 302.461L120.206 303.646L121.223 301.394L120.583 301.039L120.73 300.665L122.865 301.604L122.719 301.978L122.088 301.763L120.017 306.58Z" fill="#313131"/>
<path d="M112.034 303.477L111.223 303.076L111.993 296.947L111.568 296.649L111.757 296.287L113.741 297.277L113.552 297.64L112.878 297.413L112.674 298.69L114.86 299.781L115.759 298.828L115.131 298.43L115.32 298.067L117.101 298.958L116.912 299.321L116.409 299.14L112.034 303.477ZM112.144 302.037L111.992 302.777L112.518 302.183L114.489 300.14L112.59 299.173L112.144 302.037Z" fill="#313131"/>
<path d="M108.739 297.268C109.222 296.663 109.66 296.23 110.051 295.967C110.269 295.842 110.42 295.791 110.614 295.751C110.797 295.754 110.969 295.8 111.171 295.9C111.417 296.012 111.565 296.144 111.682 296.221L111.424 296.84C111.307 296.763 111.147 296.674 110.871 296.508C110.796 296.443 110.711 296.42 110.614 296.439C110.516 296.459 110.419 296.479 110.311 296.542C109.616 296.907 108.769 298.011 107.739 299.801L107.395 300.398L108.203 300.981L108.014 301.344L103.784 298.971L103.973 298.608L104.721 298.9L107.283 294.307L106.58 293.844L106.769 293.481L109.05 294.735L108.861 295.098L108.082 294.751L105.531 299.301L107.013 300.111L107.379 299.429C107.78 298.618 108.255 297.873 108.739 297.268Z" fill="#313131"/>
<path d="M96.0976 294.248L96.3293 293.897L97.0659 294.232L99.862 289.794L99.257 289.31L99.4888 288.959L101.564 290.296L101.332 290.647L100.638 290.323L97.8422 294.762L98.4472 295.245L98.2154 295.596L96.0976 294.248ZM101.872 294.969C101.287 294.583 100.939 294.168 100.786 293.714C100.632 293.26 100.715 292.777 101.036 292.266C101.368 291.712 101.814 291.419 102.342 291.331C102.871 291.243 103.428 291.392 104.024 291.736C104.099 291.801 104.184 291.824 104.258 291.89C104.333 291.956 104.407 292.022 104.493 292.045C104.758 292.253 104.992 292.408 105.183 292.551L106.162 293.181L105.93 293.532L105.279 293.22L102.483 297.658L103.003 298.119L102.771 298.47L100.727 297.187L100.959 296.836L101.738 297.183L102.777 295.533L101.872 294.969ZM104.281 292.493C104.206 292.427 104.089 292.35 103.887 292.25C103.493 292.006 103.107 291.903 102.762 291.994C102.416 292.085 102.121 292.327 101.824 292.753C101.58 293.147 101.489 293.489 101.58 293.835C101.671 294.181 101.913 294.475 102.307 294.719L103.052 295.194L104.566 292.799C104.472 292.636 104.398 292.57 104.281 292.493Z" fill="#313131"/>
<path d="M93.1953 291.543L93.6603 292.034L93.4285 292.385L91.5906 291.021L91.8223 290.67L92.4618 291.025L93.8265 289.187L91.4463 287.447L90.0816 289.285L90.5466 289.777L90.3148 290.128L88.5197 288.775L88.7515 288.424L89.3595 288.724L92.4639 284.506L91.9874 284.057L92.2192 283.706L94.0571 285.071L93.8253 285.422L93.2287 285.078L91.7867 287.033L94.1669 288.773L95.6089 286.818L95.0583 286.303L95.29 285.952L97.1708 287.328L96.939 287.679L96.3424 287.336L93.1953 291.543Z" fill="#313131"/>
<path d="M86.0571 286.829L85.3465 286.226L87.413 280.398L87.065 279.984L87.3282 279.687L89.069 281.071L88.7943 281.411L88.2092 281.025L87.7479 282.232L89.6684 283.803L90.7776 283.09L90.2697 282.587L90.5329 282.29L92.0825 283.532L91.8193 283.828L91.3398 283.562L86.0571 286.829ZM86.51 285.482L86.2292 286.187L86.8611 285.713L89.211 284.139L87.5559 282.778L86.51 285.482Z" fill="#313131"/>
<path d="M81.0521 281.862L81.6425 282.571L81.3794 282.868L79.7273 281.323L81.4227 277.737L81.9551 276.778L81.0517 277.408L77.6301 279.384L76.0094 277.894L76.2726 277.597L77.0374 278.169L80.1104 273.897L79.6255 273.308L79.8887 273.011L81.6463 274.675L81.3831 274.972L80.7666 274.532L78.4893 277.548L77.4994 278.844L78.5856 278.217L82.6359 275.951L83.0382 276.334L81.3054 280.231L80.5809 281.735L81.7934 280.637L84.6329 278.093L84.0624 277.481L84.3255 277.184L85.9462 278.674L85.683 278.971L85.1094 278.542L81.0521 281.862Z" fill="#313131"/>
<path d="M73.6929 275.574L73.0482 274.897L75.8084 269.393L75.5147 268.947L75.8207 268.661L77.3641 270.269L77.0582 270.554L76.4845 270.125L75.8519 271.286L77.5865 273.037L78.7584 272.433L78.3163 271.855L78.6223 271.57L80.0288 273.002L79.7228 273.288L79.2976 272.99L73.6929 275.574ZM74.3172 274.273L73.9508 274.955L74.6453 274.59L77.1948 273.299L75.6828 271.746L74.3172 274.273Z" fill="#313131"/>
<path d="M70.8954 271.795L71.2518 272.349L70.9458 272.635L70.207 271.794C70.0586 271.662 69.9217 271.488 69.7733 271.356C69.5507 271.159 69.3396 270.919 69.1599 270.733C68.6322 270.132 68.3614 269.601 68.3477 269.138C68.334 268.675 68.5773 268.281 69.0148 267.848C69.3636 267.574 69.701 267.343 70.0781 267.306C70.4667 267.227 70.8636 267.287 71.2377 267.433C71.6117 267.579 71.9513 267.854 72.2679 268.214C72.3735 268.335 72.479 268.455 72.5846 268.575C72.6901 268.695 72.7528 268.803 72.7956 268.815L74.1825 267.58L73.4666 266.653L73.7726 266.368L75.6097 268.421L75.3038 268.706L74.7844 268.246L70.8954 271.795ZM71.9505 268.543C71.6652 268.237 71.3026 268.048 70.9485 267.999C70.5943 267.95 70.1285 268.146 69.6909 268.58C69.3306 268.896 69.1532 269.216 69.1585 269.539C69.1638 269.862 69.3405 270.23 69.6571 270.591C69.7626 270.711 69.911 270.842 70.0594 270.974C70.1336 271.04 70.2078 271.106 70.2391 271.16L72.4667 269.186C72.3612 269.066 72.1929 268.837 71.9505 268.543Z" fill="#313131"/>
<path d="M71.0313 263.751C71.1193 264.28 71.0358 264.762 70.7696 265.242C70.5462 265.733 70.1515 266.178 69.6711 266.6C69.1907 267.022 68.6706 267.25 68.142 267.338C67.6134 267.426 67.065 267.417 66.574 267.194C66.0714 267.013 65.6462 266.715 65.2668 266.246C64.993 265.898 64.6994 265.452 64.4286 264.92L64.3147 264.66L65.524 263.745L65.872 264.159L65.1912 264.987C65.2111 265.084 65.2195 265.224 65.3021 265.43C65.3962 265.593 65.5216 265.81 65.6898 266.038C65.9323 266.333 66.2092 266.499 66.5518 266.591C66.8945 266.683 67.2716 266.646 67.6717 266.524C68.0717 266.401 68.5062 266.15 68.9208 265.802C69.3354 265.454 69.6529 265.126 69.8961 264.732C70.1394 264.338 70.2855 263.964 70.2917 263.599C70.2978 263.233 70.164 262.876 69.9331 262.539C69.7648 262.31 69.5736 262.167 69.4252 262.035C69.2768 261.904 69.1483 261.869 69.0083 261.878L68.1539 262.154L67.8602 261.708L68.8921 261.112C68.9663 261.178 69.1147 261.309 69.3059 261.452C69.4971 261.595 69.657 261.684 69.8054 261.816C69.9537 261.947 70.0906 262.122 70.3132 262.319C70.7469 262.757 70.9862 263.234 71.0313 263.751Z" fill="#313131"/>
<path d="M57.2955 255.388L57.6328 255.157L58.1491 255.8L61.6739 253.439L60.4371 253.429L56.6356 253.053L56.4611 253.19L56.7831 253.873L56.4458 254.104L55.177 252.158L55.5143 251.927L55.9793 252.419L60.3418 249.502L60.0084 248.861L60.3457 248.63L61.6573 250.589L61.32 250.82L60.8351 250.231L57.2559 252.623L58.4071 252.61L62.2943 253.009L62.5658 252.852L62.201 252.157L62.5384 251.927L63.85 253.885L63.5127 254.116L63.0591 253.581L58.6967 256.498L58.9873 257.127L58.6499 257.358L57.2955 255.388Z" fill="#313131"/>
<path d="M54.3106 250.594C54.1308 250.408 53.9939 250.234 53.8455 250.102C53.6972 249.971 53.6459 249.819 53.5404 249.699C53.1955 249.102 53.0104 248.593 52.9967 248.13C52.9829 247.668 53.2033 247.359 53.6377 247.108C54.0179 246.889 54.4065 246.809 54.792 246.913C55.1775 247.016 55.4857 247.236 55.771 247.542C55.5202 247.108 55.4093 246.665 55.5126 246.279C55.6159 245.894 55.8362 245.586 56.1735 245.355C56.6738 245.03 57.2024 244.942 57.662 245.111C58.1217 245.28 58.5669 245.675 59.0173 246.392C59.1741 246.664 59.3309 246.935 59.402 247.184C59.4731 247.432 59.5557 247.638 59.607 247.79C59.6582 247.941 59.6781 248.038 59.6666 248.081L58.3547 248.694L58.1353 248.314L58.9331 247.563C58.9278 247.24 58.794 246.883 58.5316 246.492C58.3435 246.166 58.0781 245.957 57.8096 245.931C57.5411 245.905 57.1526 245.984 56.7724 246.204C56.4894 246.403 56.292 246.626 56.1688 246.914C56.0885 247.214 56.168 247.603 56.4303 247.994L56.7554 248.495L56.3637 248.757L56.1128 248.323C55.9874 248.105 55.839 247.974 55.6478 247.831C55.4566 247.688 55.2425 247.63 55.0168 247.616C54.7912 247.601 54.5426 247.672 54.271 247.829C53.9452 248.017 53.7906 248.251 53.7218 248.508C53.6957 248.777 53.7554 249.068 53.9435 249.394C54.0689 249.611 54.2058 249.786 54.3657 249.874C54.5141 250.006 54.6426 250.04 54.7397 250.02L55.497 249.764L55.7907 250.21L54.7243 250.935C54.6387 250.912 54.5331 250.791 54.3106 250.594Z" fill="#313131"/>
<path d="M50.9991 244.106L51.2354 244.766L50.8667 244.943L50.3137 243.922C50.2197 243.759 50.0942 243.542 49.926 243.313C49.7577 243.085 49.6637 242.922 49.6009 242.813C49.2361 242.119 49.1054 241.579 49.123 241.17C49.1835 240.773 49.4038 240.465 49.8383 240.214C50.207 240.037 50.5527 239.946 50.8954 240.038C51.2495 240.087 51.5578 240.308 51.8002 240.602C51.5608 240.125 51.45 239.682 51.5533 239.296C51.6566 238.911 51.8769 238.603 52.2999 238.395C52.7887 238.112 53.3058 238.067 53.7968 238.291C54.2993 238.471 54.7643 238.963 55.2232 239.821C55.3173 239.984 55.3999 240.189 55.4939 240.352C55.6706 240.721 55.7846 240.981 55.8587 241.047L56.3803 242.013L56.0116 242.19L55.6124 241.624L50.9991 244.106ZM52.3501 241.805L52.1421 241.382C51.9539 241.056 51.7428 240.816 51.443 240.736C51.1432 240.656 50.8517 240.715 50.483 240.892C50.1572 241.08 49.917 241.291 49.8481 241.548C49.7793 241.805 49.8702 242.151 50.0783 242.574C50.1723 242.737 50.2977 242.954 50.3918 243.117L50.4859 243.28L52.5696 242.185C52.5696 242.185 52.4755 242.023 52.3501 241.805ZM54.8973 240.009C54.6151 239.52 54.3299 239.214 53.9987 239.079C53.6675 238.945 53.3332 238.993 52.953 239.212C52.5729 239.432 52.3327 239.643 52.2952 239.954C52.2577 240.266 52.3058 240.6 52.5567 241.034C52.8389 241.523 52.9842 241.837 53.0783 242L55.282 240.8C55.2193 240.692 55.1054 240.432 54.8973 240.009Z" fill="#313131"/>
<path d="M47.1679 237.846L46.7518 237L51.0846 232.652L50.9424 232.154L51.3111 231.978L52.2885 233.984L51.9198 234.161L51.532 233.552L50.5598 234.439L51.6197 236.651L52.9139 236.447L52.6891 235.744L53.0578 235.568L53.9098 237.357L53.5411 237.533L53.2474 237.087L47.1679 237.846ZM48.1432 236.776L47.5427 237.303L48.3199 237.144L51.134 236.751L50.188 234.799L48.1432 236.776Z" fill="#313131"/>
<path d="M50.4923 230.748C50.4089 231.231 50.1855 231.722 49.8566 232.093C49.5277 232.464 49.0159 232.832 48.4415 233.091C47.867 233.35 47.2956 233.427 46.7586 233.375C46.2217 233.323 45.7192 233.142 45.2939 232.845C44.8686 232.547 44.5321 232.09 44.3042 231.569C44.139 231.158 43.9968 230.661 43.8775 230.078L43.8179 229.786L45.2468 229.251L45.4747 229.771L44.5713 230.401C44.5483 230.487 44.5453 230.67 44.585 230.864C44.6248 231.059 44.6959 231.307 44.8098 231.567C44.9551 231.882 45.1547 232.165 45.4745 232.342C45.7942 232.52 46.1368 232.611 46.5568 232.586C46.9767 232.561 47.4624 232.462 47.9826 232.234C48.4484 232.037 48.8829 231.786 49.2432 231.47C49.6035 231.153 49.8238 230.845 49.9271 230.459C50.0732 230.085 50.0366 229.708 49.8599 229.339C49.746 229.079 49.6205 228.862 49.515 228.742C49.4094 228.622 49.3039 228.502 49.1326 228.456L48.2185 228.441L48.0763 227.943L49.2535 227.662C49.3162 227.771 49.4103 227.934 49.5472 228.108C49.6841 228.282 49.8324 228.414 49.9265 228.577C50.0206 228.74 50.146 228.957 50.2599 229.217C50.4878 229.737 50.5758 230.266 50.4923 230.748Z" fill="#313131"/>
<path d="M43.1952 225.258C42.7126 225.175 42.2644 224.963 41.9248 224.688C41.5852 224.413 41.3228 224.022 41.1691 223.567C40.9841 223.059 40.9275 222.585 41.0538 222.113C41.18 221.642 41.3804 221.237 41.7407 220.92C42.1125 220.561 42.547 220.31 43.11 220.093C43.7701 219.857 44.3415 219.781 44.8899 219.79C45.4269 219.842 45.9294 220.023 46.3118 220.309C46.6943 220.595 46.9994 220.998 47.196 221.464C47.381 221.972 47.4261 222.49 47.3427 222.972C47.2593 223.455 47.016 223.849 46.6442 224.208C46.2725 224.568 45.8265 224.861 45.2635 225.078L45.7476 226.355L48.0424 225.501L47.8719 224.767L48.2719 224.644L49.0634 226.83L48.6633 226.953L48.3299 226.313L43.4374 228.123L43.5766 228.803L43.1765 228.926L42.3736 226.782L42.7736 226.66L43.1071 227.3L45.2504 226.497L44.7663 225.22C44.2263 225.351 43.6664 225.384 43.1952 225.258ZM42.682 224.432C43.2389 224.581 43.9502 224.496 44.8276 224.135C45.5964 223.836 46.1509 223.479 46.5028 223.023C46.8547 222.566 46.9381 222.083 46.7531 221.575C46.568 221.066 46.1856 220.78 45.6716 220.642C45.1576 220.504 44.4347 220.632 43.5689 220.951C42.8001 221.25 42.2455 221.606 41.9051 222.02C41.5532 222.477 41.4813 222.917 41.6663 223.425C41.7971 223.965 42.168 224.294 42.682 224.432Z" fill="#313131"/>
<path d="M42.3865 215.768C42.6068 215.46 42.8929 215.077 43.2876 214.632C43.5508 214.335 43.7481 214.113 43.8912 213.922C44.0228 213.773 44.0572 213.645 44.0801 213.559L44.0748 213.236L44.4749 213.114L44.8022 214.12C44.8649 214.228 44.7647 214.431 44.6216 214.622C44.4671 214.856 44.2039 215.153 43.8321 215.513C43.4374 215.958 43.12 216.286 42.9111 216.551C42.7023 216.817 42.6449 217.031 42.6961 217.182L42.8384 217.679L45.1415 216.965L45.0253 216.2L45.4254 216.077L46.1197 218.283L45.7197 218.406L45.4291 217.777L40.4227 219.328L40.519 219.996L40.1189 220.119L39.4559 217.967L39.856 217.844L40.1466 218.473L42.4498 217.759L42.225 217.056L39.3896 216.159L39.5172 216.881L39.1172 217.004L38.5054 215.004L38.9055 214.881L39.2076 215.467L42.1057 216.473C42.0545 216.322 42.1776 216.033 42.3865 215.768Z" fill="#313131"/>
<path d="M43.7337 211.768C43.5646 212.227 43.2785 212.61 42.8754 212.915C42.4723 213.22 41.9406 213.491 41.3463 213.653C40.7091 213.803 40.1492 213.837 39.6237 213.742C39.0983 213.647 38.6615 213.393 38.2906 213.064C37.9196 212.735 37.6688 212.3 37.538 211.76C37.3048 210.917 37.4028 210.209 37.8434 209.592C38.2726 209.019 38.9358 208.6 39.8759 208.347C40.513 208.196 41.1158 208.174 41.6412 208.269C42.1667 208.364 42.6463 208.63 43.0172 208.959C43.3882 209.288 43.6391 209.722 43.7698 210.262C43.9006 210.802 43.9028 211.308 43.7337 211.768ZM38.9308 212.73C39.4762 212.922 40.1761 212.88 41.0618 212.658C41.8933 212.468 42.4907 212.123 42.874 211.721C43.2572 211.318 43.395 210.804 43.2527 210.307C43.122 209.767 42.751 209.438 42.2057 209.246C41.6603 209.054 40.9176 209.085 40.0318 209.307C39.2003 209.497 38.6029 209.842 38.2197 210.244C37.8364 210.646 37.7102 211.118 37.8409 211.658C38.0688 212.178 38.4283 212.55 38.9308 212.73Z" fill="#313131"/>
<path d="M37.0407 207.449L37.0827 208.149L36.6941 208.229L36.4441 207.106C36.4043 206.911 36.3332 206.663 36.2621 206.414C36.191 206.166 36.1084 205.96 36.1 205.82C35.9409 205.043 35.9502 204.494 36.0963 204.12C36.2424 203.746 36.5798 203.515 37.0227 203.404C37.4112 203.325 37.7654 203.374 38.0966 203.508C38.4163 203.686 38.6702 203.938 38.8469 204.306C38.7161 203.766 38.7337 203.358 38.9227 202.995C39.1117 202.633 39.449 202.402 39.8804 202.334C40.4204 202.203 40.9459 202.298 41.3597 202.638C41.785 202.936 42.1184 203.576 42.2973 204.45C42.3371 204.645 42.3768 204.839 42.3738 205.022C42.4418 205.453 42.5129 205.702 42.5328 205.799L42.7943 206.879L42.4057 206.959L42.1694 206.298L37.0407 207.449ZM38.9538 205.62L38.843 205.178C38.7634 204.789 38.6067 204.517 38.3298 204.351C38.0957 204.197 37.7416 204.148 37.3415 204.27C36.953 204.35 36.6814 204.507 36.5697 204.752C36.458 204.998 36.409 205.352 36.5084 205.837C36.5482 206.032 36.5879 206.226 36.6705 206.432L36.7218 206.583L39.0104 206.095C39.0333 206.009 38.9821 205.858 38.9538 205.62ZM41.8544 204.561C41.7237 204.021 41.547 203.653 41.2388 203.432C40.9734 203.223 40.6192 203.174 40.1763 203.285C39.7449 203.353 39.4619 203.553 39.3502 203.798C39.1957 204.033 39.178 204.441 39.2774 204.927C39.4082 205.467 39.4877 205.855 39.5389 206.007L41.979 205.467C42.0135 205.338 41.9538 205.047 41.8544 204.561Z" fill="#313131"/>
<path d="M34.128 194.503L34.5594 194.435L34.7842 195.138L39.9612 194.321L39.9421 193.536L40.3735 193.468L40.7535 195.819L40.3221 195.887L40.1401 195.196L34.9632 196.012L35.3913 198.698L40.611 197.893L40.592 197.107L41.0234 197.039L41.3605 199.379L40.9291 199.447L40.7356 198.798L35.5587 199.615L35.5464 200.346L35.115 200.414L34.128 194.503Z" fill="#313131"/>
<path d="M39.8213 191.759C39.6209 192.164 39.2491 192.524 38.8146 192.775C38.3802 193.025 37.8286 193.199 37.1716 193.253C36.5145 193.306 35.9347 193.243 35.4322 193.062C34.9297 192.881 34.5044 192.584 34.1993 192.181C33.8941 191.778 33.6976 191.312 33.6525 190.795C33.5592 189.943 33.7544 189.215 34.2577 188.707C34.761 188.199 35.487 187.889 36.4783 187.787C37.1353 187.734 37.7151 187.797 38.2177 187.978C38.7202 188.158 39.1454 188.456 39.4934 188.871C39.7986 189.274 39.9951 189.74 40.0402 190.257C40.1052 190.871 40.0218 191.354 39.8213 191.759ZM34.9336 192.01C35.456 192.288 36.1329 192.332 37.0699 192.261C37.9213 192.168 38.5271 191.963 38.996 191.584C39.4534 191.247 39.6654 190.799 39.5889 190.228C39.5438 189.711 39.2387 189.307 38.7163 189.03C38.1939 188.752 37.4741 188.697 36.5799 188.779C35.7286 188.872 35.0799 189.065 34.6539 189.456C34.1964 189.793 34.0273 190.252 34.1038 190.824C34.1374 191.384 34.4425 191.787 34.9336 192.01Z" fill="#313131"/>
<path d="M37.1588 185.077C37.9214 185.144 38.5326 185.262 38.9379 185.462C39.1406 185.563 39.289 185.694 39.3945 185.814C39.4886 185.977 39.5399 186.129 39.5796 186.323C39.5964 186.603 39.5933 186.786 39.5589 186.914L38.8904 187.01C38.882 186.87 38.8851 186.688 38.8797 186.365C38.8598 186.268 38.84 186.171 38.7658 186.105C38.6916 186.039 38.6174 185.973 38.5004 185.896C37.8181 185.53 36.4329 185.388 34.3761 185.525L33.719 185.579L33.6922 186.536L33.2722 186.561L32.9667 181.705L33.3866 181.679L33.5456 182.457L38.7791 182.114L38.8144 181.297L39.2343 181.272L39.4169 183.846L38.997 183.871L38.8609 183.008L33.6389 183.308L33.7282 185.03L34.471 185C35.525 185.007 36.3962 185.011 37.1588 185.077Z" fill="#313131"/>
<path d="M33.4768 180.143L33.3788 180.851L32.9589 180.876L32.8697 176.583L34.1953 176.433L34.2091 176.896L33.409 177.14L33.395 179.248L35.7517 179.191L35.7105 177.803L35.0022 177.705L34.9885 177.242L36.9252 177.21L36.9389 177.673L36.2161 177.801L36.203 179.22L38.6996 179.155L38.5568 176.775L37.4775 176.348L37.6153 175.834L39.0747 176.042L39.1576 180.701L38.7377 180.726L38.6529 180.015L33.4768 180.143Z" fill="#313131"/>
<path d="M33.3793 173.139L33.409 174.57L35.1568 174.9L35.1476 175.449L32.9026 175.26L33.0232 170.013L35.2827 169.976L35.2735 170.524L33.505 170.785L33.4375 172.236L38.7391 172.325L38.8348 171.111L39.2432 171.129L39.168 174.322L38.7595 174.305L38.6923 173.185L33.3793 173.139Z" fill="#313131"/>
<path d="M36.7268 166.644L36.7092 167.052C36.8033 167.215 36.9516 167.347 37.2285 167.513C37.4626 167.667 37.7823 167.845 38.1877 168.045C38.593 168.246 38.8699 168.412 39.0726 168.512C39.2753 168.612 39.3808 168.732 39.3579 168.818L39.2851 169.946L38.8767 169.929L38.8285 169.594C38.8086 169.497 38.7344 169.431 38.6289 169.311C38.469 169.222 38.2778 169.079 37.9696 168.859C37.607 168.67 37.3416 168.461 37.1076 168.307C36.8736 168.152 36.7366 167.978 36.6426 167.815C36.4965 168.189 36.2876 168.454 35.9503 168.685C35.6244 168.873 35.2787 168.964 34.8274 168.935C34.1504 168.892 33.7022 168.68 33.4514 168.245C33.2005 167.811 33.1241 167.239 33.1792 166.52C33.1823 166.337 33.2282 166.166 33.2542 165.897C33.2803 165.629 33.3377 165.414 33.3293 165.274L33.425 164.061L33.8334 164.078L33.8754 164.778L39.1081 165.124L39.229 164.33L39.6375 164.348L39.4774 166.83L39.0689 166.812L39.0614 165.984L36.8049 165.838L36.7268 166.644ZM33.6742 165.872C33.6053 166.129 33.5908 166.354 33.5877 166.537C33.5586 166.989 33.6067 167.323 33.8178 167.563C34.0289 167.803 34.3173 167.926 34.8114 167.967C35.2627 167.996 35.6084 167.905 35.8915 167.705C36.1745 167.506 36.2663 167.163 36.3382 166.723C36.3674 166.272 36.3934 166.004 36.3536 165.809L33.7859 165.626L33.6742 165.872Z" fill="#313131"/>
<path d="M34.0995 161.028L33.9892 162.467L35.7026 162.927L35.6505 163.464L33.4086 163.092L33.9804 157.874L36.2369 158.02L36.1848 158.557L34.4194 158.635L34.212 160.094L39.473 160.677L39.6972 159.498L40.0942 159.558L39.739 162.769L39.342 162.708L39.3604 161.611L34.0995 161.028Z" fill="#313131"/>
<path d="M40.4658 154.746C40.1369 155.116 39.6909 155.41 39.1937 155.552C38.6965 155.695 38.0938 155.717 37.4826 155.599C36.8715 155.481 36.3261 155.289 35.9123 154.949C35.4985 154.608 35.1506 154.194 34.9655 153.685C34.7804 153.176 34.7353 152.659 34.8417 152.091C34.9137 151.651 35.0514 151.137 35.2863 150.603L35.398 150.358L36.8772 150.662L36.7709 151.23L35.6625 151.255C35.5967 151.329 35.5195 151.446 35.4193 151.649C35.3305 151.809 35.2617 152.066 35.2356 152.334C35.1866 152.688 35.2348 153.023 35.3801 153.337C35.5254 153.651 35.7793 153.903 36.1732 154.146C36.5243 154.378 36.9955 154.504 37.5638 154.611C38.0893 154.706 38.552 154.692 39.0263 154.635C39.4577 154.567 39.8692 154.402 40.1637 154.16C40.4582 153.917 40.6357 153.597 40.7077 153.158C40.7452 152.846 40.7597 152.621 40.7513 152.481C40.7429 152.341 40.6917 152.189 40.5976 152.026L39.8526 151.551L39.9904 151.037L41.1239 151.433C41.0895 151.561 41.1407 151.713 41.169 151.95C41.2087 152.144 41.1942 152.37 41.234 152.564C41.2737 152.758 41.2163 152.973 41.1788 153.284C41.0296 153.841 40.8062 154.332 40.4658 154.746Z" fill="#313131"/>
<path d="M35.8536 146.945L36.2505 147.005L36.1725 147.811L40.299 148.687L39.4317 147.812L37.0187 144.824L36.8045 144.766L36.5666 145.483L36.1696 145.423L36.6379 143.161L37.0349 143.221L36.9912 143.898L42.1144 144.995L42.3409 144.322L42.7264 144.425L42.2466 146.73L41.8611 146.626L41.9277 145.864L37.7155 144.965L38.5515 145.785L40.9958 148.828L41.2957 148.908L41.5451 148.148L41.9421 148.209L41.4623 150.513L41.0653 150.453L41.1204 149.733L35.9972 148.636L35.7822 149.267L35.3853 149.206L35.8536 146.945Z" fill="#313131"/>
<path d="M37.9175 138.041L40.0821 138.529L39.9329 139.086L38.2364 138.906L37.7115 140.694L42.8745 141.986L43.3389 140.595L43.7244 140.698L42.9179 143.879L42.5324 143.776L42.6878 142.854L37.6105 141.585L37.2952 142.419L36.9097 142.315L37.9175 138.041Z" fill="#313131"/>
<path d="M38.8106 136.765L38.5099 137.373L38.1244 137.27L38.8069 135.065L39.1924 135.169L39.0944 135.877L41.256 136.548L42.1106 133.701L39.949 133.03L39.6484 133.638L39.2629 133.535L39.9339 131.373L40.3194 131.476L40.2329 132.142L45.2414 133.668L45.4992 133.048L45.8847 133.151L45.2137 135.313L44.8282 135.21L44.969 134.513L42.6361 133.796L41.7814 136.643L44.1143 137.36L44.3836 136.697L44.7691 136.801L44.0866 139.005L43.7011 138.902L43.8305 138.248L38.8106 136.765Z" fill="#313131"/>
<path d="M40.8541 128.452L41.1808 127.576L47.3336 127.571L47.5998 127.092L47.9739 127.238L47.2287 129.334L46.8547 129.188L46.9955 128.491L45.6729 128.458L44.8704 130.768L45.9006 131.549L46.2128 130.898L46.5868 131.044L45.9418 132.937L45.5678 132.791L45.6627 132.266L40.8541 128.452ZM42.328 128.434L41.5654 128.367L42.2247 128.819L44.4765 130.525L45.1987 128.514L42.328 128.434Z" fill="#313131"/>
<path d="M46.6658 124.409C47.3366 124.818 47.836 125.181 48.1098 125.53C48.2467 125.704 48.3293 125.91 48.3805 126.062C48.4203 126.256 48.3744 126.427 48.3285 126.599C48.2168 126.844 48.128 127.004 48.0508 127.121L47.4198 126.906C47.497 126.789 47.5544 126.575 47.6661 126.329C47.6891 126.244 47.7235 126.115 47.6921 126.061C47.6723 125.964 47.6095 125.855 47.5468 125.746C47.0734 125.115 45.8917 124.385 43.9788 123.643L43.3592 123.385L42.904 124.227L42.53 124.081L44.3378 119.561L44.7119 119.707L44.5053 120.478L49.3561 122.421L49.734 121.696L50.1081 121.842L49.1425 124.246L48.7685 124.1L48.9981 123.243L44.1472 121.301L43.4969 122.871L44.2021 123.152C45.1728 123.641 45.995 123.999 46.6658 124.409Z" fill="#313131"/>
<path d="M48.0231 117.289C48.3238 116.681 48.6642 116.267 49.13 116.07C49.5959 115.874 50.0471 115.903 50.581 116.138C51.1463 116.427 51.5486 116.81 51.6793 117.35C51.8216 117.847 51.758 118.427 51.4574 119.035C51.4344 119.121 51.3686 119.195 51.3457 119.281C51.2799 119.355 51.2569 119.441 51.1796 119.558C51.0136 119.835 50.9019 120.08 50.7902 120.326L50.332 121.351L49.9694 121.162L50.1959 120.488L45.4254 118.245L45.0391 118.831L44.6765 118.642L45.6703 116.475L46.0329 116.664L45.772 117.466L47.522 118.302L48.0231 117.289ZM48.0244 111.459L48.3869 111.648L48.1375 112.407L52.8652 114.638L53.2744 113.967L53.637 114.156L52.5774 116.397L52.2149 116.208L52.4643 115.449L47.7366 113.218L47.3273 113.889L46.9648 113.7L48.0244 111.459ZM50.8056 119.412C50.8714 119.337 50.9173 119.166 51.0061 119.006C51.2065 118.601 51.2241 118.192 51.0903 117.835C50.9565 117.478 50.6597 117.215 50.2115 117.003C49.8061 116.802 49.3977 116.785 49.0948 116.887C48.7804 117.033 48.5287 117.287 48.3283 117.692L47.9817 118.471L50.554 119.666C50.6626 119.603 50.7398 119.486 50.8056 119.412Z" fill="#313131"/>
<path d="M50.3045 108.26L49.8869 108.79L49.5243 108.601L50.655 106.609L51.0176 106.798L50.7483 107.46L52.7522 108.548L54.1836 105.948L52.1796 104.86L51.7619 105.391L51.3994 105.202L52.4758 103.24L52.8383 103.429L52.6233 104.06L57.2163 106.622L57.634 106.092L57.9966 106.281L56.9087 108.285L56.5461 108.096L56.8154 107.433L54.6516 106.257L53.2203 108.857L55.3841 110.034L55.8247 109.417L56.1873 109.606L55.0451 111.642L54.6826 111.453L54.9404 110.833L50.3045 108.26Z" fill="#313131"/>
<path d="M54.1017 100.6L54.5882 99.8122L60.611 101.15L60.9514 100.737L61.3025 100.969L60.109 102.852L59.758 102.621L60.0701 101.97L58.7851 101.625L57.4915 103.712L58.3244 104.716L58.7964 104.153L59.1474 104.385L58.0971 106.078L57.746 105.846L57.9694 105.355L54.1017 100.6ZM55.4953 100.882L54.7672 100.686L55.3064 101.244L57.1634 103.394L58.291 101.585L55.4953 100.882Z" fill="#313131"/>
<path d="M58.413 94.9608L57.8094 95.6714L57.4583 95.4396L58.7688 93.633L62.5236 94.8686L63.56 95.2841L62.8211 94.4434L60.4112 91.2727L61.7216 89.4661L62.0727 89.6979L61.629 90.4972L66.2878 92.985L66.8026 92.4343L67.1537 92.6661L65.7002 94.6639L65.3491 94.4321L65.7156 93.7499L62.4129 91.8549L60.9742 91.0563L61.7643 92.0484L64.5306 95.7737L64.2215 96.2418L60.1439 95.0115L58.5392 94.4897L59.7691 95.5538L62.6426 98.0223L63.1804 97.386L63.5315 97.6178L62.2753 99.393L61.9243 99.1612L62.2792 98.5218L58.413 94.9608Z" fill="#313131"/>
<path d="M63.6899 86.9177L64.2506 86.1957L70.0897 88.2194L70.4615 87.8599L70.8011 88.1345L69.4164 89.8753L69.0769 89.6007L69.4632 89.0156L68.2554 88.5542L66.7278 90.4862L67.452 91.5526L67.9554 91.0447L68.295 91.3194L67.0534 92.8689L66.7138 92.5943L66.98 92.1147L63.6899 86.9177ZM65.0491 87.3278L64.3439 87.047L64.8173 87.6789L66.3912 90.0288L67.7101 88.3622L65.0491 87.3278Z" fill="#313131"/>
<path d="M67.0899 83.6512L66.5667 84.0619L66.2271 83.7872L66.9623 82.9283C67.0938 82.7799 67.2254 82.6316 67.3142 82.4717C67.5115 82.2491 67.6661 82.0151 67.8634 81.7925C68.3897 81.199 68.9015 80.8311 69.3329 80.7631C69.7643 80.695 70.224 80.8641 70.6691 81.2589C71.0087 81.5335 71.2397 81.8708 71.362 82.2709C71.4844 82.6709 71.4782 83.0366 71.3749 83.4221C71.2716 83.8076 71.0712 84.2129 70.7537 84.5411C70.6336 84.6466 70.5449 84.8065 70.4248 84.912C70.3047 85.0175 70.2389 85.0917 70.2274 85.1346L71.6485 86.3417L72.4579 85.5486L72.7546 85.8117L70.9554 87.9005L70.6586 87.6374L71.045 87.0522L67.0899 83.6512ZM70.457 84.2779C70.7316 83.9383 70.8777 83.5643 70.8411 83.1872C70.8044 82.8101 70.5849 82.4299 70.1084 81.9809C69.7374 81.6519 69.4063 81.5173 69.072 81.5654C68.7377 81.6136 68.4547 81.8132 68.0714 82.2155C67.9399 82.3639 67.8511 82.5238 67.7195 82.6721C67.6423 82.7892 67.588 82.8205 67.5765 82.8634L69.8565 84.8056C70.0079 84.7544 70.1938 84.5747 70.457 84.2779Z" fill="#313131"/>
<path d="M75.1291 82.7752C74.6319 82.9174 74.1377 82.8768 73.6237 82.7391C73.1212 82.5585 72.6416 82.2923 72.1652 81.8432C71.7315 81.4057 71.395 80.9482 71.2214 80.3967C71.0363 79.8881 71.0456 79.3396 71.1404 78.8142C71.2782 78.3002 71.5016 77.8091 71.9276 77.4183C72.2451 77.0902 72.6054 76.7735 73.16 76.4171L73.3887 76.2489L74.4243 77.3527L74.041 77.755L73.0934 77.1797C72.9962 77.1996 72.8448 77.2508 72.6818 77.3449C72.5189 77.439 72.333 77.6187 72.1471 77.7985C71.8955 78.0524 71.7608 78.3836 71.7233 78.6949C71.6743 79.049 71.7653 79.3948 71.9305 79.8063C72.1072 80.175 72.4123 80.5781 72.8146 80.9614C73.1741 81.3331 73.6108 81.5879 74.0162 81.7883C74.4216 81.9888 74.8186 82.0492 75.1957 82.0125C75.5728 81.9759 75.8986 81.7877 76.2046 81.5024C76.402 81.2799 76.545 81.0887 76.6223 80.9716C76.6996 80.8546 76.7455 80.6833 76.7371 80.5433L76.3639 79.7088L76.7785 79.3608L77.5257 80.3414C77.4599 80.4156 77.3712 80.5755 77.2595 80.821C77.1593 81.0237 77.0705 81.1836 76.9818 81.3434C76.893 81.5033 76.75 81.6945 76.5526 81.9171C76.0722 82.3392 75.5834 82.6214 75.1291 82.7752Z" fill="#313131"/>
<path d="M80.1185 69.467L80.4038 69.773L79.866 70.4093L82.6958 73.5549L82.5231 72.3149L82.3505 68.5042L82.2136 68.3298L81.5933 68.7604L81.308 68.4544L83.0552 66.9025L83.3404 67.2085L82.9227 67.7393L86.4172 71.6598L86.9833 71.2605L87.2686 71.5665L85.5214 73.1183L85.2361 72.8124L85.751 72.2617L82.8897 69.0618L83.0855 70.2161L83.235 74.1125L83.4461 74.3527L84.078 73.8793L84.3633 74.1853L82.6046 75.7799L82.3193 75.474L82.7799 74.9546L79.2854 71.0342L78.7308 71.3906L78.4455 71.0846L80.1185 69.467Z" fill="#313131"/>
<path d="M84.4821 65.8618C84.6252 65.6706 84.7682 65.4794 84.8998 65.331C85.0314 65.1826 85.1515 65.0771 85.2716 64.9715C85.8063 64.518 86.3264 64.2901 86.7578 64.2221C87.1893 64.154 87.5518 64.343 87.8684 64.7033C88.1422 65.0521 88.2761 65.4093 88.2156 65.8063C88.1552 66.2033 88.0205 66.5345 87.7459 66.8741C88.149 66.5689 88.5605 66.4037 88.9575 66.4642C89.366 66.4818 89.6857 66.6593 89.9595 67.0081C90.3388 67.477 90.4811 67.9742 90.3976 68.4569C90.3142 68.9395 89.9509 69.439 89.3075 69.9552C89.0673 70.1663 88.7958 70.3231 88.5785 70.4485C88.3613 70.5739 88.1555 70.6565 88.0041 70.7078C87.8526 70.759 87.7555 70.7789 87.744 70.8217L86.9257 69.5925L87.2745 69.3187L88.1449 70.011C88.4363 69.9513 88.805 69.7747 89.1653 69.458C89.4598 69.2156 89.6258 68.9387 89.609 68.6587C89.6037 68.336 89.5012 68.033 89.1846 67.6727C88.985 67.3897 88.7081 67.2237 88.3968 67.1862C88.0855 67.1487 87.7282 67.2825 87.3251 67.5877L86.8562 67.967L86.5396 67.6067L86.8999 67.2901C87.0743 67.1532 87.2173 66.962 87.3175 66.7593C87.4177 66.5566 87.4751 66.3424 87.4469 66.1053C87.4186 65.8682 87.2932 65.651 87.1249 65.4222C86.8824 65.1277 86.6484 64.9732 86.3684 64.99C86.0885 65.0068 85.8284 65.1208 85.5454 65.3204C85.3595 65.5001 85.2279 65.6485 85.0963 65.7969C84.9648 65.9452 84.9732 66.0852 84.993 66.1824L85.3579 66.8769L84.9432 67.2249L84.056 66.2527C84.1647 66.1899 84.2962 66.0416 84.4821 65.8618Z" fill="#313131"/>
<path d="M90.4259 61.6699L89.7857 62.0033L89.5547 61.666L90.4696 60.993C90.6325 60.8989 90.8184 60.7191 91.0471 60.5509C91.233 60.3712 91.4074 60.2343 91.516 60.1715C92.1479 59.6981 92.668 59.4702 93.0765 59.4879C93.4849 59.5055 93.8475 59.6944 94.1213 60.0433C94.3523 60.3806 94.4432 60.7264 94.4371 61.092C94.4309 61.4576 94.2535 61.7773 93.9903 62.0741C94.4049 61.7261 94.8478 61.6152 95.2563 61.6328C95.6647 61.6505 96.0158 61.8822 96.2468 62.2196C96.5833 62.677 96.6827 63.1628 96.5878 63.6882C96.4929 64.2137 96.0324 64.733 95.2804 65.312C95.106 65.4489 94.9431 65.543 94.7801 65.637C94.4 65.8565 94.2141 66.0363 94.1169 66.0562L93.2021 66.7292L92.9711 66.3918L93.463 65.9268L90.4259 61.6699ZM92.8613 62.6897L93.2529 62.4274C93.5903 62.1964 93.7563 61.9195 93.7823 61.6511C93.8083 61.3826 93.7173 61.0368 93.4864 60.6995C93.2554 60.3622 93.0213 60.2076 92.7529 60.1816C92.4844 60.1556 92.1272 60.2894 91.7783 60.5632C91.6039 60.7001 91.441 60.7942 91.3094 60.9425L91.1893 61.0481L92.5668 62.9322C92.5239 62.9207 92.6869 62.8266 92.8613 62.6897ZM95.0181 64.9204C95.4755 64.5838 95.7502 64.2442 95.7991 63.8901C95.8481 63.5359 95.7571 63.1902 95.5262 62.8529C95.2524 62.504 94.987 62.2952 94.7185 62.2692C94.4072 62.2317 94.0928 62.377 93.6896 62.6821C93.2322 63.0187 92.9492 63.2183 92.8291 63.3238L94.3006 65.3708C94.3977 65.3509 94.6264 65.1827 95.0181 64.9204Z" fill="#313131"/>
<path d="M96.0869 56.989L96.8702 56.4644L101.799 60.1723L102.276 59.9329L102.507 60.2703L100.658 61.5192L100.427 61.1818L100.961 60.7283L99.9425 59.9044L97.8756 61.2788L98.2312 62.5218L98.8714 62.1883L99.1024 62.5257L97.4272 63.6377L97.1962 63.3003L97.568 62.9409L96.0869 56.989ZM97.2885 57.816L96.6835 57.3325L96.9396 58.0898L97.7219 60.8244L99.5058 59.6497L97.2885 57.816Z" fill="#313131"/>
<path d="M103.557 59.2661C103.051 59.2684 102.591 59.0993 102.112 58.8331C101.687 58.5355 101.296 58.1094 100.939 57.5548C100.626 57.0117 100.452 56.4602 100.407 55.9431C100.362 55.426 100.511 54.8692 100.766 54.4325C101.032 53.9529 101.404 53.5934 101.904 53.2684C102.284 53.0489 102.75 52.8524 103.356 52.6474L103.616 52.5335L104.314 53.8683L103.826 54.1505L103.075 53.3526C102.99 53.3297 102.838 53.3809 102.644 53.4207C102.45 53.4604 102.232 53.5859 102.015 53.7113C101.689 53.8994 101.48 54.1648 101.357 54.4532C101.223 54.7844 101.174 55.1385 101.242 55.5699C101.31 56.0013 101.506 56.4672 101.8 56.9131C102.094 57.3591 102.399 57.7622 102.738 58.0368C103.078 58.3115 103.441 58.5004 103.826 58.6037C104.212 58.707 104.557 58.616 104.937 58.3965C105.209 58.2398 105.383 58.1029 105.461 57.9858C105.581 57.8803 105.67 57.7204 105.704 57.5919L105.579 56.6863L106.057 56.4469L106.489 57.5729C106.381 57.6356 106.261 57.7411 106.118 57.9323C105.986 58.0807 105.855 58.2291 105.68 58.366C105.549 58.5144 105.331 58.6398 105.114 58.7652C104.602 59.1331 104.062 59.2639 103.557 59.2661Z" fill="#313131"/>
<path d="M107.951 51.2617C107.992 50.7675 108.118 50.2964 108.361 49.9025C108.605 49.5086 108.911 49.2233 109.345 48.9724C109.834 48.6902 110.32 48.5908 110.771 48.6199C111.222 48.649 111.682 48.8181 112.053 49.1471C112.424 49.476 112.772 49.8906 113.097 50.3909C113.442 50.9883 113.604 51.5826 113.638 52.1425C113.671 52.7025 113.588 53.1851 113.333 53.6218C113.078 54.0586 112.761 54.3867 112.326 54.6375C111.837 54.9197 111.352 55.0191 110.858 54.9786C110.406 54.9494 109.947 54.7804 109.564 54.4943C109.182 54.2082 108.791 53.7821 108.52 53.2504L107.337 53.8974L108.505 56.0469L109.177 55.7678L109.354 56.1365L107.313 57.2424L107.136 56.8737L107.702 56.4744L105.22 51.8611L104.56 52.0974L104.34 51.7172L106.327 50.6427L106.546 51.0229L105.98 51.4221L107.055 53.4087L108.281 52.7731C108.042 52.2958 107.942 51.8101 107.951 51.2617ZM108.746 50.6942C108.683 51.274 108.865 51.9654 109.335 52.7801C109.743 53.4861 110.153 54.0094 110.676 54.2871C111.198 54.5648 111.649 54.5939 112.181 54.3231C112.658 54.0838 112.913 53.647 112.922 53.0986C112.931 52.5502 112.75 51.8587 112.322 51.0555C111.914 50.3495 111.504 49.8262 111.024 49.56C110.545 49.2938 110.05 49.2532 109.573 49.4926C109.096 49.732 108.81 50.1144 108.746 50.6942Z" fill="#313131"/>
<path d="M117.291 49.1277C117.611 49.3052 118.005 49.5484 118.527 49.8261C118.878 50.0579 119.112 50.2125 119.315 50.3127C119.518 50.4129 119.603 50.4359 119.701 50.416L120.035 50.3678L120.212 50.7365L119.268 51.1724C119.16 51.2351 118.988 51.1892 118.743 51.0775C118.497 50.9658 118.189 50.7455 117.764 50.4479C117.307 50.096 116.913 49.8528 116.636 49.6868C116.36 49.5208 116.134 49.5062 115.983 49.5574L115.505 49.7968L116.534 51.9547L117.237 51.7299L117.413 52.0986L115.31 53.0958L115.133 52.7271L115.731 52.3822L113.508 47.6549L112.86 47.8484L112.683 47.4797L114.732 46.5138L114.909 46.8825L114.3 47.2702L115.317 49.4709L115.957 49.1375L116.469 46.1988L115.766 46.4236L115.59 46.0549L117.476 45.1831L117.653 45.5518L117.098 45.9082L116.477 48.9096C116.66 48.9127 116.96 48.993 117.291 49.1277Z" fill="#313131"/>
<path d="M121.441 49.9182C120.958 49.8348 120.564 49.5915 120.205 49.2197C119.845 48.8479 119.509 48.3905 119.261 47.7732C119.013 47.1559 118.882 46.6159 118.935 46.0789C118.987 45.542 119.113 45.0708 119.41 44.6455C119.708 44.2203 120.111 43.9151 120.577 43.7186C121.4 43.3882 122.088 43.389 122.739 43.7012C123.39 44.0133 123.907 44.6566 124.268 45.534C124.516 46.1513 124.635 46.7342 124.583 47.2711C124.531 47.8081 124.393 48.3221 124.096 48.7473C123.798 49.1726 123.395 49.4778 122.929 49.6743C122.398 49.945 121.923 50.0016 121.441 49.9182ZM119.818 45.3516C119.712 45.9199 119.851 46.5999 120.17 47.4658C120.512 48.246 120.911 48.8121 121.379 49.1211C121.836 49.473 122.33 49.5136 122.85 49.2857C123.358 49.1007 123.656 48.6754 123.762 48.1071C123.869 47.5388 123.741 46.8159 123.368 45.9814C123.026 45.2012 122.627 44.6351 122.159 44.326C121.691 44.017 121.208 43.9336 120.688 44.1615C120.211 44.4008 119.924 44.7833 119.818 45.3516Z" fill="#313131"/>
<path d="M124.757 42.6807L124.077 42.8198L123.955 42.4198L125.027 42.0183C125.221 41.9785 125.438 41.8531 125.698 41.7392C125.958 41.6252 126.121 41.5311 126.261 41.5227C126.976 41.2551 127.547 41.1786 127.933 41.2819C128.318 41.3852 128.615 41.6484 128.769 42.1028C128.902 42.46 128.939 42.8371 128.804 43.1683C128.67 43.4995 128.449 43.8077 128.124 43.9958C128.632 43.8108 129.052 43.7856 129.438 43.8889C129.823 43.9921 130.108 44.2981 130.262 44.7525C130.447 45.2612 130.438 45.8096 130.183 46.2463C129.917 46.7259 129.351 47.1251 128.485 47.444C128.279 47.5266 128.128 47.5779 127.934 47.6176C127.533 47.74 127.273 47.8539 127.176 47.8738L126.105 48.2753L125.971 47.9181L126.611 47.5846L124.757 42.6807ZM126.838 44.3399L127.292 44.1862C127.649 44.0524 127.889 43.8413 128.013 43.5529C128.136 43.2646 128.131 42.9418 127.954 42.5731C127.82 42.2159 127.609 41.9757 127.363 41.864C127.118 41.7523 126.741 41.789 126.286 41.9427C126.081 42.0253 125.918 42.1193 125.712 42.2019L125.549 42.296L126.383 44.4936C126.438 44.4623 126.589 44.411 126.838 44.3399ZM128.266 47.0639C128.774 46.8788 129.123 46.605 129.301 46.2853C129.478 45.9656 129.473 45.6428 129.319 45.1884C129.154 44.7769 128.943 44.5367 128.697 44.425C128.409 44.3018 128.032 44.3385 127.566 44.535C127.014 44.7086 126.7 44.8539 126.549 44.9052L127.434 47.2542C127.551 47.3315 127.854 47.229 128.266 47.0639Z" fill="#313131"/>
<path d="M137.163 38.0168L137.286 38.4168L136.645 38.7503L138.153 43.7452L138.93 43.5862L139.053 43.9862L136.804 44.6691L136.682 44.269L137.31 43.9784L135.771 38.9292L133.176 39.703L134.716 44.7523L135.493 44.5932L135.615 44.9933L133.366 45.6762L133.244 45.2761L133.873 44.9855L132.365 39.9906L131.642 40.1182L131.52 39.7182L137.163 38.0168Z" fill="#313131"/>
<path d="M140.679 43.2285C140.219 43.0594 139.837 42.7733 139.531 42.3702C139.226 41.9671 138.998 41.4469 138.848 40.8098C138.697 40.1726 138.663 39.6127 138.77 39.0444C138.865 38.5189 139.119 38.0821 139.448 37.7112C139.777 37.3403 140.212 37.0894 140.752 36.9586C141.595 36.7254 142.303 36.8234 142.92 37.264C143.493 37.6932 143.912 38.3564 144.154 39.3393C144.305 39.9765 144.327 40.5792 144.232 41.1047C144.125 41.673 143.871 42.1098 143.499 42.4692C143.127 42.8287 142.693 43.0796 142.195 43.2218C141.601 43.3839 141.138 43.3976 140.679 43.2285ZM139.716 38.4256C139.524 38.971 139.566 39.6709 139.788 40.5567C139.978 41.3881 140.323 41.9855 140.725 42.3688C141.128 42.752 141.642 42.8898 142.139 42.7475C142.679 42.6168 142.996 42.2887 143.2 41.7005C143.392 41.1551 143.361 40.4124 143.14 39.5266C142.949 38.6952 142.604 38.0977 142.202 37.7145C141.8 37.3312 141.329 37.205 140.789 37.3358C140.268 37.5636 139.897 37.9231 139.716 38.4256Z" fill="#313131"/>
<path d="M146.956 39.6768C147.018 40.4738 146.954 41.0536 146.785 41.5133C146.728 41.7274 146.585 41.9187 146.465 42.0242C146.345 42.1297 146.182 42.2238 145.987 42.2636C145.739 42.3347 145.513 42.3201 145.416 42.34L145.223 41.6914C145.363 41.683 145.557 41.6432 145.848 41.5836C145.945 41.5637 146.043 41.5438 146.108 41.4696C146.174 41.3954 146.24 41.3212 146.274 41.1927C146.567 40.4447 146.471 39.0877 146.054 37.0477L145.903 36.4105L144.912 36.5122L144.832 36.1236L149.592 35.1495L149.672 35.5381L148.914 35.7943L149.968 40.9429L150.819 40.8497L150.899 41.2383L148.373 41.7551L148.294 41.3665L149.148 41.0905L148.094 35.9419L146.443 36.2798L146.614 37.0141C146.758 38.0169 146.883 38.9226 146.956 39.6768Z" fill="#313131"/>
<path d="M151.289 35.3287L150.6 35.3278L150.532 34.8964L154.761 34.1931L155.105 35.4789L154.63 35.5355L154.246 34.7438L152.197 35.0213L152.577 37.3726L153.98 37.1058L153.981 36.4174L154.455 36.3608L154.767 38.2807L154.293 38.3373L154.068 37.6343L152.677 37.8583L153.065 40.3496L155.396 39.8725L155.652 38.7474L156.178 38.8423L156.196 40.3163L151.59 41.0563L151.511 40.6677L152.202 40.4857L151.289 35.3287Z" fill="#313131"/>
<path d="M158.234 34.2515L156.8 34.464L156.738 36.2378L156.167 36.3143L156.032 34.0746L161.249 33.4524L161.62 35.6638L161.103 35.7089L160.605 33.9687L159.151 34.0841L159.805 39.355L161.01 39.3108L161.036 39.7307L157.856 40.1183L157.831 39.6983L158.899 39.4796L158.234 34.2515Z" fill="#313131"/>
<path d="M165.121 36.6479L164.701 36.6731C164.581 36.7786 164.438 36.9698 164.326 37.2154C164.203 37.5037 164.069 37.8349 163.954 38.2632C163.796 38.6801 163.716 38.9799 163.616 39.1826C163.515 39.3853 163.438 39.5023 163.341 39.5222L162.21 39.6323L162.184 39.2123L162.487 39.1099C162.585 39.09 162.65 39.0158 162.739 38.8559C162.828 38.6961 162.939 38.4506 163.074 38.1194C163.22 37.7453 163.398 37.4256 163.509 37.1801C163.664 36.9461 163.807 36.7549 163.97 36.6608C163.573 36.6003 163.253 36.4228 163.011 36.1283C162.768 35.8338 162.635 35.4766 162.609 35.0567C162.556 34.3996 162.736 33.8971 163.085 33.6233C163.488 33.3181 164.04 33.1445 164.783 33.114C164.923 33.1056 165.16 33.0773 165.428 33.1033C165.708 33.0865 165.891 33.0896 166.031 33.0812L167.248 32.9941L167.273 33.4141L166.593 33.5532L167.001 38.7125L167.775 38.7363L167.8 39.1562L165.312 39.3618L165.287 38.9418L166.107 38.7943L165.93 36.5432L165.121 36.6479ZM165.465 33.4804C165.196 33.4544 165.002 33.4942 164.776 33.4796C164.357 33.5048 163.999 33.6387 163.813 33.8184C163.573 34.0295 163.481 34.3722 163.538 34.8464C163.552 35.3092 163.74 35.635 163.951 35.8752C164.216 36.0841 164.559 36.1759 164.979 36.1507C165.442 36.1369 165.733 36.0773 165.873 36.0689L165.69 33.495L165.465 33.4804Z" fill="#313131"/>
<path d="M170.298 33.2605L168.844 33.3759L168.599 35.1466L168.039 35.1802L168.099 32.9008L173.341 32.6985L173.518 34.9497L173.013 34.9519L172.655 33.2033L171.181 33.2215L171.36 38.5491L172.543 38.5905L172.568 39.0104L169.371 39.118L169.346 38.6981L170.435 38.5765L170.298 33.2605Z" fill="#313131"/>
<path d="M177.436 38.662C177.01 38.3644 176.694 38.0041 176.454 37.5268C176.215 37.0495 176.139 36.4781 176.128 35.8325C176.16 35.1984 176.309 34.6416 176.575 34.162C176.842 33.6824 177.213 33.3229 177.691 33.0836C178.168 32.8442 178.665 32.702 179.257 32.7227C179.665 32.7403 180.202 32.7924 180.802 32.953L181.059 33.0219L180.925 34.5471L180.377 34.5379L180.201 33.4808C180.127 33.415 180.01 33.3377 179.796 33.2803C179.582 33.2229 179.356 33.2084 179.087 33.1824C178.722 33.1762 178.419 33.2787 178.136 33.4783C177.853 33.6779 177.633 33.9862 177.444 34.3487C177.286 34.7656 177.171 35.1939 177.151 35.7852C177.141 36.3336 177.198 36.8078 177.32 37.2079C177.443 37.6079 177.662 37.9881 177.959 38.2513C178.256 38.5144 178.587 38.6491 178.995 38.6667C179.318 38.6614 179.501 38.6644 179.695 38.6247C179.847 38.5734 179.998 38.5222 180.118 38.4167L180.476 37.5944L181.002 37.6893L180.777 38.8688C180.637 38.8772 180.486 38.9284 180.249 38.9567C180.055 38.9965 179.849 39.079 179.666 39.076C179.472 39.1157 179.246 39.1012 178.966 39.118C178.375 39.0973 177.861 38.9596 177.436 38.662Z" fill="#313131"/>
<path d="M184.469 32.9717L184.452 33.3802L183.612 33.4306L183.304 37.6635L184.073 36.6761L186.702 33.8913L186.716 33.6657L185.977 33.5134L185.994 33.105L188.294 33.262L188.276 33.6704L187.619 33.7239L187.273 38.9566L187.97 39.0974L187.952 39.5058L185.61 39.3373L185.628 38.9289L186.37 38.8983L186.647 34.6111L185.943 35.5243L183.26 38.3405L183.223 38.6518L184.017 38.7727L183.999 39.1812L181.614 39.0012L181.632 38.5927L182.332 38.5507L182.678 33.3181L182.024 33.1888L182.041 32.7803L184.469 32.9717Z" fill="#313131"/>
<path d="M193.609 33.814L193.433 36.0161L192.853 35.9526L192.806 34.2415L190.95 33.9736L190.355 39.2774L191.803 39.5276L191.743 39.9246L188.447 39.5465L188.507 39.1495L189.421 39.1649L189.981 33.9896L189.125 33.76L189.185 33.3631L193.609 33.814Z" fill="#313131"/>
<path d="M195.028 34.5157L194.397 34.3007L194.457 33.9037L196.711 34.2321L196.65 34.629L195.919 34.6167L195.591 36.8701L198.498 37.3278L198.826 35.0744L198.153 34.8479L198.213 34.4509L200.466 34.7793L200.406 35.1763L199.718 35.1754L198.932 40.3362L199.574 40.5083L199.514 40.9053L197.26 40.577L197.321 40.18L198.009 40.1808L198.383 37.7561L195.476 37.2984L195.102 39.7231L195.83 39.9183L195.769 40.3152L193.473 39.9754L193.534 39.5784L194.222 39.5793L195.028 34.5157Z" fill="#313131"/>
<path d="M203.511 35.4112L204.422 35.6094L205.266 41.7119L205.768 41.8924L205.708 42.2894L203.532 41.8441L203.592 41.4471L204.312 41.5022L204.162 40.1766L201.772 39.6739L201.139 40.8357L201.813 41.0622L201.752 41.4592L199.79 41.0712L199.851 40.6742L200.399 40.6834L203.511 35.4112ZM203.778 36.8141L203.704 36.0599L203.381 36.7536L202.026 39.2371L204.117 39.6596L203.778 36.8141Z" fill="#313131"/>
<path d="M208.329 40.5585C208.048 41.2637 207.716 41.8175 207.399 42.1456C207.213 42.3253 207.05 42.4194 206.898 42.4706C206.747 42.5219 206.564 42.5188 206.35 42.4614C206.093 42.3925 205.879 42.3351 205.762 42.2579L205.848 41.5924C205.977 41.6269 206.191 41.6842 206.448 41.7531C206.534 41.7761 206.631 41.7562 206.728 41.7363C206.825 41.7164 206.891 41.6422 207.011 41.5367C207.569 40.9975 208.139 39.727 208.635 37.7024L208.807 37.0599L207.908 36.8189L208.023 36.3905L212.757 37.5673L212.642 37.9957L211.837 37.9176L210.568 42.9949L211.359 43.2986L211.256 43.6841L208.717 43.0498L208.821 42.6643L209.7 42.8082L210.969 37.7309L209.287 37.3261L209.092 38.0543C208.894 38.9653 208.61 39.8533 208.329 40.5585Z" fill="#313131"/>
<path d="M215.573 40.9385C216.204 41.1535 216.672 41.4626 216.935 41.8542C217.197 42.2459 217.242 42.7629 217.05 43.3083C216.835 43.9393 216.495 44.3531 216.029 44.5496C215.509 44.7775 214.96 44.7683 214.318 44.5962C214.232 44.5732 214.146 44.5502 214.061 44.5273C213.975 44.5043 213.889 44.4814 213.772 44.4041C213.484 44.2809 213.184 44.2006 212.939 44.0889L211.836 43.7477L211.94 43.3622L212.636 43.503L214.162 38.4945L213.554 38.1939L213.657 37.8084L215.947 38.5138L215.844 38.8993L215.007 38.7669L214.417 40.6286L215.573 40.9385ZM213.844 43.9643C213.93 43.9873 214.09 44.076 214.261 44.1219C214.732 44.2482 215.098 44.2543 215.424 44.0662C215.75 43.878 215.97 43.5698 216.096 43.0986C216.222 42.6275 216.217 42.3047 216.029 41.9788C215.872 41.7073 215.564 41.4869 215.104 41.3179L214.29 41.0998L213.47 43.8182C213.641 43.8641 213.758 43.9413 213.844 43.9643ZM221.341 40.1427L221.238 40.5282L220.444 40.4073L218.918 45.4158L219.655 45.7508L219.552 46.1363L217.176 45.408L217.279 45.0225L218.062 45.1862L219.587 40.1778L218.851 39.8427L218.954 39.4572L221.341 40.1427Z" fill="#313131"/>
<path d="M224.807 41.9437L224.21 41.6003L224.356 41.2262L226.483 42.0257L226.337 42.3998L225.64 42.259L224.841 44.3861L227.63 45.4549L228.43 43.3278L227.833 42.9843L227.979 42.6102L230.107 43.4098L229.96 43.7838L229.306 43.6544L227.438 48.5711L228.046 48.8717L227.9 49.2458L225.773 48.4463L225.919 48.0722L226.604 48.2559L227.493 45.9689L224.703 44.9001L223.815 47.1871L224.454 47.542L224.308 47.916L222.15 47.0622L222.296 46.6882L222.981 46.8718L224.807 41.9437Z" fill="#313131"/>
<path d="M232.916 44.5758L233.781 44.9453L233.322 51.1119L233.747 51.4095L233.601 51.7835L231.551 50.867L231.697 50.4929L232.371 50.7194L232.544 49.3885L230.28 48.4146L229.425 49.379L230.064 49.734L229.918 50.108L228.071 49.2917L228.217 48.9177L228.731 49.0554L232.916 44.5758ZM232.891 46.0382L233.001 45.2871L232.517 45.8921L230.664 48.0123L232.639 48.863L232.891 46.0382Z" fill="#313131"/>
<path d="M239.096 48.068L238.32 47.5387L238.509 47.1761L240.481 48.2097L239.802 52.1137L239.558 53.196L240.282 52.3799L243.062 49.5439L245.034 50.5774L244.845 50.94L243.969 50.6133L242.143 55.5414L242.76 55.982L242.571 56.3446L240.438 55.2223L240.627 54.8597L241.333 55.1405L242.737 51.6144L243.333 50.0755L242.446 50.9857L239.186 54.2439L238.706 53.9776L239.38 49.7509L239.676 48.1316L238.803 49.5045L236.748 52.7184L237.45 53.182L237.261 53.5446L235.331 52.5225L235.52 52.16L236.183 52.4293L239.096 48.068Z" fill="#313131"/>
<path d="M247.826 52.1519L248.614 52.6384L247.447 58.707L247.872 59.0046L247.683 59.3671L245.777 58.2594L245.966 57.8969L246.628 58.1662L246.918 56.9125L244.82 55.6617L243.848 56.5489L244.421 56.9781L244.232 57.3406L242.528 56.3331L242.717 55.9706L243.22 56.1511L247.826 52.1519ZM247.63 53.5684L247.825 52.8403L247.268 53.3795L245.149 55.2908L247.013 56.387L247.63 53.5684Z" fill="#313131"/>
<path d="M251.553 55.0326L251.077 54.5836L251.308 54.2325L252.245 54.8507C252.404 54.9394 252.596 55.0825 252.755 55.1712C253.032 55.3372 253.278 55.4489 253.512 55.6034C254.171 56.0555 254.605 56.4931 254.716 56.936C254.827 57.3789 254.743 57.8615 254.434 58.3296C254.191 58.7235 253.896 58.966 253.528 59.1426C253.159 59.3193 252.782 59.356 252.385 59.2955C251.988 59.235 251.571 59.0774 251.177 58.8342C251.017 58.7454 250.9 58.6682 250.752 58.5366C250.592 58.4478 250.518 58.3821 250.486 58.3277L249.471 59.8919L250.384 60.5957L250.152 60.9467L247.843 59.4557L248.075 59.1047L248.726 59.4168L251.553 55.0326ZM251.409 58.4831C251.803 58.7264 252.146 58.8182 252.534 58.7387C252.923 58.6592 253.271 58.3853 253.604 57.8316C253.847 57.4377 253.95 57.0522 253.848 56.7493C253.745 56.4464 253.503 56.1519 253.077 55.8543C252.918 55.7655 252.758 55.6768 252.555 55.5766C252.438 55.4993 252.352 55.4764 252.352 55.4764L250.718 57.9767C250.867 58.1082 251.058 58.2513 251.409 58.4831Z" fill="#313131"/>
<path d="M253.541 62.8646C253.344 62.3988 253.299 61.8817 253.382 61.3991C253.466 60.9164 253.712 60.3397 254.087 59.7974C254.45 59.298 254.877 58.9071 255.354 58.6678C255.831 58.4284 256.36 58.3405 256.897 58.3925C257.434 58.4446 257.936 58.6252 258.393 58.977C258.744 59.2088 259.146 59.5921 259.537 60.0182L259.76 60.2155L258.804 61.3827L258.336 61.0736L258.783 60.0915C258.763 59.9944 258.657 59.8743 258.563 59.7114C258.469 59.5484 258.235 59.3939 258.001 59.2394C257.693 59.0191 257.393 58.9387 257.027 58.9326C256.662 58.9264 256.305 59.0602 255.967 59.2912C255.63 59.5222 255.258 59.8816 254.961 60.3069C254.663 60.7322 254.451 61.1804 254.293 61.5972C254.179 62.0256 254.118 62.4225 254.241 62.8226C254.363 63.2227 254.563 63.5057 254.914 63.7375C255.148 63.892 255.339 64.0351 255.51 64.081C255.681 64.1269 255.81 64.1613 255.95 64.1529L256.722 63.6711L257.124 64.0543L256.249 64.9217C256.132 64.8444 255.961 64.7985 255.758 64.6983C255.544 64.6409 255.384 64.5521 255.17 64.4948C255.01 64.406 254.807 64.3058 254.573 64.1513C254.128 63.7565 253.737 63.3305 253.541 62.8646Z" fill="#313131"/>
<path d="M265.827 64.6418L265.552 64.9814L264.85 64.5178L262.181 67.7967L263.381 67.4297L267.116 66.6858L267.259 66.4945L266.762 65.9484L267.037 65.6088L268.84 67.102L268.566 67.4416L267.969 67.0981L264.631 71.1617L265.139 71.6651L264.875 71.9619L263.072 70.4686L263.335 70.1719L263.963 70.5697L266.686 67.2594L265.583 67.6066L261.752 68.3704L261.555 68.5929L262.094 69.1506L261.831 69.4474L259.984 67.9426L260.247 67.6459L260.833 68.0322L264.171 63.9686L263.706 63.4767L263.981 63.1371L265.827 64.6418Z" fill="#313131"/>
<path d="M270.099 68.4032C270.345 68.5149 270.493 68.6465 270.653 68.7352C270.813 68.8239 270.961 68.9555 271.078 69.0328C271.597 69.4933 271.934 69.9507 272.045 70.3936C272.156 70.8365 272.052 71.222 271.735 71.5501C271.417 71.8782 271.092 72.0664 270.683 72.0488C270.306 72.0854 269.921 71.9821 269.57 71.7503C269.929 72.1221 270.148 72.5023 270.185 72.8794C270.222 73.2565 270.076 73.6305 269.813 73.9273C269.418 74.3724 268.941 74.6118 268.446 74.5712C267.941 74.5735 267.418 74.2957 266.782 73.758C266.517 73.5491 266.348 73.3204 266.18 73.0917C266.012 72.863 265.918 72.7 265.812 72.5799C265.75 72.4713 265.687 72.3627 265.655 72.3084L266.748 71.3156L267.045 71.5788L266.512 72.5379C266.615 72.8408 266.857 73.1353 267.185 73.4528C267.482 73.716 267.727 73.8277 268.062 73.7795C268.353 73.7199 268.668 73.5746 268.942 73.235C269.194 72.981 269.274 72.6812 269.312 72.3699C269.349 72.0586 269.118 71.7212 268.747 71.3923L268.302 70.9976L268.62 70.6695L268.991 70.9984C269.182 71.1415 269.373 71.2845 269.587 71.3419C269.801 71.3993 270.027 71.4138 270.276 71.3427C270.524 71.2716 270.699 71.1347 270.896 70.9121C271.159 70.6154 271.271 70.3698 271.211 70.0784C271.194 69.7985 271.026 69.5697 270.729 69.3066C270.55 69.1207 270.39 69.032 270.187 68.9317C270.027 68.843 269.887 68.8514 269.79 68.8713L269.158 69.3447L268.744 69.0043L269.568 67.9855C269.705 68.1599 269.865 68.2487 270.099 68.4032Z" fill="#313131"/>
<path d="M275.12 73.6508L274.721 73.0848L275.027 72.7995L275.82 73.6088C275.968 73.7404 276.148 73.9263 276.37 74.1237C276.593 74.321 276.741 74.4526 276.816 74.5184C277.355 75.076 277.691 75.5335 277.717 75.9534C277.796 76.342 277.65 76.716 277.332 77.0441C277.026 77.3294 276.712 77.4747 276.378 77.5229C276.044 77.571 275.658 77.4677 275.307 77.2359C275.709 77.6192 275.929 77.9994 275.954 78.4193C275.979 78.8392 275.845 79.1704 275.527 79.4985C275.144 79.9008 274.635 80.0859 274.141 80.0453C273.604 79.9933 273.007 79.6498 272.351 79.0149C272.203 78.8833 272.066 78.7089 271.96 78.5888C271.675 78.2828 271.495 78.0969 271.421 78.0311L270.628 77.2218L270.934 76.9365L271.508 77.3657L275.12 73.6508ZM272.626 78.6753C273.028 79.0585 273.379 79.2903 273.745 79.2965C274.111 79.3026 274.425 79.1573 274.731 78.872C275.037 78.5867 275.172 78.2555 275.155 77.9756C275.138 77.6956 274.95 77.3698 274.59 76.998C274.188 76.6147 273.934 76.3631 273.829 76.243L272.067 78.0205C272.087 78.1176 272.309 78.315 272.626 78.6753ZM274.528 76.201L274.857 76.5184C275.153 76.7816 275.43 76.9476 275.71 76.9308C275.99 76.914 276.304 76.7687 276.568 76.4719C276.831 76.1752 276.985 75.9411 276.968 75.6612C276.952 75.3812 276.764 75.0553 276.435 74.7379C276.287 74.6063 276.139 74.4747 275.947 74.3317L275.799 74.2001L274.157 75.872C274.243 75.895 274.349 76.0151 274.528 76.201Z" fill="#313131"/>
<path d="M280.664 78.4877L281.309 79.1655L278.432 84.5922L278.725 85.0382L278.419 85.3235L276.93 83.6849L277.236 83.3996L277.755 83.8601L278.431 82.7098L276.762 80.8854L275.559 81.4352L276.001 82.0128L275.695 82.2981L274.343 80.8339L274.649 80.5486L275.063 80.8891L280.664 78.4877ZM279.997 79.7781L280.406 79.1073L279.712 79.4721L277.142 80.6659L278.6 82.2501L279.997 79.7781Z" fill="#313131"/>
<path d="M279.512 86.2134C279.424 85.6848 279.508 85.2022 279.731 84.7111C279.955 84.2201 280.307 83.7635 280.83 83.3527C281.31 82.9306 281.83 82.7027 282.37 82.5719C282.91 82.4412 283.447 82.4932 283.95 82.6738C284.452 82.8543 284.878 83.1519 285.257 83.6208C285.531 83.9697 285.824 84.4156 286.095 84.9473L286.209 85.2073L285 86.1228L284.652 85.7082L285.344 84.8378C285.324 84.7407 285.316 84.6007 285.222 84.4378C285.128 84.2748 285.002 84.0576 284.822 83.8717C284.58 83.5772 284.303 83.4112 283.96 83.3194C283.618 83.2275 283.241 83.2642 282.841 83.3866C282.441 83.5089 282.006 83.7598 281.592 84.1078C281.177 84.4558 280.848 84.8267 280.616 85.1778C280.373 85.5717 280.27 85.9572 280.263 86.3228C280.257 86.6884 280.391 87.0456 280.665 87.3945C280.876 87.6347 281.024 87.7662 281.184 87.855C281.344 87.9437 281.461 88.021 281.601 88.0126L282.456 87.7365L282.749 88.1825L281.706 88.8211C281.632 88.7553 281.483 88.6237 281.292 88.4807C281.089 88.3805 280.941 88.2489 280.793 88.1173C280.644 87.9857 280.453 87.8427 280.285 87.614C279.84 87.2192 279.6 86.7419 279.512 86.2134Z" fill="#313131"/>
<path d="M288.087 89.3371C288.604 89.292 289.044 89.3639 289.46 89.5215C289.877 89.6791 290.248 90.0081 290.522 90.3569C290.859 90.8143 291.024 91.2259 291.08 91.7001C291.094 92.1629 291.022 92.6027 290.767 93.0394C290.513 93.4762 290.172 93.8899 289.66 94.2578C289.137 94.6685 288.563 94.9278 288.023 95.0585C287.483 95.1893 286.989 95.1487 286.486 94.9681C285.984 94.7876 285.644 94.5129 285.339 94.1098C285.002 93.6524 284.806 93.1865 284.749 92.7123C284.693 92.238 284.807 91.8097 285.019 91.3615C285.274 90.9248 285.614 90.511 286.083 90.1316L285.273 89.0423L283.312 90.5368L283.688 91.1885L283.351 91.4195L281.962 89.5782L282.299 89.3473L282.807 89.8506L286.959 86.6935L286.614 86.0961L286.963 85.8222L288.32 87.6092L287.971 87.883L287.463 87.3796L285.677 88.7372L286.486 89.8265C287.104 89.5787 287.601 89.4365 288.087 89.3371ZM288.817 90.0378C288.257 90.0714 287.586 90.3505 286.834 90.9295C286.19 91.4457 285.741 91.9222 285.549 92.4676C285.357 93.0129 285.414 93.4872 285.75 93.9446C286.098 94.3592 286.504 94.5597 287.075 94.4832C287.635 94.4496 288.275 94.1162 289.016 93.58C289.659 93.0638 290.108 92.5873 290.3 92.0419C290.492 91.4966 290.436 91.0223 290.13 90.6192C289.825 90.2161 289.377 90.0042 288.817 90.0378Z" fill="#313131"/>
<path d="M291.67 98.2393C291.578 98.5819 291.366 99.0302 291.131 99.564C290.942 99.9266 290.862 100.226 290.773 100.386C290.727 100.558 290.681 100.729 290.713 100.783L290.815 101.086L290.478 101.317L289.879 100.468C289.816 100.359 289.819 100.177 289.931 99.9311C290.043 99.6856 290.189 99.3115 290.401 98.8633C290.678 98.3409 290.836 97.9241 290.959 97.6357C291.082 97.3473 291.054 97.1102 291.003 96.9588L290.709 96.5128L288.739 97.8673L289.061 98.5504L288.724 98.7813L287.444 96.8774L287.781 96.6464L288.235 97.1811L292.554 94.2527L292.264 93.6239L292.601 93.3929L293.85 95.2426L293.513 95.4735L293.059 94.9388L291.047 96.2818L291.434 96.8907L294.402 96.9514L294.069 96.3112L294.406 96.0802L295.549 97.8097L295.212 98.0407L294.747 97.5488L291.705 97.4224C291.788 97.6281 291.762 97.8966 291.67 98.2393Z" fill="#313131"/>
<path d="M291.501 102.464C291.53 102.013 291.657 101.541 291.997 101.128C292.295 100.702 292.721 100.312 293.264 99.9979C293.818 99.6415 294.37 99.468 294.887 99.4229C295.447 99.3893 295.93 99.4727 296.378 99.6846C296.826 99.8965 297.197 100.225 297.479 100.714C297.918 101.475 298.057 102.155 297.819 102.871C297.593 103.545 297.067 104.139 296.24 104.652C295.686 105.008 295.134 105.182 294.563 105.258C294.003 105.292 293.52 105.208 293.029 104.985C292.581 104.773 292.222 104.401 291.928 103.955C291.614 103.412 291.515 102.927 291.501 102.464ZM295.8 100.127C295.252 100.117 294.549 100.342 293.777 100.824C293.059 101.275 292.568 101.74 292.333 102.273C292.055 102.796 292.112 103.27 292.394 103.759C292.687 104.205 293.124 104.46 293.673 104.469C294.264 104.49 294.924 104.253 295.696 103.771C296.413 103.321 296.905 102.856 297.14 102.322C297.364 101.831 297.361 101.325 297.079 100.837C296.785 100.391 296.391 100.147 295.8 100.127Z" fill="#313131"/>
<path d="M299.177 104.658L298.941 103.998L299.321 103.778L299.886 104.756C299.98 104.919 300.105 105.136 300.273 105.365C300.442 105.594 300.536 105.757 300.598 105.865C300.963 106.56 301.148 107.068 301.076 107.508C301.004 107.948 300.796 108.213 300.404 108.476C300.078 108.664 299.689 108.743 299.335 108.694C298.981 108.645 298.661 108.468 298.388 108.119C298.67 108.608 298.749 108.997 298.677 109.436C298.617 109.833 298.354 110.13 297.974 110.35C297.485 110.632 296.968 110.677 296.465 110.496C295.963 110.316 295.498 109.824 295.027 109.009C294.933 108.846 294.851 108.641 294.757 108.478C294.537 108.097 294.423 107.837 294.392 107.783L293.827 106.805L294.196 106.629L294.595 107.195L299.177 104.658ZM295.365 108.778C295.647 109.267 295.932 109.573 296.275 109.665C296.617 109.757 296.952 109.709 297.332 109.489C297.712 109.27 297.921 109.004 297.99 108.747C298.059 108.49 297.979 108.102 297.728 107.667C297.446 107.178 297.258 106.852 297.195 106.744L294.991 107.944C295.031 108.138 295.145 108.398 295.365 108.778ZM297.881 106.927L298.089 107.35C298.277 107.676 298.542 107.885 298.799 107.954C299.099 108.034 299.39 107.975 299.771 107.755C300.096 107.567 300.294 107.345 300.363 107.088C300.432 106.831 300.341 106.485 300.09 106.05C299.996 105.887 299.859 105.713 299.776 105.507L299.682 105.344L297.63 106.493C297.692 106.602 297.755 106.71 297.881 106.927Z" fill="#313131"/>
<path d="M305.739 116.149L305.37 116.326L304.982 115.717L300.286 117.994L300.542 118.751L300.174 118.928L299.145 116.77L299.514 116.593L299.901 117.202L304.64 114.937L303.455 112.507L298.705 114.815L298.961 115.573L298.592 115.749L297.552 113.634L297.921 113.458L298.277 114.012L302.973 111.736L302.748 111.033L303.117 110.856L305.739 116.149Z" fill="#313131"/>
<path d="M301.095 120.46C301.178 119.977 301.421 119.583 301.75 119.212C302.122 118.853 302.58 118.516 303.154 118.257C303.729 117.998 304.311 117.878 304.848 117.93C305.385 117.983 305.856 118.109 306.282 118.406C306.707 118.704 307.012 119.107 307.209 119.573C307.539 120.396 307.581 121.096 307.226 121.735C306.914 122.386 306.271 122.902 305.393 123.264C304.776 123.512 304.193 123.631 303.656 123.579C303.119 123.527 302.605 123.389 302.18 123.092C301.755 122.794 301.45 122.391 301.21 121.914C301.068 121.417 300.98 120.888 301.095 120.46ZM305.673 118.794C305.104 118.688 304.425 118.827 303.547 119.189C302.767 119.53 302.201 119.93 301.892 120.398C301.583 120.866 301.499 121.349 301.727 121.869C301.955 122.389 302.338 122.675 302.906 122.781C303.474 122.888 304.197 122.76 305.032 122.387C305.812 122.045 306.378 121.646 306.687 121.178C306.996 120.71 307.037 120.215 306.851 119.707C306.624 119.187 306.241 118.9 305.673 118.794Z" fill="#313131"/>
<path d="M305.561 126.064C304.784 126.223 304.17 126.288 303.73 126.216C303.516 126.159 303.302 126.101 303.196 125.981C303.048 125.849 302.942 125.729 302.86 125.524C302.746 125.264 302.706 125.069 302.698 124.929L303.327 124.639C303.335 124.779 303.418 124.984 303.532 125.244C303.551 125.342 303.626 125.407 303.7 125.473C303.774 125.539 303.86 125.562 303.988 125.596C304.771 125.76 306.131 125.482 308.025 124.75L308.643 124.502L308.39 123.562L308.801 123.397L310.521 127.944L310.109 128.109L309.745 127.414L304.841 129.268L305.043 130.057L304.643 130.179L303.737 127.733L304.137 127.61L304.522 128.402L309.426 126.548L308.839 124.968L308.125 125.236C307.182 125.672 306.339 125.905 305.561 126.064Z" fill="#313131"/>
<path d="M310.556 129.698L310.417 129.018L310.817 128.895L312.157 132.973L310.965 133.48L310.812 133.026L311.498 132.521L310.886 130.521L308.626 131.246L309.098 132.567L309.81 132.482L309.963 132.936L308.103 133.539L307.949 133.085L308.59 132.752L308.171 131.4L305.802 132.188L306.625 134.429L307.796 134.513L307.799 135.019L306.322 135.22L304.847 130.785L305.247 130.662L305.538 131.291L310.556 129.698Z" fill="#313131"/>
<path d="M312.713 136.381L312.252 135.018L310.452 135.225L310.321 134.685L312.513 134.216L313.955 139.285L311.792 139.991L311.649 139.494L313.276 138.736L312.923 137.31L307.811 138.741L308.05 139.906L307.65 140.029L306.776 136.948L307.176 136.826L307.547 137.843L312.713 136.381Z" fill="#313131"/>
<path d="M311.387 143.555L311.307 143.167C311.202 143.047 310.988 142.989 310.688 142.909C310.388 142.829 310.034 142.78 309.594 142.708C309.154 142.636 308.854 142.555 308.64 142.498C308.426 142.441 308.309 142.363 308.289 142.266L308.039 141.143L308.428 141.064L308.573 141.378C308.604 141.433 308.721 141.51 308.881 141.599C309.053 141.644 309.31 141.713 309.641 141.848C310.026 141.951 310.369 142.043 310.669 142.123C310.914 142.235 311.117 142.335 311.265 142.467C311.283 142.058 311.418 141.727 311.627 141.462C311.89 141.165 312.216 140.977 312.604 140.897C313.241 140.747 313.767 140.842 314.095 141.159C314.423 141.477 314.694 142.008 314.864 142.743C314.916 142.894 314.944 143.131 314.972 143.368C314.989 143.648 315.029 143.843 315.08 143.994L315.361 145.171L314.961 145.294L314.682 144.622L309.585 145.827L309.701 146.593L309.324 146.629L308.73 144.221L309.118 144.141L309.374 144.898L311.535 144.375L311.387 143.555ZM314.541 143.436C314.512 143.199 314.484 142.962 314.444 142.768C314.334 142.325 314.177 142.053 313.954 141.856C313.732 141.659 313.366 141.653 312.923 141.763C312.48 141.874 312.154 142.062 311.988 142.339C311.822 142.616 311.773 142.97 311.884 143.413C311.995 143.856 312.055 144.148 312.117 144.256L314.623 143.642L314.541 143.436Z" fill="#313131"/>
<path d="M315.527 148.154L315.217 146.739L313.409 146.806L313.321 146.277L315.552 146.003L316.563 151.14L314.36 151.651L314.272 151.123L315.95 150.516L315.737 149.082L310.514 150.07L310.656 151.256L310.267 151.335L309.642 148.184L310.031 148.104L310.347 149.153L315.527 148.154Z" fill="#313131"/>
<path d="M311.307 156.021C311.519 155.573 311.86 155.159 312.294 154.908C312.74 154.614 313.291 154.441 313.917 154.333C314.531 154.268 315.123 154.289 315.614 154.512C316.116 154.693 316.53 155.033 316.878 155.448C317.226 155.862 317.411 156.371 317.487 156.942C317.556 157.374 317.558 157.879 317.483 158.502L317.457 158.77L315.96 158.874L315.883 158.303L316.901 157.933C316.967 157.859 317.012 157.687 317.015 157.505C317.019 157.322 317.045 157.053 316.973 156.805C316.925 156.47 316.78 156.156 316.526 155.904C316.272 155.653 315.952 155.475 315.524 155.36C315.096 155.246 314.633 155.259 314.073 155.293C313.545 155.381 313.102 155.492 312.679 155.7C312.256 155.908 311.961 156.15 311.741 156.458C311.521 156.767 311.46 157.164 311.497 157.541C311.556 157.832 311.585 158.069 311.679 158.232C311.73 158.384 311.836 158.504 311.941 158.624L312.798 158.853L312.789 159.402L311.563 159.349C311.543 159.252 311.503 159.058 311.378 158.84C311.295 158.635 311.201 158.472 311.162 158.277C311.122 158.083 311.039 157.877 311.022 157.597C311.032 157.049 311.084 156.512 311.307 156.021Z" fill="#313131"/>
<path d="M318.024 162.136L317.604 162.161L317.414 161.33L313.18 161.71L314.256 162.32L317.447 164.461L317.684 164.432L317.708 163.658L318.128 163.633L318.336 165.939L317.916 165.964L317.766 165.327L312.541 165.809L312.528 166.54L312.109 166.565L311.911 164.217L312.331 164.192L312.502 164.926L316.778 164.557L315.734 164.002L312.511 161.807L312.231 161.824L312.208 162.598L311.788 162.623L311.59 160.275L312.01 160.249L312.15 160.929L317.375 160.447L317.418 159.77L317.838 159.745L318.024 162.136Z" fill="#313131"/>
<path d="M318.601 171.289L316.404 171.435L316.37 170.875L318.065 170.548L318.053 168.709L312.756 168.942L312.732 170.405L312.312 170.43L312.141 167.125L312.561 167.1L312.686 168.005L317.897 167.749L317.955 166.846L318.375 166.821L318.601 171.289Z" fill="#313131"/>
<path d="M318.114 172.765L318.2 172.1L318.609 172.117L318.592 174.408L318.183 174.391L318.099 173.679L315.851 173.674L315.833 176.653L318.081 176.659L318.167 175.993L318.576 176.011L318.57 178.259L318.162 178.241L318.065 177.573L312.827 177.592L312.74 178.258L312.332 178.24L312.337 175.992L312.746 176.009L312.83 176.721L315.261 176.729L315.279 173.75L312.848 173.742L312.75 174.45L312.342 174.432L312.316 172.13L312.725 172.148L312.821 172.816L318.114 172.765Z" fill="#313131"/>
<path d="M318.584 181.292L318.569 182.206L312.677 183.979L312.582 184.504L312.173 184.487L312.264 182.262L312.673 182.279L312.715 182.979L314.001 182.635L314.106 180.184L312.899 179.723L312.801 180.431L312.392 180.414L312.469 178.414L312.877 178.432L312.923 178.949L318.584 181.292ZM317.21 181.796L317.944 181.626L317.184 181.376L314.512 180.385L314.401 182.513L317.21 181.796Z" fill="#313131"/>
<path d="M314.24 186.877C313.469 186.671 312.924 186.479 312.542 186.192C312.35 186.049 312.202 185.918 312.151 185.766C312.057 185.603 312.06 185.421 312.063 185.238C312.089 184.969 312.092 184.787 312.169 184.67L312.858 184.67C312.823 184.799 312.809 185.025 312.783 185.293C312.76 185.379 312.78 185.476 312.842 185.584C312.862 185.682 312.936 185.747 313.053 185.825C313.658 186.308 315.041 186.633 317.06 186.806L317.737 186.85L317.904 185.885L318.312 185.902L317.886 190.746L317.478 190.729L317.459 189.943L312.261 189.469L312.085 190.294L311.677 190.276L311.914 187.677L312.323 187.695L312.319 188.566L317.517 189.041L317.653 187.333L316.891 187.266C315.86 187.173 314.98 187.03 314.24 186.877Z" fill="#313131"/>
<path d="M314.98 194.054C314.893 194.719 314.658 195.253 314.255 195.558C313.895 195.875 313.409 195.974 312.83 195.911C312.207 195.836 311.739 195.526 311.445 195.081C311.151 194.635 311.075 194.063 311.161 193.398C311.184 193.312 311.207 193.226 311.188 193.129C311.168 193.032 311.233 192.958 311.268 192.829C311.348 192.53 311.386 192.218 311.455 191.961L311.624 190.813L312.021 190.874L312.009 191.605L317.224 192.359L317.451 191.686L317.848 191.746L317.485 194.128L317.088 194.067L317.037 193.228L315.095 192.937L314.98 194.054ZM311.719 192.858C311.696 192.944 311.65 193.115 311.647 193.298C311.564 193.781 311.655 194.127 311.897 194.421C312.14 194.716 312.459 194.893 312.954 194.934C313.393 195.006 313.782 194.926 314.022 194.715C314.305 194.515 314.44 194.184 314.523 193.702L314.656 192.865L311.822 192.473C311.777 192.644 311.742 192.773 311.719 192.858ZM316.65 199.643L316.253 199.582L316.277 198.808L311.104 198.065L310.898 198.836L310.501 198.776L310.832 196.339L311.229 196.4L311.206 197.174L316.378 197.917L316.584 197.146L316.981 197.207L316.65 199.643Z" fill="#313131"/>
<path d="M315.383 203.343L315.641 202.724L316.027 202.827L315.515 205.077L315.13 204.974L315.185 204.254L312.978 203.755L312.337 206.659L314.545 207.159L314.802 206.539L315.188 206.642L314.688 208.85L314.303 208.747L314.346 208.07L309.223 206.972L309.008 207.603L308.623 207.5L309.122 205.293L309.508 205.396L309.464 206.073L311.855 206.576L312.495 203.671L310.105 203.169L309.867 203.885L309.481 203.782L309.992 201.532L310.378 201.635L310.334 202.312L315.383 203.343Z" fill="#313131"/>
<path d="M314.017 211.7L313.776 212.599L307.657 213.163L307.433 213.654L307.048 213.551L307.579 211.398L307.964 211.501L307.866 212.209L309.169 212.145L309.757 209.778L308.65 209.114L308.381 209.776L307.995 209.673L308.469 207.734L308.854 207.837L308.802 208.374L314.017 211.7ZM312.594 211.869L313.38 211.85L312.698 211.484L310.291 210.013L309.783 212.08L312.594 211.869Z" fill="#313131"/>
<path d="M311.527 218.424L311.939 217.57L312.313 217.717L311.611 219.824L307.643 219.725L306.558 219.663L307.505 220.239L310.736 222.574L310.034 224.681L309.66 224.535L309.858 223.624L304.669 222.601L304.357 223.251L303.983 223.105L304.742 220.784L305.116 220.93L304.964 221.67L308.682 222.528L310.29 222.867L309.248 222.129L305.53 219.388L305.71 218.886L309.981 218.882L311.669 218.921L310.153 218.24L306.661 216.707L306.315 217.487L305.941 217.34L306.631 215.276L307.005 215.422L306.865 216.119L311.527 218.424Z" fill="#313131"/>
<path d="M308.853 227.715L308.526 228.592L302.388 228.37L302.133 228.807L301.759 228.661L302.59 226.588L302.964 226.734L302.78 227.42L304.091 227.496L304.98 225.209L303.961 224.385L303.606 225.024L303.232 224.878L303.963 223.008L304.337 223.154L304.242 223.679L308.853 227.715ZM307.39 227.691L308.153 227.757L307.537 227.317L305.351 225.538L304.586 227.536L307.39 227.691Z" fill="#313131"/>
<path d="M306.569 231.786L306.944 231.244L307.318 231.39L306.86 232.415C306.759 232.618 306.713 232.789 306.625 232.949C306.502 233.237 306.433 233.494 306.321 233.74C305.986 234.476 305.634 234.933 305.211 235.141C304.799 235.306 304.337 235.32 303.76 235.073C303.355 234.873 303.046 234.653 302.815 234.315C302.584 233.978 302.493 233.632 302.468 233.212C302.443 232.792 302.558 232.364 302.758 231.959C302.847 231.799 302.881 231.67 302.97 231.51C303.059 231.351 303.082 231.265 303.136 231.234L301.449 230.506L300.905 231.508L300.531 231.362L301.659 228.864L302.033 229.01L301.807 229.684L306.569 231.786ZM303.164 232.159C302.963 232.564 302.957 232.93 303.079 233.33C303.202 233.73 303.541 234.005 304.118 234.251C304.566 234.463 304.932 234.469 305.192 234.355C305.506 234.21 305.727 233.902 305.939 233.454C306.027 233.294 306.073 233.122 306.131 232.908C306.165 232.78 306.188 232.694 306.199 232.651L303.444 231.454C303.41 231.582 303.298 231.828 303.164 232.159Z" fill="#313131"/>
<path d="M299.147 234.985C299.581 234.734 300.079 234.592 300.584 234.59C301.133 234.599 301.69 234.748 302.255 235.037C302.82 235.327 303.277 235.678 303.57 236.124C303.907 236.582 304.049 237.079 304.094 237.596C304.139 238.113 304.044 238.639 303.767 239.161C303.566 239.566 303.269 239.992 302.905 240.491L302.751 240.725L301.429 240.004L301.652 239.513L302.723 239.8C302.82 239.78 302.94 239.674 303.072 239.526C303.204 239.378 303.304 239.175 303.458 238.941C303.636 238.621 303.673 238.31 303.594 237.921C303.546 237.587 303.358 237.261 303.084 236.912C302.798 236.606 302.416 236.32 301.894 236.042C301.403 235.819 300.943 235.65 300.503 235.578C300.063 235.506 299.643 235.531 299.275 235.708C298.917 235.842 298.666 236.096 298.465 236.501C298.342 236.789 298.242 236.992 298.239 237.175C298.193 237.346 298.201 237.486 298.253 237.638L298.855 238.304L298.557 238.729L297.558 238.003C297.592 237.874 297.638 237.703 297.696 237.489C297.753 237.274 297.756 237.092 297.814 236.877C297.86 236.706 297.971 236.461 298.083 236.215C298.361 235.693 298.701 235.279 299.147 234.985Z" fill="#313131"/>
<path d="M299.314 247.379L298.963 247.148L299.31 246.368L295.656 244.242L296.186 245.348L297.513 248.963L297.715 249.063L298.199 248.458L298.55 248.69L297.376 250.671L297.025 250.439L297.283 249.819L292.756 247.183L292.327 247.757L291.964 247.568L293.149 245.544L293.512 245.733L293.188 246.427L296.873 248.608L296.32 247.587L295.005 243.929L294.728 243.763L294.233 244.411L293.871 244.222L295.067 242.156L295.43 242.345L295.16 243.007L299.688 245.643L300.105 245.112L300.456 245.344L299.314 247.379Z" fill="#313131"/>
<path d="M296.287 252.169C296.175 252.415 296.118 252.629 296.029 252.789C295.94 252.948 295.851 253.108 295.774 253.225C295.388 253.81 295.005 254.213 294.593 254.378C294.182 254.543 293.773 254.526 293.379 254.282C292.985 254.039 292.797 253.713 292.718 253.325C292.638 252.936 292.687 252.582 292.845 252.165C292.547 252.59 292.198 252.864 291.81 252.944C291.421 253.023 291.067 252.974 290.716 252.742C290.205 252.422 289.9 252.019 289.855 251.502C289.798 251.027 289.959 250.428 290.423 249.725C290.589 249.449 290.786 249.226 290.983 249.003C291.169 248.824 291.344 248.687 291.464 248.581C291.584 248.476 291.65 248.402 291.692 248.413L292.828 249.314L292.596 249.665L291.56 249.25C291.288 249.407 291.037 249.661 290.739 250.086C290.519 250.394 290.481 250.705 290.541 250.997C290.601 251.288 290.855 251.54 291.248 251.783C291.525 251.949 291.825 252.029 292.159 251.981C292.494 251.933 292.788 251.691 293.031 251.297L293.352 250.786L293.746 251.029L293.503 251.423C293.36 251.614 293.302 251.828 293.245 252.043C293.23 252.268 293.259 252.505 293.341 252.711C293.424 252.917 293.603 253.103 293.837 253.257C294.146 253.478 294.457 253.515 294.706 253.444C294.954 253.373 295.194 253.162 295.415 252.854C295.558 252.662 295.658 252.46 295.661 252.277C295.707 252.106 295.699 251.966 295.636 251.857L295.054 251.288L295.351 250.863L296.47 251.484C296.444 251.752 296.356 251.912 296.287 252.169Z" fill="#313131"/>
<path d="M291.875 258.011L292.378 257.503L292.729 257.735L292.068 258.66C291.936 258.808 291.836 259.011 291.67 259.288C291.516 259.522 291.427 259.682 291.35 259.799C290.909 260.415 290.483 260.806 290.083 260.928C289.683 261.051 289.286 260.99 288.946 260.716C288.638 260.495 288.396 260.201 288.316 259.812C288.225 259.466 288.274 259.112 288.42 258.738C288.123 259.164 287.774 259.437 287.374 259.56C286.985 259.639 286.588 259.579 286.249 259.304C285.792 258.952 285.541 258.518 285.496 258.001C285.451 257.484 285.677 256.81 286.238 256.088C286.37 255.939 286.459 255.779 286.59 255.631C286.865 255.291 287.019 255.057 287.074 255.026L287.735 254.101L288.086 254.333L287.742 254.93L291.875 258.011ZM286.504 256.297C286.152 256.753 286.037 257.181 286.042 257.504C286.048 257.827 286.279 258.164 286.63 258.396C286.969 258.671 287.312 258.763 287.603 258.703C287.895 258.643 288.189 258.401 288.475 258.018C288.827 257.562 289.005 257.242 289.082 257.125L287.041 255.66C286.987 255.692 286.79 255.914 286.504 256.297ZM289.233 257.762L288.947 258.145C288.726 258.453 288.646 258.753 288.706 259.044C288.765 259.336 288.965 259.619 289.273 259.839C289.581 260.059 289.881 260.14 290.161 260.123C290.41 260.052 290.693 259.852 290.99 259.427C291.122 259.279 291.222 259.076 291.311 258.916L291.4 258.756L289.519 257.38C289.496 257.466 289.376 257.571 289.233 257.762Z" fill="#313131"/>
<path d="M287.92 264.205L287.359 264.927L281.52 262.903L281.148 263.263L280.809 262.988L282.193 261.247L282.533 261.522L282.147 262.107L283.354 262.568L284.882 260.636L284.158 259.57L283.654 260.078L283.315 259.803L284.556 258.254L284.896 258.528L284.63 259.008L287.92 264.205ZM286.529 263.74L287.235 264.021L286.761 263.389L285.187 261.039L283.868 262.706L286.529 263.74Z" fill="#313131"/>
<path d="M280.099 264.267C280.596 264.125 281.102 264.123 281.616 264.26C282.13 264.398 282.641 264.719 283.129 265.125C283.617 265.531 283.953 265.988 284.138 266.497C284.323 267.006 284.368 267.523 284.273 268.048C284.179 268.574 283.912 269.053 283.572 269.467C283.297 269.807 282.883 270.155 282.414 270.534L282.185 270.702L281.095 269.63L281.478 269.228L282.437 269.76C282.535 269.74 282.686 269.689 282.86 269.552C283.023 269.458 283.209 269.278 283.364 269.044C283.616 268.79 283.75 268.459 283.756 268.093C283.805 267.739 283.714 267.394 283.495 267.013C283.275 266.633 283.013 266.242 282.556 265.89C282.143 265.549 281.76 265.263 281.343 265.106C280.926 264.948 280.529 264.887 280.152 264.924C279.775 264.961 279.449 265.149 279.175 265.489C278.977 265.711 278.834 265.902 278.788 266.074C278.7 266.233 278.708 266.373 278.674 266.502L279.058 267.294L278.644 267.642L277.885 266.704C277.951 266.63 278.04 266.47 278.151 266.224C278.252 266.022 278.34 265.862 278.429 265.702C278.518 265.542 278.661 265.351 278.858 265.128C279.144 264.746 279.602 264.409 280.099 264.267Z" fill="#313131"/>
<path d="M278.334 273.251C278.476 273.749 278.49 274.211 278.375 274.64C278.261 275.068 278.06 275.473 277.7 275.79C277.317 276.192 276.882 276.443 276.439 276.554C275.996 276.665 275.502 276.624 275.043 276.455C274.583 276.286 274.115 275.977 273.67 275.582C273.193 275.133 272.825 274.622 272.652 274.07C272.467 273.561 272.379 273.033 272.505 272.562C272.588 272.079 272.843 271.642 273.172 271.271C273.555 270.869 273.99 270.618 274.444 270.464C274.887 270.354 275.381 270.394 275.841 270.563C276.301 270.732 276.769 271.041 277.214 271.436L278.166 270.452L276.377 268.733L275.8 269.175L275.514 268.869L277.113 267.186L277.41 267.449L276.981 268.022L280.738 271.646L281.262 271.235L281.547 271.541L279.96 273.182L279.674 272.876L280.103 272.302L278.463 270.715L277.511 271.699C277.953 272.277 278.192 272.754 278.334 273.251ZM277.805 274.028C277.674 273.488 277.286 272.879 276.63 272.244C276.048 271.675 275.451 271.331 274.883 271.225C274.315 271.118 273.818 271.261 273.434 271.663C273.051 272.065 272.936 272.494 273.067 273.034C273.198 273.574 273.586 274.183 274.285 274.829C274.867 275.398 275.42 275.73 275.977 275.879C276.534 276.029 276.988 275.875 277.372 275.473C277.755 275.07 277.881 274.599 277.805 274.028Z" fill="#313131"/>
<path d="M270.099 278.115C269.744 278.066 269.273 277.939 268.716 277.79C268.331 277.687 268.031 277.607 267.817 277.549C267.646 277.503 267.506 277.512 267.397 277.574L267.083 277.72L266.797 277.414L267.541 276.695C267.65 276.632 267.801 276.581 268.101 276.661C268.358 276.73 268.743 276.833 269.257 276.971C269.803 277.163 270.231 277.278 270.585 277.327C270.885 277.407 271.122 277.379 271.254 277.231L271.625 276.871L269.988 275.101L269.368 275.532L269.082 275.226L270.787 273.662L271.072 273.968L270.611 274.488L274.172 278.334L274.738 277.935L275.023 278.241L273.373 279.773L273.088 279.467L273.517 278.893L271.879 277.123L271.333 277.619L271.735 280.573L272.301 280.174L272.587 280.48L271.057 281.906L270.771 281.6L271.189 281.07L270.853 278.041C270.776 278.158 270.453 278.164 270.099 278.115Z" fill="#313131"/>
<path d="M265.916 278.647C266.39 278.59 266.873 278.673 267.31 278.928C267.801 279.152 268.203 279.535 268.625 280.015C269.047 280.496 269.318 281.027 269.449 281.567C269.58 282.107 269.582 282.613 269.413 283.073C269.244 283.532 268.989 283.969 268.574 284.317C267.919 284.876 267.216 285.101 266.508 285.003C265.8 284.905 265.141 284.453 264.464 283.721C264.042 283.24 263.772 282.709 263.641 282.169C263.51 281.629 263.508 281.123 263.688 280.621C263.826 280.107 264.112 279.724 264.527 279.376C264.976 278.9 265.442 278.703 265.916 278.647ZM268.874 282.515C268.797 281.943 268.464 281.303 267.862 280.637C267.303 279.982 266.76 279.607 266.215 279.415C265.67 279.223 265.184 279.323 264.769 279.671C264.355 280.019 264.186 280.478 264.262 281.05C264.338 281.621 264.672 282.261 265.262 282.97C265.821 283.625 266.364 284 266.909 284.192C267.466 284.341 267.952 284.242 268.366 283.894C268.781 283.546 268.95 283.086 268.874 282.515Z" fill="#313131"/>
<path d="M264.956 286.515L265.553 286.17L265.827 286.519L264.955 287.203C264.792 287.298 264.606 287.477 264.409 287.7C264.223 287.88 264.048 288.016 263.94 288.079C263.308 288.553 262.83 288.792 262.411 288.817C261.991 288.842 261.628 288.653 261.354 288.305C261.112 288.01 260.978 287.653 260.984 287.287C260.99 286.922 261.125 286.59 261.388 286.294C260.973 286.642 260.562 286.807 260.153 286.789C259.745 286.772 259.382 286.583 259.109 286.234C258.772 285.776 258.63 285.279 258.725 284.754C258.82 284.228 259.249 283.655 259.947 283.107C260.121 282.97 260.284 282.876 260.404 282.77C260.753 282.497 260.97 282.371 261.036 282.297L261.908 281.613L262.139 281.95L261.635 282.458L264.956 286.515ZM260.275 283.424C259.817 283.761 259.585 284.112 259.536 284.466C259.487 284.82 259.578 285.166 259.852 285.515C260.126 285.864 260.403 286.03 260.714 286.067C261.026 286.105 261.34 285.959 261.743 285.654C262.2 285.318 262.495 285.075 262.572 284.958L261.035 282.985C260.864 282.94 260.635 283.108 260.275 283.424ZM262.497 285.581L262.148 285.855C261.854 286.097 261.688 286.374 261.65 286.685C261.613 286.997 261.715 287.3 262.001 287.606C262.243 287.9 262.52 288.066 262.788 288.092C263.057 288.118 263.371 287.973 263.774 287.668C263.949 287.531 264.08 287.382 264.255 287.245L264.375 287.14L262.943 285.287C262.792 285.338 262.672 285.444 262.497 285.581Z" fill="#313131"/>
<g style="mix-blend-mode:overlay">
<circle cx="78.0604" cy="75.5853" r="0.901438" fill="#313131"/>
</g>
<g style="mix-blend-mode:overlay">
<circle cx="260.376" cy="64.0336" r="0.901438" fill="#313131"/>
</g>
</g>
</svg>
